M48
; DRILL file {KiCad (5.1.9)-1} date 04/25/21 03:29:41
; FORMAT={-:-/ absolute / inch / decimal}
; #@! TF.CreationDate,2021-04-25T03:29:41+02:00
; #@! TF.GenerationSoftware,Kicad,Pcbnew,(5.1.9)-1
; #@! TF.FileFunction,Plated,1,2,PTH
FMAT,2
INCH
T1C0.0118
T2C0.0236
T3C0.0276
T4C0.0300
T5C0.0350
T6C0.0394
T7C0.0453
T8C0.0791
%
G90
G05
T1
X5.4843Y-2.7913
X5.5276Y-3.126
X5.8307Y-3.2677
X5.8386Y-2.4961
X5.8685Y-3.0571
T2
X5.7598Y-2.2598
X5.8071Y-2.063
T3
X5.7835Y-1.811
X5.7835Y-1.911
T4
X4.5197Y-3.4087
X4.5197Y-4.0087
X4.6197Y-3.4087
X4.6197Y-4.0087
X4.7197Y-3.4087
X4.7197Y-4.0087
X4.8197Y-3.4087
X4.8197Y-4.0087
X4.8697Y-3.5087
X4.9197Y-3.4087
X4.9197Y-4.0087
X4.9697Y-3.5087
X5.0197Y-3.4087
X5.0197Y-4.0087
X5.1197Y-3.4087
X5.1197Y-4.0087
X5.2197Y-3.4087
X5.2197Y-4.0087
X5.3197Y-3.4087
X5.3197Y-4.0087
X5.4197Y-3.4087
X5.4197Y-4.0087
X5.5197Y-3.4087
X5.5197Y-4.0087
X5.6197Y-3.4087
X5.6197Y-3.5087
X5.6197Y-3.6087
X5.6197Y-3.7087
X5.6197Y-4.0087
X5.8307Y-3.3976
X5.9094Y-3.3976
X5.9882Y-3.3976
X6.0669Y-3.3976
X6.1457Y-3.3976
X6.2244Y-3.3976
X6.3031Y-3.3976
X6.3819Y-3.3976
T5
X4.8583Y-2.7559
X4.8583Y-2.8559
T6
X4.4213Y-1.7323
X4.4213Y-2.3386
X5.5787Y-1.937
X5.5787Y-2.1339
X6.0898Y-2.8228
X6.1898Y-2.8228
X6.1909Y-2.9685
X6.2055Y-3.2283
X6.2898Y-2.8228
X6.2909Y-2.9685
X6.3055Y-3.2283
X6.3898Y-2.8228
X6.3909Y-2.9685
X6.4055Y-3.2283
T7
X6.0984Y-1.7953
X6.0984Y-1.9921
X6.0984Y-2.189
X6.2953Y-1.7953
X6.2953Y-1.9921
X6.2953Y-2.189
T8
X4.6583Y-2.5559
X4.6583Y-2.9559
T0
M30
