%TF.GenerationSoftware,KiCad,Pcbnew,(5.1.9)-1*%
%TF.CreationDate,2021-04-26T03:37:11+02:00*%
%TF.ProjectId,HB-Uni-SEN-ORB,48422d55-6e69-42d5-9345-4e2d4f52422e,rev?*%
%TF.SameCoordinates,Original*%
%TF.FileFunction,Soldermask,Top*%
%TF.FilePolarity,Negative*%
%FSLAX46Y46*%
G04 Gerber Fmt 4.6, Leading zero omitted, Abs format (unit mm)*
G04 Created by KiCad (PCBNEW (5.1.9)-1) date 2021-04-26 03:37:11*
%MOMM*%
%LPD*%
G01*
G04 APERTURE LIST*
%ADD10O,1.700000X1.700000*%
%ADD11R,1.700000X1.700000*%
%ADD12R,1.500000X1.500000*%
%ADD13O,1.400000X1.400000*%
%ADD14C,1.400000*%
%ADD15C,1.600000*%
%ADD16C,1.524000*%
%ADD17O,1.270000X1.270000*%
%ADD18C,1.270000*%
%ADD19R,1.200000X2.000000*%
%ADD20R,1.970000X0.600000*%
%ADD21C,2.300000*%
%ADD22O,2.500000X1.600000*%
%ADD23O,7.000000X3.500000*%
%ADD24O,3.000000X1.500000*%
G04 APERTURE END LIST*
%TO.C,R6*%
G36*
G01*
X151199999Y-75900000D02*
X152100001Y-75900000D01*
G75*
G02*
X152350000Y-76149999I0J-249999D01*
G01*
X152350000Y-76850001D01*
G75*
G02*
X152100001Y-77100000I-249999J0D01*
G01*
X151199999Y-77100000D01*
G75*
G02*
X150950000Y-76850001I0J249999D01*
G01*
X150950000Y-76149999D01*
G75*
G02*
X151199999Y-75900000I249999J0D01*
G01*
G37*
G36*
G01*
X151199999Y-73900000D02*
X152100001Y-73900000D01*
G75*
G02*
X152350000Y-74149999I0J-249999D01*
G01*
X152350000Y-74850001D01*
G75*
G02*
X152100001Y-75100000I-249999J0D01*
G01*
X151199999Y-75100000D01*
G75*
G02*
X150950000Y-74850001I0J249999D01*
G01*
X150950000Y-74149999D01*
G75*
G02*
X151199999Y-73900000I249999J0D01*
G01*
G37*
%TD*%
%TO.C,R5*%
G36*
G01*
X153349999Y-75900000D02*
X154250001Y-75900000D01*
G75*
G02*
X154500000Y-76149999I0J-249999D01*
G01*
X154500000Y-76850001D01*
G75*
G02*
X154250001Y-77100000I-249999J0D01*
G01*
X153349999Y-77100000D01*
G75*
G02*
X153100000Y-76850001I0J249999D01*
G01*
X153100000Y-76149999D01*
G75*
G02*
X153349999Y-75900000I249999J0D01*
G01*
G37*
G36*
G01*
X153349999Y-73900000D02*
X154250001Y-73900000D01*
G75*
G02*
X154500000Y-74149999I0J-249999D01*
G01*
X154500000Y-74850001D01*
G75*
G02*
X154250001Y-75100000I-249999J0D01*
G01*
X153349999Y-75100000D01*
G75*
G02*
X153100000Y-74850001I0J249999D01*
G01*
X153100000Y-74149999D01*
G75*
G02*
X153349999Y-73900000I249999J0D01*
G01*
G37*
%TD*%
D10*
%TO.C,PH_SENSOR*%
X162330000Y-75400000D03*
D11*
X159790000Y-75400000D03*
D10*
X157250000Y-75400000D03*
%TD*%
D12*
%TO.C,Cal1*%
X122900000Y-81500000D03*
X115100000Y-81500000D03*
%TD*%
D13*
%TO.C,R8*%
X146900000Y-48540000D03*
D14*
X146900000Y-46000000D03*
%TD*%
D15*
%TO.C,RV1*%
X147500000Y-52400000D03*
X146300000Y-57400000D03*
%TD*%
D12*
%TO.C,Config*%
X155400000Y-66900000D03*
X163200000Y-66900000D03*
%TD*%
D16*
%TO.C,U1*%
X114800000Y-101820000D03*
X117340000Y-101820000D03*
X119880000Y-101820000D03*
X122420000Y-101820000D03*
X124960000Y-101820000D03*
X127500000Y-101820000D03*
X130040000Y-101820000D03*
X132580000Y-101820000D03*
X135120000Y-101820000D03*
X137660000Y-101820000D03*
X140200000Y-101820000D03*
X142740000Y-101820000D03*
X142740000Y-86580000D03*
X140200000Y-86580000D03*
X137660000Y-86580000D03*
X135120000Y-86580000D03*
X132580000Y-86580000D03*
X130040000Y-86580000D03*
X127500000Y-86580000D03*
X124960000Y-86580000D03*
X122420000Y-86580000D03*
X119880000Y-86580000D03*
X117340000Y-86580000D03*
X114800000Y-86580000D03*
X126230000Y-89120000D03*
X123690000Y-89120000D03*
X142740000Y-89120000D03*
X142740000Y-91660000D03*
X142740000Y-94200000D03*
%TD*%
D17*
%TO.C,U2*%
X162100000Y-86300000D03*
X160100000Y-86300000D03*
D18*
X158100000Y-86300000D03*
X156100000Y-86300000D03*
X154100000Y-86300000D03*
X152100000Y-86300000D03*
X150100000Y-86300000D03*
X148100000Y-86300000D03*
D19*
X162100000Y-85300000D03*
X160100000Y-85300000D03*
X158100000Y-85300000D03*
X156100000Y-85300000D03*
X154100000Y-85300000D03*
X152100000Y-85300000D03*
X150100000Y-85300000D03*
X148100000Y-85300000D03*
%TD*%
D10*
%TO.C,LCD*%
X154680000Y-71700000D03*
X157220000Y-71700000D03*
D11*
X159760000Y-71700000D03*
D10*
X162300000Y-71700000D03*
%TD*%
D11*
%TO.C,DS18B20*%
X162700000Y-82000000D03*
D10*
X160160000Y-82000000D03*
X157620000Y-82000000D03*
%TD*%
%TO.C,R7*%
G36*
G01*
X158200000Y-78799999D02*
X158200000Y-79700001D01*
G75*
G02*
X157950001Y-79950000I-249999J0D01*
G01*
X157249999Y-79950000D01*
G75*
G02*
X157000000Y-79700001I0J249999D01*
G01*
X157000000Y-78799999D01*
G75*
G02*
X157249999Y-78550000I249999J0D01*
G01*
X157950001Y-78550000D01*
G75*
G02*
X158200000Y-78799999I0J-249999D01*
G01*
G37*
G36*
G01*
X160200000Y-78799999D02*
X160200000Y-79700001D01*
G75*
G02*
X159950001Y-79950000I-249999J0D01*
G01*
X159249999Y-79950000D01*
G75*
G02*
X159000000Y-79700001I0J249999D01*
G01*
X159000000Y-78799999D01*
G75*
G02*
X159249999Y-78550000I249999J0D01*
G01*
X159950001Y-78550000D01*
G75*
G02*
X160200000Y-78799999I0J-249999D01*
G01*
G37*
%TD*%
D20*
%TO.C,U3*%
X135130000Y-63395000D03*
X135130000Y-64665000D03*
X135130000Y-65935000D03*
X135130000Y-67205000D03*
X140070000Y-67205000D03*
X140070000Y-65935000D03*
X140070000Y-64665000D03*
X140070000Y-63395000D03*
%TD*%
%TO.C,C5*%
G36*
G01*
X144574999Y-78175000D02*
X146425001Y-78175000D01*
G75*
G02*
X146675000Y-78424999I0J-249999D01*
G01*
X146675000Y-80175001D01*
G75*
G02*
X146425001Y-80425000I-249999J0D01*
G01*
X144574999Y-80425000D01*
G75*
G02*
X144325000Y-80175001I0J249999D01*
G01*
X144325000Y-78424999D01*
G75*
G02*
X144574999Y-78175000I249999J0D01*
G01*
G37*
G36*
G01*
X144574999Y-73075000D02*
X146425001Y-73075000D01*
G75*
G02*
X146675000Y-73324999I0J-249999D01*
G01*
X146675000Y-75075001D01*
G75*
G02*
X146425001Y-75325000I-249999J0D01*
G01*
X144574999Y-75325000D01*
G75*
G02*
X144325000Y-75075001I0J249999D01*
G01*
X144325000Y-73324999D01*
G75*
G02*
X144574999Y-73075000I249999J0D01*
G01*
G37*
%TD*%
%TO.C,C7*%
G36*
G01*
X128474999Y-81175000D02*
X130325001Y-81175000D01*
G75*
G02*
X130575000Y-81424999I0J-249999D01*
G01*
X130575000Y-83175001D01*
G75*
G02*
X130325001Y-83425000I-249999J0D01*
G01*
X128474999Y-83425000D01*
G75*
G02*
X128225000Y-83175001I0J249999D01*
G01*
X128225000Y-81424999D01*
G75*
G02*
X128474999Y-81175000I249999J0D01*
G01*
G37*
G36*
G01*
X128474999Y-76075000D02*
X130325001Y-76075000D01*
G75*
G02*
X130575000Y-76324999I0J-249999D01*
G01*
X130575000Y-78075001D01*
G75*
G02*
X130325001Y-78325000I-249999J0D01*
G01*
X128474999Y-78325000D01*
G75*
G02*
X128225000Y-78075001I0J249999D01*
G01*
X128225000Y-76324999D01*
G75*
G02*
X128474999Y-76075000I249999J0D01*
G01*
G37*
%TD*%
%TO.C,C1*%
G36*
G01*
X128874999Y-69175000D02*
X130925001Y-69175000D01*
G75*
G02*
X131175000Y-69424999I0J-249999D01*
G01*
X131175000Y-71175001D01*
G75*
G02*
X130925001Y-71425000I-249999J0D01*
G01*
X128874999Y-71425000D01*
G75*
G02*
X128625000Y-71175001I0J249999D01*
G01*
X128625000Y-69424999D01*
G75*
G02*
X128874999Y-69175000I249999J0D01*
G01*
G37*
G36*
G01*
X128874999Y-62775000D02*
X130925001Y-62775000D01*
G75*
G02*
X131175000Y-63024999I0J-249999D01*
G01*
X131175000Y-64775001D01*
G75*
G02*
X130925001Y-65025000I-249999J0D01*
G01*
X128874999Y-65025000D01*
G75*
G02*
X128625000Y-64775001I0J249999D01*
G01*
X128625000Y-63024999D01*
G75*
G02*
X128874999Y-62775000I249999J0D01*
G01*
G37*
%TD*%
%TO.C,C2*%
G36*
G01*
X143974999Y-69175000D02*
X146025001Y-69175000D01*
G75*
G02*
X146275000Y-69424999I0J-249999D01*
G01*
X146275000Y-71175001D01*
G75*
G02*
X146025001Y-71425000I-249999J0D01*
G01*
X143974999Y-71425000D01*
G75*
G02*
X143725000Y-71175001I0J249999D01*
G01*
X143725000Y-69424999D01*
G75*
G02*
X143974999Y-69175000I249999J0D01*
G01*
G37*
G36*
G01*
X143974999Y-62775000D02*
X146025001Y-62775000D01*
G75*
G02*
X146275000Y-63024999I0J-249999D01*
G01*
X146275000Y-64775001D01*
G75*
G02*
X146025001Y-65025000I-249999J0D01*
G01*
X143974999Y-65025000D01*
G75*
G02*
X143725000Y-64775001I0J249999D01*
G01*
X143725000Y-63024999D01*
G75*
G02*
X143974999Y-62775000I249999J0D01*
G01*
G37*
%TD*%
%TO.C,U4*%
X133830000Y-75595000D03*
X133830000Y-76865000D03*
X133830000Y-78135000D03*
X133830000Y-79405000D03*
X138770000Y-79405000D03*
X138770000Y-78135000D03*
X138770000Y-76865000D03*
X138770000Y-75595000D03*
%TD*%
%TO.C,R4*%
G36*
G01*
X152849999Y-68300000D02*
X153750001Y-68300000D01*
G75*
G02*
X154000000Y-68549999I0J-249999D01*
G01*
X154000000Y-69250001D01*
G75*
G02*
X153750001Y-69500000I-249999J0D01*
G01*
X152849999Y-69500000D01*
G75*
G02*
X152600000Y-69250001I0J249999D01*
G01*
X152600000Y-68549999D01*
G75*
G02*
X152849999Y-68300000I249999J0D01*
G01*
G37*
G36*
G01*
X152849999Y-66300000D02*
X153750001Y-66300000D01*
G75*
G02*
X154000000Y-66549999I0J-249999D01*
G01*
X154000000Y-67250001D01*
G75*
G02*
X153750001Y-67500000I-249999J0D01*
G01*
X152849999Y-67500000D01*
G75*
G02*
X152600000Y-67250001I0J249999D01*
G01*
X152600000Y-66549999D01*
G75*
G02*
X152849999Y-66300000I249999J0D01*
G01*
G37*
%TD*%
%TO.C,R3*%
G36*
G01*
X137300000Y-81149999D02*
X137300000Y-82050001D01*
G75*
G02*
X137050001Y-82300000I-249999J0D01*
G01*
X136349999Y-82300000D01*
G75*
G02*
X136100000Y-82050001I0J249999D01*
G01*
X136100000Y-81149999D01*
G75*
G02*
X136349999Y-80900000I249999J0D01*
G01*
X137050001Y-80900000D01*
G75*
G02*
X137300000Y-81149999I0J-249999D01*
G01*
G37*
G36*
G01*
X139300000Y-81149999D02*
X139300000Y-82050001D01*
G75*
G02*
X139050001Y-82300000I-249999J0D01*
G01*
X138349999Y-82300000D01*
G75*
G02*
X138100000Y-82050001I0J249999D01*
G01*
X138100000Y-81149999D01*
G75*
G02*
X138349999Y-80900000I249999J0D01*
G01*
X139050001Y-80900000D01*
G75*
G02*
X139300000Y-81149999I0J-249999D01*
G01*
G37*
%TD*%
%TO.C,R2*%
G36*
G01*
X142100000Y-82050001D02*
X142100000Y-81149999D01*
G75*
G02*
X142349999Y-80900000I249999J0D01*
G01*
X143050001Y-80900000D01*
G75*
G02*
X143300000Y-81149999I0J-249999D01*
G01*
X143300000Y-82050001D01*
G75*
G02*
X143050001Y-82300000I-249999J0D01*
G01*
X142349999Y-82300000D01*
G75*
G02*
X142100000Y-82050001I0J249999D01*
G01*
G37*
G36*
G01*
X140100000Y-82050001D02*
X140100000Y-81149999D01*
G75*
G02*
X140349999Y-80900000I249999J0D01*
G01*
X141050001Y-80900000D01*
G75*
G02*
X141300000Y-81149999I0J-249999D01*
G01*
X141300000Y-82050001D01*
G75*
G02*
X141050001Y-82300000I-249999J0D01*
G01*
X140349999Y-82300000D01*
G75*
G02*
X140100000Y-82050001I0J249999D01*
G01*
G37*
%TD*%
%TO.C,R1*%
G36*
G01*
X135900000Y-72649999D02*
X135900000Y-73550001D01*
G75*
G02*
X135650001Y-73800000I-249999J0D01*
G01*
X134949999Y-73800000D01*
G75*
G02*
X134700000Y-73550001I0J249999D01*
G01*
X134700000Y-72649999D01*
G75*
G02*
X134949999Y-72400000I249999J0D01*
G01*
X135650001Y-72400000D01*
G75*
G02*
X135900000Y-72649999I0J-249999D01*
G01*
G37*
G36*
G01*
X137900000Y-72649999D02*
X137900000Y-73550001D01*
G75*
G02*
X137650001Y-73800000I-249999J0D01*
G01*
X136949999Y-73800000D01*
G75*
G02*
X136700000Y-73550001I0J249999D01*
G01*
X136700000Y-72649999D01*
G75*
G02*
X136949999Y-72400000I249999J0D01*
G01*
X137650001Y-72400000D01*
G75*
G02*
X137900000Y-72649999I0J-249999D01*
G01*
G37*
%TD*%
D21*
%TO.C,PS1*%
X112300000Y-44000000D03*
X141700000Y-49200000D03*
X141700000Y-54200000D03*
X112300000Y-59400000D03*
%TD*%
D22*
%TO.C,J2*%
X123400000Y-72540000D03*
X123400000Y-70000000D03*
D23*
X118320000Y-64920000D03*
X118320000Y-75080000D03*
%TD*%
D24*
%TO.C,WAGO236-403*%
X159900000Y-45600000D03*
X154900000Y-45600000D03*
X159900000Y-50600000D03*
X154900000Y-50600000D03*
X159900000Y-55600000D03*
X154900000Y-55600000D03*
%TD*%
%TO.C,D1*%
G36*
G01*
X152849999Y-64425000D02*
X153750001Y-64425000D01*
G75*
G02*
X154000000Y-64674999I0J-249999D01*
G01*
X154000000Y-65325001D01*
G75*
G02*
X153750001Y-65575000I-249999J0D01*
G01*
X152849999Y-65575000D01*
G75*
G02*
X152600000Y-65325001I0J249999D01*
G01*
X152600000Y-64674999D01*
G75*
G02*
X152849999Y-64425000I249999J0D01*
G01*
G37*
G36*
G01*
X152849999Y-62375000D02*
X153750001Y-62375000D01*
G75*
G02*
X154000000Y-62624999I0J-249999D01*
G01*
X154000000Y-63275001D01*
G75*
G02*
X153750001Y-63525000I-249999J0D01*
G01*
X152849999Y-63525000D01*
G75*
G02*
X152600000Y-63275001I0J249999D01*
G01*
X152600000Y-62624999D01*
G75*
G02*
X152849999Y-62375000I249999J0D01*
G01*
G37*
%TD*%
%TO.C,C6*%
G36*
G01*
X132787500Y-73575000D02*
X132787500Y-72625000D01*
G75*
G02*
X133037500Y-72375000I250000J0D01*
G01*
X133712500Y-72375000D01*
G75*
G02*
X133962500Y-72625000I0J-250000D01*
G01*
X133962500Y-73575000D01*
G75*
G02*
X133712500Y-73825000I-250000J0D01*
G01*
X133037500Y-73825000D01*
G75*
G02*
X132787500Y-73575000I0J250000D01*
G01*
G37*
G36*
G01*
X130712500Y-73575000D02*
X130712500Y-72625000D01*
G75*
G02*
X130962500Y-72375000I250000J0D01*
G01*
X131637500Y-72375000D01*
G75*
G02*
X131887500Y-72625000I0J-250000D01*
G01*
X131887500Y-73575000D01*
G75*
G02*
X131637500Y-73825000I-250000J0D01*
G01*
X130962500Y-73825000D01*
G75*
G02*
X130712500Y-73575000I0J250000D01*
G01*
G37*
%TD*%
%TO.C,C4*%
G36*
G01*
X133187500Y-81125000D02*
X133187500Y-82075000D01*
G75*
G02*
X132937500Y-82325000I-250000J0D01*
G01*
X132262500Y-82325000D01*
G75*
G02*
X132012500Y-82075000I0J250000D01*
G01*
X132012500Y-81125000D01*
G75*
G02*
X132262500Y-80875000I250000J0D01*
G01*
X132937500Y-80875000D01*
G75*
G02*
X133187500Y-81125000I0J-250000D01*
G01*
G37*
G36*
G01*
X135262500Y-81125000D02*
X135262500Y-82075000D01*
G75*
G02*
X135012500Y-82325000I-250000J0D01*
G01*
X134337500Y-82325000D01*
G75*
G02*
X134087500Y-82075000I0J250000D01*
G01*
X134087500Y-81125000D01*
G75*
G02*
X134337500Y-80875000I250000J0D01*
G01*
X135012500Y-80875000D01*
G75*
G02*
X135262500Y-81125000I0J-250000D01*
G01*
G37*
%TD*%
%TO.C,C3*%
G36*
G01*
X140787500Y-73575000D02*
X140787500Y-72625000D01*
G75*
G02*
X141037500Y-72375000I250000J0D01*
G01*
X141712500Y-72375000D01*
G75*
G02*
X141962500Y-72625000I0J-250000D01*
G01*
X141962500Y-73575000D01*
G75*
G02*
X141712500Y-73825000I-250000J0D01*
G01*
X141037500Y-73825000D01*
G75*
G02*
X140787500Y-73575000I0J250000D01*
G01*
G37*
G36*
G01*
X138712500Y-73575000D02*
X138712500Y-72625000D01*
G75*
G02*
X138962500Y-72375000I250000J0D01*
G01*
X139637500Y-72375000D01*
G75*
G02*
X139887500Y-72625000I0J-250000D01*
G01*
X139887500Y-73575000D01*
G75*
G02*
X139637500Y-73825000I-250000J0D01*
G01*
X138962500Y-73825000D01*
G75*
G02*
X138712500Y-73575000I0J250000D01*
G01*
G37*
%TD*%
M02*
