%TF.GenerationSoftware,KiCad,Pcbnew,(5.1.9)-1*%
%TF.CreationDate,2021-04-26T03:37:11+02:00*%
%TF.ProjectId,HB-Uni-SEN-ORB,48422d55-6e69-42d5-9345-4e2d4f52422e,rev?*%
%TF.SameCoordinates,Original*%
%TF.FileFunction,Legend,Top*%
%TF.FilePolarity,Positive*%
%FSLAX46Y46*%
G04 Gerber Fmt 4.6, Leading zero omitted, Abs format (unit mm)*
G04 Created by KiCad (PCBNEW (5.1.9)-1) date 2021-04-26 03:37:11*
%MOMM*%
%LPD*%
G01*
G04 APERTURE LIST*
%ADD10C,0.120000*%
%ADD11C,0.150000*%
%ADD12C,0.127000*%
%ADD13C,0.200000*%
G04 APERTURE END LIST*
D10*
%TO.C,R6*%
X152385000Y-75272936D02*
X152385000Y-75727064D01*
X150915000Y-75272936D02*
X150915000Y-75727064D01*
%TO.C,R5*%
X154535000Y-75272936D02*
X154535000Y-75727064D01*
X153065000Y-75272936D02*
X153065000Y-75727064D01*
%TO.C,PH_SENSOR*%
X155920000Y-76730000D02*
X155920000Y-75400000D01*
X157250000Y-76730000D02*
X155920000Y-76730000D01*
X158520000Y-76730000D02*
X158520000Y-74070000D01*
X158520000Y-74070000D02*
X163660000Y-74070000D01*
X158520000Y-76730000D02*
X163660000Y-76730000D01*
X163660000Y-76730000D02*
X163660000Y-74070000D01*
%TO.C,Cal1*%
X115940000Y-79650000D02*
X122060000Y-79650000D01*
X122060000Y-79650000D02*
X122060000Y-83350000D01*
X122060000Y-83350000D02*
X115940000Y-83350000D01*
X115940000Y-83350000D02*
X115940000Y-79650000D01*
%TO.C,R8*%
X147820000Y-46000000D02*
G75*
G03*
X147820000Y-46000000I-920000J0D01*
G01*
X146900000Y-46920000D02*
X146900000Y-47540000D01*
D11*
%TO.C,RV1*%
X148550000Y-59400000D02*
X148550000Y-50400000D01*
X145250000Y-59400000D02*
X145250000Y-50400000D01*
X145250000Y-50400000D02*
X148550000Y-50400000D01*
X145250000Y-59400000D02*
X148550000Y-59400000D01*
D10*
%TO.C,Config*%
X162360000Y-68750000D02*
X156240000Y-68750000D01*
X156240000Y-68750000D02*
X156240000Y-65050000D01*
X156240000Y-65050000D02*
X162360000Y-65050000D01*
X162360000Y-65050000D02*
X162360000Y-68750000D01*
D11*
%TO.C,U1*%
X109720000Y-104360000D02*
X145280000Y-104360000D01*
X109720000Y-84040000D02*
X109720000Y-104360000D01*
X145280000Y-84040000D02*
X109720000Y-84040000D01*
X145280000Y-104360000D02*
X145280000Y-84040000D01*
%TO.C,U2*%
X164100000Y-86300000D02*
X164100000Y-104300000D01*
X164100000Y-104300000D02*
X146100000Y-104300000D01*
X146100000Y-104300000D02*
X146100000Y-85300000D01*
X146100000Y-85300000D02*
X164100000Y-85300000D01*
X164100000Y-85300000D02*
X164100000Y-86300000D01*
D10*
%TO.C,LCD*%
X163630000Y-70370000D02*
X163630000Y-71700000D01*
X162300000Y-70370000D02*
X163630000Y-70370000D01*
X161030000Y-70370000D02*
X161030000Y-73030000D01*
X161030000Y-73030000D02*
X153350000Y-73030000D01*
X161030000Y-70370000D02*
X153350000Y-70370000D01*
X153350000Y-70370000D02*
X153350000Y-73030000D01*
%TO.C,DS18B20*%
X156290000Y-83330000D02*
X156290000Y-82000000D01*
X157620000Y-83330000D02*
X156290000Y-83330000D01*
X158890000Y-83330000D02*
X158890000Y-80670000D01*
X158890000Y-80670000D02*
X164030000Y-80670000D01*
X158890000Y-83330000D02*
X164030000Y-83330000D01*
X164030000Y-83330000D02*
X164030000Y-80670000D01*
%TO.C,R7*%
X158827064Y-78515000D02*
X158372936Y-78515000D01*
X158827064Y-79985000D02*
X158372936Y-79985000D01*
D12*
%TO.C,U3*%
X135650000Y-67825000D02*
X139550000Y-67825000D01*
X135650000Y-62775000D02*
X139550000Y-62775000D01*
D13*
X133660000Y-62995000D02*
G75*
G03*
X133660000Y-62995000I-100000J0D01*
G01*
D10*
%TO.C,C5*%
X143790000Y-72815000D02*
X143790000Y-79750000D01*
X147210000Y-72815000D02*
X143790000Y-72815000D01*
X147210000Y-79750000D02*
X147210000Y-72815000D01*
%TO.C,C7*%
X127690000Y-75815000D02*
X127690000Y-82750000D01*
X131110000Y-75815000D02*
X127690000Y-75815000D01*
X131110000Y-82750000D02*
X131110000Y-75815000D01*
%TO.C,C1*%
X127640000Y-62515000D02*
X127640000Y-70750000D01*
X132160000Y-62515000D02*
X127640000Y-62515000D01*
X132160000Y-70750000D02*
X132160000Y-62515000D01*
%TO.C,C2*%
X142740000Y-62515000D02*
X142740000Y-70750000D01*
X147260000Y-62515000D02*
X142740000Y-62515000D01*
X147260000Y-70750000D02*
X147260000Y-62515000D01*
D12*
%TO.C,U4*%
X134350000Y-80025000D02*
X138250000Y-80025000D01*
X134350000Y-74975000D02*
X138250000Y-74975000D01*
D13*
X132360000Y-75195000D02*
G75*
G03*
X132360000Y-75195000I-100000J0D01*
G01*
D10*
%TO.C,R4*%
X152565000Y-67672936D02*
X152565000Y-68127064D01*
X154035000Y-67672936D02*
X154035000Y-68127064D01*
%TO.C,R3*%
X137927064Y-80865000D02*
X137472936Y-80865000D01*
X137927064Y-82335000D02*
X137472936Y-82335000D01*
%TO.C,R2*%
X141472936Y-82335000D02*
X141927064Y-82335000D01*
X141472936Y-80865000D02*
X141927064Y-80865000D01*
%TO.C,R1*%
X136527064Y-72365000D02*
X136072936Y-72365000D01*
X136527064Y-73835000D02*
X136072936Y-73835000D01*
%TO.C,PS1*%
X144490000Y-55200000D02*
X144490000Y-53190000D01*
X109900000Y-61800000D02*
X144100000Y-61800000D01*
X109900000Y-41600000D02*
X109900000Y-61800000D01*
X144100000Y-41600000D02*
X109900000Y-41600000D01*
X144100000Y-61800000D02*
X144100000Y-41600000D01*
%TO.C,J2*%
X110900000Y-70000000D02*
X111900000Y-69000000D01*
X110900000Y-70000000D02*
X111900000Y-71000000D01*
X125700000Y-77500000D02*
X110700000Y-77500000D01*
X125700000Y-62500000D02*
X125700000Y-77500000D01*
X110700000Y-62500000D02*
X125700000Y-62500000D01*
X110700000Y-77500000D02*
X110700000Y-62500000D01*
%TO.C,WAGO236-403*%
X164260000Y-59460000D02*
X164260000Y-58460000D01*
X163020000Y-59460000D02*
X164260000Y-59460000D01*
X150250000Y-44600000D02*
X152749000Y-44600000D01*
X150250000Y-45600000D02*
X152749000Y-45600000D01*
X152749000Y-45600000D02*
X152749000Y-44600000D01*
X150250000Y-45600000D02*
X150250000Y-44600000D01*
X157600000Y-43100000D02*
X158600000Y-43100000D01*
X157600000Y-47100000D02*
X158600000Y-47100000D01*
X158600000Y-44370000D02*
X158600000Y-43100000D01*
X158600000Y-47100000D02*
X158600000Y-46830000D01*
X157600000Y-47100000D02*
X157600000Y-43100000D01*
X149900000Y-42600000D02*
X163900000Y-42600000D01*
X149900000Y-47600000D02*
X163900000Y-47600000D01*
X163900000Y-47600000D02*
X163900000Y-42600000D01*
X149900000Y-47600000D02*
X149900000Y-42600000D01*
X159300000Y-43100000D02*
X162600000Y-43100000D01*
X159300000Y-47100000D02*
X162600000Y-47100000D01*
X162600000Y-47100000D02*
X162600000Y-43100000D01*
X159300000Y-44370000D02*
X159300000Y-43100000D01*
X159300000Y-47100000D02*
X159300000Y-46830000D01*
X150250000Y-49600000D02*
X152749000Y-49600000D01*
X150250000Y-50600000D02*
X152749000Y-50600000D01*
X152749000Y-50600000D02*
X152749000Y-49600000D01*
X150250000Y-50600000D02*
X150250000Y-49600000D01*
X157600000Y-48100000D02*
X158600000Y-48100000D01*
X157600000Y-52100000D02*
X158600000Y-52100000D01*
X158600000Y-49370000D02*
X158600000Y-48100000D01*
X158600000Y-52100000D02*
X158600000Y-51830000D01*
X157600000Y-52100000D02*
X157600000Y-48100000D01*
X149900000Y-47600000D02*
X163900000Y-47600000D01*
X149900000Y-52600000D02*
X163900000Y-52600000D01*
X163900000Y-52600000D02*
X163900000Y-47600000D01*
X149900000Y-52600000D02*
X149900000Y-47600000D01*
X159300000Y-48100000D02*
X162600000Y-48100000D01*
X159300000Y-52100000D02*
X162600000Y-52100000D01*
X162600000Y-52100000D02*
X162600000Y-48100000D01*
X159300000Y-49370000D02*
X159300000Y-48100000D01*
X159300000Y-52100000D02*
X159300000Y-51830000D01*
X150250000Y-54600000D02*
X152749000Y-54600000D01*
X150250000Y-55600000D02*
X152749000Y-55600000D01*
X152749000Y-55600000D02*
X152749000Y-54600000D01*
X150250000Y-55600000D02*
X150250000Y-54600000D01*
X157600000Y-53100000D02*
X158600000Y-53100000D01*
X157600000Y-57100000D02*
X158600000Y-57100000D01*
X158600000Y-54370000D02*
X158600000Y-53100000D01*
X158600000Y-57100000D02*
X158600000Y-56830000D01*
X157600000Y-57100000D02*
X157600000Y-53100000D01*
X149900000Y-52600000D02*
X163900000Y-52600000D01*
X149900000Y-57600000D02*
X163900000Y-57600000D01*
X163900000Y-57600000D02*
X163900000Y-52600000D01*
X149900000Y-57600000D02*
X149900000Y-52600000D01*
X159300000Y-53100000D02*
X162600000Y-53100000D01*
X159300000Y-57100000D02*
X162600000Y-57100000D01*
X162600000Y-57100000D02*
X162600000Y-53100000D01*
X159300000Y-54370000D02*
X159300000Y-53100000D01*
X159300000Y-57100000D02*
X159300000Y-56830000D01*
X149780000Y-41680000D02*
X164020000Y-41680000D01*
X149780000Y-59220000D02*
X164020000Y-59220000D01*
X164020000Y-59220000D02*
X164020000Y-41680000D01*
X149780000Y-59220000D02*
X149780000Y-41680000D01*
X154400000Y-44370000D02*
X154400000Y-41680000D01*
X154400000Y-49370000D02*
X154400000Y-46830000D01*
X154400000Y-54370000D02*
X154400000Y-51830000D01*
X154400000Y-59220000D02*
X154400000Y-56830000D01*
X157200000Y-59220000D02*
X157200000Y-41680000D01*
X162900000Y-59220000D02*
X162900000Y-41680000D01*
%TO.C,D1*%
X152340000Y-62115000D02*
X152340000Y-64975000D01*
X154260000Y-62115000D02*
X152340000Y-62115000D01*
X154260000Y-64975000D02*
X154260000Y-62115000D01*
%TO.C,C6*%
X132076248Y-73835000D02*
X132598752Y-73835000D01*
X132076248Y-72365000D02*
X132598752Y-72365000D01*
%TO.C,C4*%
X133898752Y-80865000D02*
X133376248Y-80865000D01*
X133898752Y-82335000D02*
X133376248Y-82335000D01*
%TO.C,C3*%
X140076248Y-73835000D02*
X140598752Y-73835000D01*
X140076248Y-72365000D02*
X140598752Y-72365000D01*
%TO.C,R6*%
D11*
X151483333Y-78552380D02*
X151150000Y-78076190D01*
X150911904Y-78552380D02*
X150911904Y-77552380D01*
X151292857Y-77552380D01*
X151388095Y-77600000D01*
X151435714Y-77647619D01*
X151483333Y-77742857D01*
X151483333Y-77885714D01*
X151435714Y-77980952D01*
X151388095Y-78028571D01*
X151292857Y-78076190D01*
X150911904Y-78076190D01*
X152340476Y-77552380D02*
X152150000Y-77552380D01*
X152054761Y-77600000D01*
X152007142Y-77647619D01*
X151911904Y-77790476D01*
X151864285Y-77980952D01*
X151864285Y-78361904D01*
X151911904Y-78457142D01*
X151959523Y-78504761D01*
X152054761Y-78552380D01*
X152245238Y-78552380D01*
X152340476Y-78504761D01*
X152388095Y-78457142D01*
X152435714Y-78361904D01*
X152435714Y-78123809D01*
X152388095Y-78028571D01*
X152340476Y-77980952D01*
X152245238Y-77933333D01*
X152054761Y-77933333D01*
X151959523Y-77980952D01*
X151911904Y-78028571D01*
X151864285Y-78123809D01*
%TO.C,R5*%
X153633333Y-78552380D02*
X153300000Y-78076190D01*
X153061904Y-78552380D02*
X153061904Y-77552380D01*
X153442857Y-77552380D01*
X153538095Y-77600000D01*
X153585714Y-77647619D01*
X153633333Y-77742857D01*
X153633333Y-77885714D01*
X153585714Y-77980952D01*
X153538095Y-78028571D01*
X153442857Y-78076190D01*
X153061904Y-78076190D01*
X154538095Y-77552380D02*
X154061904Y-77552380D01*
X154014285Y-78028571D01*
X154061904Y-77980952D01*
X154157142Y-77933333D01*
X154395238Y-77933333D01*
X154490476Y-77980952D01*
X154538095Y-78028571D01*
X154585714Y-78123809D01*
X154585714Y-78361904D01*
X154538095Y-78457142D01*
X154490476Y-78504761D01*
X154395238Y-78552380D01*
X154157142Y-78552380D01*
X154061904Y-78504761D01*
X154014285Y-78457142D01*
%TO.C,PH_SENSOR*%
X155730952Y-78052380D02*
X155730952Y-77052380D01*
X156111904Y-77052380D01*
X156207142Y-77100000D01*
X156254761Y-77147619D01*
X156302380Y-77242857D01*
X156302380Y-77385714D01*
X156254761Y-77480952D01*
X156207142Y-77528571D01*
X156111904Y-77576190D01*
X155730952Y-77576190D01*
X156730952Y-78052380D02*
X156730952Y-77052380D01*
X156730952Y-77528571D02*
X157302380Y-77528571D01*
X157302380Y-78052380D02*
X157302380Y-77052380D01*
X157540476Y-78147619D02*
X158302380Y-78147619D01*
X158492857Y-78004761D02*
X158635714Y-78052380D01*
X158873809Y-78052380D01*
X158969047Y-78004761D01*
X159016666Y-77957142D01*
X159064285Y-77861904D01*
X159064285Y-77766666D01*
X159016666Y-77671428D01*
X158969047Y-77623809D01*
X158873809Y-77576190D01*
X158683333Y-77528571D01*
X158588095Y-77480952D01*
X158540476Y-77433333D01*
X158492857Y-77338095D01*
X158492857Y-77242857D01*
X158540476Y-77147619D01*
X158588095Y-77100000D01*
X158683333Y-77052380D01*
X158921428Y-77052380D01*
X159064285Y-77100000D01*
X159492857Y-77528571D02*
X159826190Y-77528571D01*
X159969047Y-78052380D02*
X159492857Y-78052380D01*
X159492857Y-77052380D01*
X159969047Y-77052380D01*
X160397619Y-78052380D02*
X160397619Y-77052380D01*
X160969047Y-78052380D01*
X160969047Y-77052380D01*
X161397619Y-78004761D02*
X161540476Y-78052380D01*
X161778571Y-78052380D01*
X161873809Y-78004761D01*
X161921428Y-77957142D01*
X161969047Y-77861904D01*
X161969047Y-77766666D01*
X161921428Y-77671428D01*
X161873809Y-77623809D01*
X161778571Y-77576190D01*
X161588095Y-77528571D01*
X161492857Y-77480952D01*
X161445238Y-77433333D01*
X161397619Y-77338095D01*
X161397619Y-77242857D01*
X161445238Y-77147619D01*
X161492857Y-77100000D01*
X161588095Y-77052380D01*
X161826190Y-77052380D01*
X161969047Y-77100000D01*
X162588095Y-77052380D02*
X162778571Y-77052380D01*
X162873809Y-77100000D01*
X162969047Y-77195238D01*
X163016666Y-77385714D01*
X163016666Y-77719047D01*
X162969047Y-77909523D01*
X162873809Y-78004761D01*
X162778571Y-78052380D01*
X162588095Y-78052380D01*
X162492857Y-78004761D01*
X162397619Y-77909523D01*
X162350000Y-77719047D01*
X162350000Y-77385714D01*
X162397619Y-77195238D01*
X162492857Y-77100000D01*
X162588095Y-77052380D01*
X164016666Y-78052380D02*
X163683333Y-77576190D01*
X163445238Y-78052380D02*
X163445238Y-77052380D01*
X163826190Y-77052380D01*
X163921428Y-77100000D01*
X163969047Y-77147619D01*
X164016666Y-77242857D01*
X164016666Y-77385714D01*
X163969047Y-77480952D01*
X163921428Y-77528571D01*
X163826190Y-77576190D01*
X163445238Y-77576190D01*
%TO.C,Cal1*%
X118019047Y-79157142D02*
X117971428Y-79204761D01*
X117828571Y-79252380D01*
X117733333Y-79252380D01*
X117590476Y-79204761D01*
X117495238Y-79109523D01*
X117447619Y-79014285D01*
X117400000Y-78823809D01*
X117400000Y-78680952D01*
X117447619Y-78490476D01*
X117495238Y-78395238D01*
X117590476Y-78300000D01*
X117733333Y-78252380D01*
X117828571Y-78252380D01*
X117971428Y-78300000D01*
X118019047Y-78347619D01*
X118876190Y-79252380D02*
X118876190Y-78728571D01*
X118828571Y-78633333D01*
X118733333Y-78585714D01*
X118542857Y-78585714D01*
X118447619Y-78633333D01*
X118876190Y-79204761D02*
X118780952Y-79252380D01*
X118542857Y-79252380D01*
X118447619Y-79204761D01*
X118400000Y-79109523D01*
X118400000Y-79014285D01*
X118447619Y-78919047D01*
X118542857Y-78871428D01*
X118780952Y-78871428D01*
X118876190Y-78823809D01*
X119495238Y-79252380D02*
X119400000Y-79204761D01*
X119352380Y-79109523D01*
X119352380Y-78252380D01*
X120400000Y-79252380D02*
X119828571Y-79252380D01*
X120114285Y-79252380D02*
X120114285Y-78252380D01*
X120019047Y-78395238D01*
X119923809Y-78490476D01*
X119828571Y-78538095D01*
%TO.C,R8*%
X147352380Y-43866666D02*
X146876190Y-44200000D01*
X147352380Y-44438095D02*
X146352380Y-44438095D01*
X146352380Y-44057142D01*
X146400000Y-43961904D01*
X146447619Y-43914285D01*
X146542857Y-43866666D01*
X146685714Y-43866666D01*
X146780952Y-43914285D01*
X146828571Y-43961904D01*
X146876190Y-44057142D01*
X146876190Y-44438095D01*
X146780952Y-43295238D02*
X146733333Y-43390476D01*
X146685714Y-43438095D01*
X146590476Y-43485714D01*
X146542857Y-43485714D01*
X146447619Y-43438095D01*
X146400000Y-43390476D01*
X146352380Y-43295238D01*
X146352380Y-43104761D01*
X146400000Y-43009523D01*
X146447619Y-42961904D01*
X146542857Y-42914285D01*
X146590476Y-42914285D01*
X146685714Y-42961904D01*
X146733333Y-43009523D01*
X146780952Y-43104761D01*
X146780952Y-43295238D01*
X146828571Y-43390476D01*
X146876190Y-43438095D01*
X146971428Y-43485714D01*
X147161904Y-43485714D01*
X147257142Y-43438095D01*
X147304761Y-43390476D01*
X147352380Y-43295238D01*
X147352380Y-43104761D01*
X147304761Y-43009523D01*
X147257142Y-42961904D01*
X147161904Y-42914285D01*
X146971428Y-42914285D01*
X146876190Y-42961904D01*
X146828571Y-43009523D01*
X146780952Y-43104761D01*
%TO.C,RV1*%
X146304761Y-61052380D02*
X145971428Y-60576190D01*
X145733333Y-61052380D02*
X145733333Y-60052380D01*
X146114285Y-60052380D01*
X146209523Y-60100000D01*
X146257142Y-60147619D01*
X146304761Y-60242857D01*
X146304761Y-60385714D01*
X146257142Y-60480952D01*
X146209523Y-60528571D01*
X146114285Y-60576190D01*
X145733333Y-60576190D01*
X146590476Y-60052380D02*
X146923809Y-61052380D01*
X147257142Y-60052380D01*
X148114285Y-61052380D02*
X147542857Y-61052380D01*
X147828571Y-61052380D02*
X147828571Y-60052380D01*
X147733333Y-60195238D01*
X147638095Y-60290476D01*
X147542857Y-60338095D01*
%TO.C,Config*%
X157828571Y-64457142D02*
X157780952Y-64504761D01*
X157638095Y-64552380D01*
X157542857Y-64552380D01*
X157400000Y-64504761D01*
X157304761Y-64409523D01*
X157257142Y-64314285D01*
X157209523Y-64123809D01*
X157209523Y-63980952D01*
X157257142Y-63790476D01*
X157304761Y-63695238D01*
X157400000Y-63600000D01*
X157542857Y-63552380D01*
X157638095Y-63552380D01*
X157780952Y-63600000D01*
X157828571Y-63647619D01*
X158400000Y-64552380D02*
X158304761Y-64504761D01*
X158257142Y-64457142D01*
X158209523Y-64361904D01*
X158209523Y-64076190D01*
X158257142Y-63980952D01*
X158304761Y-63933333D01*
X158400000Y-63885714D01*
X158542857Y-63885714D01*
X158638095Y-63933333D01*
X158685714Y-63980952D01*
X158733333Y-64076190D01*
X158733333Y-64361904D01*
X158685714Y-64457142D01*
X158638095Y-64504761D01*
X158542857Y-64552380D01*
X158400000Y-64552380D01*
X159161904Y-63885714D02*
X159161904Y-64552380D01*
X159161904Y-63980952D02*
X159209523Y-63933333D01*
X159304761Y-63885714D01*
X159447619Y-63885714D01*
X159542857Y-63933333D01*
X159590476Y-64028571D01*
X159590476Y-64552380D01*
X159923809Y-63885714D02*
X160304761Y-63885714D01*
X160066666Y-64552380D02*
X160066666Y-63695238D01*
X160114285Y-63600000D01*
X160209523Y-63552380D01*
X160304761Y-63552380D01*
X160638095Y-64552380D02*
X160638095Y-63885714D01*
X160638095Y-63552380D02*
X160590476Y-63600000D01*
X160638095Y-63647619D01*
X160685714Y-63600000D01*
X160638095Y-63552380D01*
X160638095Y-63647619D01*
X161542857Y-63885714D02*
X161542857Y-64695238D01*
X161495238Y-64790476D01*
X161447619Y-64838095D01*
X161352380Y-64885714D01*
X161209523Y-64885714D01*
X161114285Y-64838095D01*
X161542857Y-64504761D02*
X161447619Y-64552380D01*
X161257142Y-64552380D01*
X161161904Y-64504761D01*
X161114285Y-64457142D01*
X161066666Y-64361904D01*
X161066666Y-64076190D01*
X161114285Y-63980952D01*
X161161904Y-63933333D01*
X161257142Y-63885714D01*
X161447619Y-63885714D01*
X161542857Y-63933333D01*
%TO.C,U1*%
X142192380Y-98771904D02*
X143001904Y-98771904D01*
X143097142Y-98724285D01*
X143144761Y-98676666D01*
X143192380Y-98581428D01*
X143192380Y-98390952D01*
X143144761Y-98295714D01*
X143097142Y-98248095D01*
X143001904Y-98200476D01*
X142192380Y-98200476D01*
X143192380Y-97200476D02*
X143192380Y-97771904D01*
X143192380Y-97486190D02*
X142192380Y-97486190D01*
X142335238Y-97581428D01*
X142430476Y-97676666D01*
X142478095Y-97771904D01*
%TO.C,U2*%
X153004761Y-94357142D02*
X152957142Y-94404761D01*
X152814285Y-94452380D01*
X152719047Y-94452380D01*
X152576190Y-94404761D01*
X152480952Y-94309523D01*
X152433333Y-94214285D01*
X152385714Y-94023809D01*
X152385714Y-93880952D01*
X152433333Y-93690476D01*
X152480952Y-93595238D01*
X152576190Y-93500000D01*
X152719047Y-93452380D01*
X152814285Y-93452380D01*
X152957142Y-93500000D01*
X153004761Y-93547619D01*
X154004761Y-94357142D02*
X153957142Y-94404761D01*
X153814285Y-94452380D01*
X153719047Y-94452380D01*
X153576190Y-94404761D01*
X153480952Y-94309523D01*
X153433333Y-94214285D01*
X153385714Y-94023809D01*
X153385714Y-93880952D01*
X153433333Y-93690476D01*
X153480952Y-93595238D01*
X153576190Y-93500000D01*
X153719047Y-93452380D01*
X153814285Y-93452380D01*
X153957142Y-93500000D01*
X154004761Y-93547619D01*
X154957142Y-94452380D02*
X154385714Y-94452380D01*
X154671428Y-94452380D02*
X154671428Y-93452380D01*
X154576190Y-93595238D01*
X154480952Y-93690476D01*
X154385714Y-93738095D01*
X155909523Y-94452380D02*
X155338095Y-94452380D01*
X155623809Y-94452380D02*
X155623809Y-93452380D01*
X155528571Y-93595238D01*
X155433333Y-93690476D01*
X155338095Y-93738095D01*
X156528571Y-93452380D02*
X156623809Y-93452380D01*
X156719047Y-93500000D01*
X156766666Y-93547619D01*
X156814285Y-93642857D01*
X156861904Y-93833333D01*
X156861904Y-94071428D01*
X156814285Y-94261904D01*
X156766666Y-94357142D01*
X156719047Y-94404761D01*
X156623809Y-94452380D01*
X156528571Y-94452380D01*
X156433333Y-94404761D01*
X156385714Y-94357142D01*
X156338095Y-94261904D01*
X156290476Y-94071428D01*
X156290476Y-93833333D01*
X156338095Y-93642857D01*
X156385714Y-93547619D01*
X156433333Y-93500000D01*
X156528571Y-93452380D01*
X157814285Y-94452380D02*
X157242857Y-94452380D01*
X157528571Y-94452380D02*
X157528571Y-93452380D01*
X157433333Y-93595238D01*
X157338095Y-93690476D01*
X157242857Y-93738095D01*
%TO.C,LCD*%
X150709523Y-72052380D02*
X150233333Y-72052380D01*
X150233333Y-71052380D01*
X151614285Y-71957142D02*
X151566666Y-72004761D01*
X151423809Y-72052380D01*
X151328571Y-72052380D01*
X151185714Y-72004761D01*
X151090476Y-71909523D01*
X151042857Y-71814285D01*
X150995238Y-71623809D01*
X150995238Y-71480952D01*
X151042857Y-71290476D01*
X151090476Y-71195238D01*
X151185714Y-71100000D01*
X151328571Y-71052380D01*
X151423809Y-71052380D01*
X151566666Y-71100000D01*
X151614285Y-71147619D01*
X152042857Y-72052380D02*
X152042857Y-71052380D01*
X152280952Y-71052380D01*
X152423809Y-71100000D01*
X152519047Y-71195238D01*
X152566666Y-71290476D01*
X152614285Y-71480952D01*
X152614285Y-71623809D01*
X152566666Y-71814285D01*
X152519047Y-71909523D01*
X152423809Y-72004761D01*
X152280952Y-72052380D01*
X152042857Y-72052380D01*
%TO.C,DS18B20*%
X149557142Y-82452380D02*
X149557142Y-81452380D01*
X149795238Y-81452380D01*
X149938095Y-81500000D01*
X150033333Y-81595238D01*
X150080952Y-81690476D01*
X150128571Y-81880952D01*
X150128571Y-82023809D01*
X150080952Y-82214285D01*
X150033333Y-82309523D01*
X149938095Y-82404761D01*
X149795238Y-82452380D01*
X149557142Y-82452380D01*
X150509523Y-82404761D02*
X150652380Y-82452380D01*
X150890476Y-82452380D01*
X150985714Y-82404761D01*
X151033333Y-82357142D01*
X151080952Y-82261904D01*
X151080952Y-82166666D01*
X151033333Y-82071428D01*
X150985714Y-82023809D01*
X150890476Y-81976190D01*
X150700000Y-81928571D01*
X150604761Y-81880952D01*
X150557142Y-81833333D01*
X150509523Y-81738095D01*
X150509523Y-81642857D01*
X150557142Y-81547619D01*
X150604761Y-81500000D01*
X150700000Y-81452380D01*
X150938095Y-81452380D01*
X151080952Y-81500000D01*
X152033333Y-82452380D02*
X151461904Y-82452380D01*
X151747619Y-82452380D02*
X151747619Y-81452380D01*
X151652380Y-81595238D01*
X151557142Y-81690476D01*
X151461904Y-81738095D01*
X152604761Y-81880952D02*
X152509523Y-81833333D01*
X152461904Y-81785714D01*
X152414285Y-81690476D01*
X152414285Y-81642857D01*
X152461904Y-81547619D01*
X152509523Y-81500000D01*
X152604761Y-81452380D01*
X152795238Y-81452380D01*
X152890476Y-81500000D01*
X152938095Y-81547619D01*
X152985714Y-81642857D01*
X152985714Y-81690476D01*
X152938095Y-81785714D01*
X152890476Y-81833333D01*
X152795238Y-81880952D01*
X152604761Y-81880952D01*
X152509523Y-81928571D01*
X152461904Y-81976190D01*
X152414285Y-82071428D01*
X152414285Y-82261904D01*
X152461904Y-82357142D01*
X152509523Y-82404761D01*
X152604761Y-82452380D01*
X152795238Y-82452380D01*
X152890476Y-82404761D01*
X152938095Y-82357142D01*
X152985714Y-82261904D01*
X152985714Y-82071428D01*
X152938095Y-81976190D01*
X152890476Y-81928571D01*
X152795238Y-81880952D01*
X153747619Y-81928571D02*
X153890476Y-81976190D01*
X153938095Y-82023809D01*
X153985714Y-82119047D01*
X153985714Y-82261904D01*
X153938095Y-82357142D01*
X153890476Y-82404761D01*
X153795238Y-82452380D01*
X153414285Y-82452380D01*
X153414285Y-81452380D01*
X153747619Y-81452380D01*
X153842857Y-81500000D01*
X153890476Y-81547619D01*
X153938095Y-81642857D01*
X153938095Y-81738095D01*
X153890476Y-81833333D01*
X153842857Y-81880952D01*
X153747619Y-81928571D01*
X153414285Y-81928571D01*
X154366666Y-81547619D02*
X154414285Y-81500000D01*
X154509523Y-81452380D01*
X154747619Y-81452380D01*
X154842857Y-81500000D01*
X154890476Y-81547619D01*
X154938095Y-81642857D01*
X154938095Y-81738095D01*
X154890476Y-81880952D01*
X154319047Y-82452380D01*
X154938095Y-82452380D01*
X155557142Y-81452380D02*
X155652380Y-81452380D01*
X155747619Y-81500000D01*
X155795238Y-81547619D01*
X155842857Y-81642857D01*
X155890476Y-81833333D01*
X155890476Y-82071428D01*
X155842857Y-82261904D01*
X155795238Y-82357142D01*
X155747619Y-82404761D01*
X155652380Y-82452380D01*
X155557142Y-82452380D01*
X155461904Y-82404761D01*
X155414285Y-82357142D01*
X155366666Y-82261904D01*
X155319047Y-82071428D01*
X155319047Y-81833333D01*
X155366666Y-81642857D01*
X155414285Y-81547619D01*
X155461904Y-81500000D01*
X155557142Y-81452380D01*
%TO.C,R7*%
X155633333Y-79702380D02*
X155300000Y-79226190D01*
X155061904Y-79702380D02*
X155061904Y-78702380D01*
X155442857Y-78702380D01*
X155538095Y-78750000D01*
X155585714Y-78797619D01*
X155633333Y-78892857D01*
X155633333Y-79035714D01*
X155585714Y-79130952D01*
X155538095Y-79178571D01*
X155442857Y-79226190D01*
X155061904Y-79226190D01*
X155966666Y-78702380D02*
X156633333Y-78702380D01*
X156204761Y-79702380D01*
%TO.C,U3*%
X132652380Y-66061904D02*
X133461904Y-66061904D01*
X133557142Y-66014285D01*
X133604761Y-65966666D01*
X133652380Y-65871428D01*
X133652380Y-65680952D01*
X133604761Y-65585714D01*
X133557142Y-65538095D01*
X133461904Y-65490476D01*
X132652380Y-65490476D01*
X132652380Y-65109523D02*
X132652380Y-64490476D01*
X133033333Y-64823809D01*
X133033333Y-64680952D01*
X133080952Y-64585714D01*
X133128571Y-64538095D01*
X133223809Y-64490476D01*
X133461904Y-64490476D01*
X133557142Y-64538095D01*
X133604761Y-64585714D01*
X133652380Y-64680952D01*
X133652380Y-64966666D01*
X133604761Y-65061904D01*
X133557142Y-65109523D01*
%TO.C,C5*%
X143357142Y-76916666D02*
X143404761Y-76964285D01*
X143452380Y-77107142D01*
X143452380Y-77202380D01*
X143404761Y-77345238D01*
X143309523Y-77440476D01*
X143214285Y-77488095D01*
X143023809Y-77535714D01*
X142880952Y-77535714D01*
X142690476Y-77488095D01*
X142595238Y-77440476D01*
X142500000Y-77345238D01*
X142452380Y-77202380D01*
X142452380Y-77107142D01*
X142500000Y-76964285D01*
X142547619Y-76916666D01*
X142452380Y-76011904D02*
X142452380Y-76488095D01*
X142928571Y-76535714D01*
X142880952Y-76488095D01*
X142833333Y-76392857D01*
X142833333Y-76154761D01*
X142880952Y-76059523D01*
X142928571Y-76011904D01*
X143023809Y-75964285D01*
X143261904Y-75964285D01*
X143357142Y-76011904D01*
X143404761Y-76059523D01*
X143452380Y-76154761D01*
X143452380Y-76392857D01*
X143404761Y-76488095D01*
X143357142Y-76535714D01*
%TO.C,C7*%
X127157142Y-79916666D02*
X127204761Y-79964285D01*
X127252380Y-80107142D01*
X127252380Y-80202380D01*
X127204761Y-80345238D01*
X127109523Y-80440476D01*
X127014285Y-80488095D01*
X126823809Y-80535714D01*
X126680952Y-80535714D01*
X126490476Y-80488095D01*
X126395238Y-80440476D01*
X126300000Y-80345238D01*
X126252380Y-80202380D01*
X126252380Y-80107142D01*
X126300000Y-79964285D01*
X126347619Y-79916666D01*
X126252380Y-79583333D02*
X126252380Y-78916666D01*
X127252380Y-79345238D01*
%TO.C,C1*%
X127157142Y-67266666D02*
X127204761Y-67314285D01*
X127252380Y-67457142D01*
X127252380Y-67552380D01*
X127204761Y-67695238D01*
X127109523Y-67790476D01*
X127014285Y-67838095D01*
X126823809Y-67885714D01*
X126680952Y-67885714D01*
X126490476Y-67838095D01*
X126395238Y-67790476D01*
X126300000Y-67695238D01*
X126252380Y-67552380D01*
X126252380Y-67457142D01*
X126300000Y-67314285D01*
X126347619Y-67266666D01*
X127252380Y-66314285D02*
X127252380Y-66885714D01*
X127252380Y-66600000D02*
X126252380Y-66600000D01*
X126395238Y-66695238D01*
X126490476Y-66790476D01*
X126538095Y-66885714D01*
%TO.C,C2*%
X142357142Y-67266666D02*
X142404761Y-67314285D01*
X142452380Y-67457142D01*
X142452380Y-67552380D01*
X142404761Y-67695238D01*
X142309523Y-67790476D01*
X142214285Y-67838095D01*
X142023809Y-67885714D01*
X141880952Y-67885714D01*
X141690476Y-67838095D01*
X141595238Y-67790476D01*
X141500000Y-67695238D01*
X141452380Y-67552380D01*
X141452380Y-67457142D01*
X141500000Y-67314285D01*
X141547619Y-67266666D01*
X141547619Y-66885714D02*
X141500000Y-66838095D01*
X141452380Y-66742857D01*
X141452380Y-66504761D01*
X141500000Y-66409523D01*
X141547619Y-66361904D01*
X141642857Y-66314285D01*
X141738095Y-66314285D01*
X141880952Y-66361904D01*
X142452380Y-66933333D01*
X142452380Y-66314285D01*
%TO.C,U4*%
X131452380Y-78261904D02*
X132261904Y-78261904D01*
X132357142Y-78214285D01*
X132404761Y-78166666D01*
X132452380Y-78071428D01*
X132452380Y-77880952D01*
X132404761Y-77785714D01*
X132357142Y-77738095D01*
X132261904Y-77690476D01*
X131452380Y-77690476D01*
X131785714Y-76785714D02*
X132452380Y-76785714D01*
X131404761Y-77023809D02*
X132119047Y-77261904D01*
X132119047Y-76642857D01*
%TO.C,R4*%
X152052380Y-68066666D02*
X151576190Y-68400000D01*
X152052380Y-68638095D02*
X151052380Y-68638095D01*
X151052380Y-68257142D01*
X151100000Y-68161904D01*
X151147619Y-68114285D01*
X151242857Y-68066666D01*
X151385714Y-68066666D01*
X151480952Y-68114285D01*
X151528571Y-68161904D01*
X151576190Y-68257142D01*
X151576190Y-68638095D01*
X151385714Y-67209523D02*
X152052380Y-67209523D01*
X151004761Y-67447619D02*
X151719047Y-67685714D01*
X151719047Y-67066666D01*
%TO.C,R3*%
X137533333Y-83702380D02*
X137200000Y-83226190D01*
X136961904Y-83702380D02*
X136961904Y-82702380D01*
X137342857Y-82702380D01*
X137438095Y-82750000D01*
X137485714Y-82797619D01*
X137533333Y-82892857D01*
X137533333Y-83035714D01*
X137485714Y-83130952D01*
X137438095Y-83178571D01*
X137342857Y-83226190D01*
X136961904Y-83226190D01*
X137866666Y-82702380D02*
X138485714Y-82702380D01*
X138152380Y-83083333D01*
X138295238Y-83083333D01*
X138390476Y-83130952D01*
X138438095Y-83178571D01*
X138485714Y-83273809D01*
X138485714Y-83511904D01*
X138438095Y-83607142D01*
X138390476Y-83654761D01*
X138295238Y-83702380D01*
X138009523Y-83702380D01*
X137914285Y-83654761D01*
X137866666Y-83607142D01*
%TO.C,R2*%
X141533333Y-83752380D02*
X141200000Y-83276190D01*
X140961904Y-83752380D02*
X140961904Y-82752380D01*
X141342857Y-82752380D01*
X141438095Y-82800000D01*
X141485714Y-82847619D01*
X141533333Y-82942857D01*
X141533333Y-83085714D01*
X141485714Y-83180952D01*
X141438095Y-83228571D01*
X141342857Y-83276190D01*
X140961904Y-83276190D01*
X141914285Y-82847619D02*
X141961904Y-82800000D01*
X142057142Y-82752380D01*
X142295238Y-82752380D01*
X142390476Y-82800000D01*
X142438095Y-82847619D01*
X142485714Y-82942857D01*
X142485714Y-83038095D01*
X142438095Y-83180952D01*
X141866666Y-83752380D01*
X142485714Y-83752380D01*
%TO.C,R1*%
X136133333Y-71852380D02*
X135800000Y-71376190D01*
X135561904Y-71852380D02*
X135561904Y-70852380D01*
X135942857Y-70852380D01*
X136038095Y-70900000D01*
X136085714Y-70947619D01*
X136133333Y-71042857D01*
X136133333Y-71185714D01*
X136085714Y-71280952D01*
X136038095Y-71328571D01*
X135942857Y-71376190D01*
X135561904Y-71376190D01*
X137085714Y-71852380D02*
X136514285Y-71852380D01*
X136800000Y-71852380D02*
X136800000Y-70852380D01*
X136704761Y-70995238D01*
X136609523Y-71090476D01*
X136514285Y-71138095D01*
%TO.C,PS1*%
X125785714Y-54352380D02*
X125785714Y-53352380D01*
X126166666Y-53352380D01*
X126261904Y-53400000D01*
X126309523Y-53447619D01*
X126357142Y-53542857D01*
X126357142Y-53685714D01*
X126309523Y-53780952D01*
X126261904Y-53828571D01*
X126166666Y-53876190D01*
X125785714Y-53876190D01*
X126738095Y-54304761D02*
X126880952Y-54352380D01*
X127119047Y-54352380D01*
X127214285Y-54304761D01*
X127261904Y-54257142D01*
X127309523Y-54161904D01*
X127309523Y-54066666D01*
X127261904Y-53971428D01*
X127214285Y-53923809D01*
X127119047Y-53876190D01*
X126928571Y-53828571D01*
X126833333Y-53780952D01*
X126785714Y-53733333D01*
X126738095Y-53638095D01*
X126738095Y-53542857D01*
X126785714Y-53447619D01*
X126833333Y-53400000D01*
X126928571Y-53352380D01*
X127166666Y-53352380D01*
X127309523Y-53400000D01*
X128261904Y-54352380D02*
X127690476Y-54352380D01*
X127976190Y-54352380D02*
X127976190Y-53352380D01*
X127880952Y-53495238D01*
X127785714Y-53590476D01*
X127690476Y-53638095D01*
%TO.C,J2*%
X117952380Y-70333333D02*
X118666666Y-70333333D01*
X118809523Y-70380952D01*
X118904761Y-70476190D01*
X118952380Y-70619047D01*
X118952380Y-70714285D01*
X118047619Y-69904761D02*
X118000000Y-69857142D01*
X117952380Y-69761904D01*
X117952380Y-69523809D01*
X118000000Y-69428571D01*
X118047619Y-69380952D01*
X118142857Y-69333333D01*
X118238095Y-69333333D01*
X118380952Y-69380952D01*
X118952380Y-69952380D01*
X118952380Y-69333333D01*
%TO.C,WAGO236-403*%
X151942857Y-59952380D02*
X152180952Y-60952380D01*
X152371428Y-60238095D01*
X152561904Y-60952380D01*
X152800000Y-59952380D01*
X153133333Y-60666666D02*
X153609523Y-60666666D01*
X153038095Y-60952380D02*
X153371428Y-59952380D01*
X153704761Y-60952380D01*
X154561904Y-60000000D02*
X154466666Y-59952380D01*
X154323809Y-59952380D01*
X154180952Y-60000000D01*
X154085714Y-60095238D01*
X154038095Y-60190476D01*
X153990476Y-60380952D01*
X153990476Y-60523809D01*
X154038095Y-60714285D01*
X154085714Y-60809523D01*
X154180952Y-60904761D01*
X154323809Y-60952380D01*
X154419047Y-60952380D01*
X154561904Y-60904761D01*
X154609523Y-60857142D01*
X154609523Y-60523809D01*
X154419047Y-60523809D01*
X155228571Y-59952380D02*
X155419047Y-59952380D01*
X155514285Y-60000000D01*
X155609523Y-60095238D01*
X155657142Y-60285714D01*
X155657142Y-60619047D01*
X155609523Y-60809523D01*
X155514285Y-60904761D01*
X155419047Y-60952380D01*
X155228571Y-60952380D01*
X155133333Y-60904761D01*
X155038095Y-60809523D01*
X154990476Y-60619047D01*
X154990476Y-60285714D01*
X155038095Y-60095238D01*
X155133333Y-60000000D01*
X155228571Y-59952380D01*
X156038095Y-60047619D02*
X156085714Y-60000000D01*
X156180952Y-59952380D01*
X156419047Y-59952380D01*
X156514285Y-60000000D01*
X156561904Y-60047619D01*
X156609523Y-60142857D01*
X156609523Y-60238095D01*
X156561904Y-60380952D01*
X155990476Y-60952380D01*
X156609523Y-60952380D01*
X156942857Y-59952380D02*
X157561904Y-59952380D01*
X157228571Y-60333333D01*
X157371428Y-60333333D01*
X157466666Y-60380952D01*
X157514285Y-60428571D01*
X157561904Y-60523809D01*
X157561904Y-60761904D01*
X157514285Y-60857142D01*
X157466666Y-60904761D01*
X157371428Y-60952380D01*
X157085714Y-60952380D01*
X156990476Y-60904761D01*
X156942857Y-60857142D01*
X158419047Y-59952380D02*
X158228571Y-59952380D01*
X158133333Y-60000000D01*
X158085714Y-60047619D01*
X157990476Y-60190476D01*
X157942857Y-60380952D01*
X157942857Y-60761904D01*
X157990476Y-60857142D01*
X158038095Y-60904761D01*
X158133333Y-60952380D01*
X158323809Y-60952380D01*
X158419047Y-60904761D01*
X158466666Y-60857142D01*
X158514285Y-60761904D01*
X158514285Y-60523809D01*
X158466666Y-60428571D01*
X158419047Y-60380952D01*
X158323809Y-60333333D01*
X158133333Y-60333333D01*
X158038095Y-60380952D01*
X157990476Y-60428571D01*
X157942857Y-60523809D01*
X158942857Y-60571428D02*
X159704761Y-60571428D01*
X160609523Y-60285714D02*
X160609523Y-60952380D01*
X160371428Y-59904761D02*
X160133333Y-60619047D01*
X160752380Y-60619047D01*
X161323809Y-59952380D02*
X161419047Y-59952380D01*
X161514285Y-60000000D01*
X161561904Y-60047619D01*
X161609523Y-60142857D01*
X161657142Y-60333333D01*
X161657142Y-60571428D01*
X161609523Y-60761904D01*
X161561904Y-60857142D01*
X161514285Y-60904761D01*
X161419047Y-60952380D01*
X161323809Y-60952380D01*
X161228571Y-60904761D01*
X161180952Y-60857142D01*
X161133333Y-60761904D01*
X161085714Y-60571428D01*
X161085714Y-60333333D01*
X161133333Y-60142857D01*
X161180952Y-60047619D01*
X161228571Y-60000000D01*
X161323809Y-59952380D01*
X161990476Y-59952380D02*
X162609523Y-59952380D01*
X162276190Y-60333333D01*
X162419047Y-60333333D01*
X162514285Y-60380952D01*
X162561904Y-60428571D01*
X162609523Y-60523809D01*
X162609523Y-60761904D01*
X162561904Y-60857142D01*
X162514285Y-60904761D01*
X162419047Y-60952380D01*
X162133333Y-60952380D01*
X162038095Y-60904761D01*
X161990476Y-60857142D01*
%TO.C,D1*%
X151952380Y-64713095D02*
X150952380Y-64713095D01*
X150952380Y-64475000D01*
X151000000Y-64332142D01*
X151095238Y-64236904D01*
X151190476Y-64189285D01*
X151380952Y-64141666D01*
X151523809Y-64141666D01*
X151714285Y-64189285D01*
X151809523Y-64236904D01*
X151904761Y-64332142D01*
X151952380Y-64475000D01*
X151952380Y-64713095D01*
X151952380Y-63189285D02*
X151952380Y-63760714D01*
X151952380Y-63475000D02*
X150952380Y-63475000D01*
X151095238Y-63570238D01*
X151190476Y-63665476D01*
X151238095Y-63760714D01*
%TO.C,C6*%
X132170833Y-71777142D02*
X132123214Y-71824761D01*
X131980357Y-71872380D01*
X131885119Y-71872380D01*
X131742261Y-71824761D01*
X131647023Y-71729523D01*
X131599404Y-71634285D01*
X131551785Y-71443809D01*
X131551785Y-71300952D01*
X131599404Y-71110476D01*
X131647023Y-71015238D01*
X131742261Y-70920000D01*
X131885119Y-70872380D01*
X131980357Y-70872380D01*
X132123214Y-70920000D01*
X132170833Y-70967619D01*
X133027976Y-70872380D02*
X132837500Y-70872380D01*
X132742261Y-70920000D01*
X132694642Y-70967619D01*
X132599404Y-71110476D01*
X132551785Y-71300952D01*
X132551785Y-71681904D01*
X132599404Y-71777142D01*
X132647023Y-71824761D01*
X132742261Y-71872380D01*
X132932738Y-71872380D01*
X133027976Y-71824761D01*
X133075595Y-71777142D01*
X133123214Y-71681904D01*
X133123214Y-71443809D01*
X133075595Y-71348571D01*
X133027976Y-71300952D01*
X132932738Y-71253333D01*
X132742261Y-71253333D01*
X132647023Y-71300952D01*
X132599404Y-71348571D01*
X132551785Y-71443809D01*
%TO.C,C4*%
X133470833Y-83637142D02*
X133423214Y-83684761D01*
X133280357Y-83732380D01*
X133185119Y-83732380D01*
X133042261Y-83684761D01*
X132947023Y-83589523D01*
X132899404Y-83494285D01*
X132851785Y-83303809D01*
X132851785Y-83160952D01*
X132899404Y-82970476D01*
X132947023Y-82875238D01*
X133042261Y-82780000D01*
X133185119Y-82732380D01*
X133280357Y-82732380D01*
X133423214Y-82780000D01*
X133470833Y-82827619D01*
X134327976Y-83065714D02*
X134327976Y-83732380D01*
X134089880Y-82684761D02*
X133851785Y-83399047D01*
X134470833Y-83399047D01*
%TO.C,C3*%
X140170833Y-71777142D02*
X140123214Y-71824761D01*
X139980357Y-71872380D01*
X139885119Y-71872380D01*
X139742261Y-71824761D01*
X139647023Y-71729523D01*
X139599404Y-71634285D01*
X139551785Y-71443809D01*
X139551785Y-71300952D01*
X139599404Y-71110476D01*
X139647023Y-71015238D01*
X139742261Y-70920000D01*
X139885119Y-70872380D01*
X139980357Y-70872380D01*
X140123214Y-70920000D01*
X140170833Y-70967619D01*
X140504166Y-70872380D02*
X141123214Y-70872380D01*
X140789880Y-71253333D01*
X140932738Y-71253333D01*
X141027976Y-71300952D01*
X141075595Y-71348571D01*
X141123214Y-71443809D01*
X141123214Y-71681904D01*
X141075595Y-71777142D01*
X141027976Y-71824761D01*
X140932738Y-71872380D01*
X140647023Y-71872380D01*
X140551785Y-71824761D01*
X140504166Y-71777142D01*
%TD*%
M02*
