%TF.GenerationSoftware,KiCad,Pcbnew,(5.1.9)-1*%
%TF.CreationDate,2021-04-26T03:37:11+02:00*%
%TF.ProjectId,HB-Uni-SEN-ORB,48422d55-6e69-42d5-9345-4e2d4f52422e,rev?*%
%TF.SameCoordinates,Original*%
%TF.FileFunction,Copper,L1,Top*%
%TF.FilePolarity,Positive*%
%FSLAX46Y46*%
G04 Gerber Fmt 4.6, Leading zero omitted, Abs format (unit mm)*
G04 Created by KiCad (PCBNEW (5.1.9)-1) date 2021-04-26 03:37:11*
%MOMM*%
%LPD*%
G01*
G04 APERTURE LIST*
%TA.AperFunction,ComponentPad*%
%ADD10O,1.700000X1.700000*%
%TD*%
%TA.AperFunction,ComponentPad*%
%ADD11R,1.700000X1.700000*%
%TD*%
%TA.AperFunction,SMDPad,CuDef*%
%ADD12R,1.500000X1.500000*%
%TD*%
%TA.AperFunction,ComponentPad*%
%ADD13O,1.400000X1.400000*%
%TD*%
%TA.AperFunction,ComponentPad*%
%ADD14C,1.400000*%
%TD*%
%TA.AperFunction,ComponentPad*%
%ADD15C,1.600000*%
%TD*%
%TA.AperFunction,ComponentPad*%
%ADD16C,1.524000*%
%TD*%
%TA.AperFunction,ComponentPad*%
%ADD17O,1.270000X1.270000*%
%TD*%
%TA.AperFunction,ComponentPad*%
%ADD18C,1.270000*%
%TD*%
%TA.AperFunction,SMDPad,CuDef*%
%ADD19R,1.200000X2.000000*%
%TD*%
%TA.AperFunction,SMDPad,CuDef*%
%ADD20R,1.970000X0.600000*%
%TD*%
%TA.AperFunction,ComponentPad*%
%ADD21C,2.300000*%
%TD*%
%TA.AperFunction,ComponentPad*%
%ADD22O,2.500000X1.600000*%
%TD*%
%TA.AperFunction,ComponentPad*%
%ADD23O,7.000000X3.500000*%
%TD*%
%TA.AperFunction,ComponentPad*%
%ADD24O,3.000000X1.500000*%
%TD*%
%TA.AperFunction,ViaPad*%
%ADD25C,0.600000*%
%TD*%
%TA.AperFunction,Conductor*%
%ADD26C,0.250000*%
%TD*%
%TA.AperFunction,Conductor*%
%ADD27C,2.000000*%
%TD*%
%TA.AperFunction,Conductor*%
%ADD28C,0.254000*%
%TD*%
%TA.AperFunction,Conductor*%
%ADD29C,0.100000*%
%TD*%
G04 APERTURE END LIST*
%TO.P,R6,2*%
%TO.N,/VCC*%
%TA.AperFunction,SMDPad,CuDef*%
G36*
G01*
X151199999Y-75900000D02*
X152100001Y-75900000D01*
G75*
G02*
X152350000Y-76149999I0J-249999D01*
G01*
X152350000Y-76850001D01*
G75*
G02*
X152100001Y-77100000I-249999J0D01*
G01*
X151199999Y-77100000D01*
G75*
G02*
X150950000Y-76850001I0J249999D01*
G01*
X150950000Y-76149999D01*
G75*
G02*
X151199999Y-75900000I249999J0D01*
G01*
G37*
%TD.AperFunction*%
%TO.P,R6,1*%
%TO.N,/SCL*%
%TA.AperFunction,SMDPad,CuDef*%
G36*
G01*
X151199999Y-73900000D02*
X152100001Y-73900000D01*
G75*
G02*
X152350000Y-74149999I0J-249999D01*
G01*
X152350000Y-74850001D01*
G75*
G02*
X152100001Y-75100000I-249999J0D01*
G01*
X151199999Y-75100000D01*
G75*
G02*
X150950000Y-74850001I0J249999D01*
G01*
X150950000Y-74149999D01*
G75*
G02*
X151199999Y-73900000I249999J0D01*
G01*
G37*
%TD.AperFunction*%
%TD*%
%TO.P,R5,2*%
%TO.N,/VCC*%
%TA.AperFunction,SMDPad,CuDef*%
G36*
G01*
X153349999Y-75900000D02*
X154250001Y-75900000D01*
G75*
G02*
X154500000Y-76149999I0J-249999D01*
G01*
X154500000Y-76850001D01*
G75*
G02*
X154250001Y-77100000I-249999J0D01*
G01*
X153349999Y-77100000D01*
G75*
G02*
X153100000Y-76850001I0J249999D01*
G01*
X153100000Y-76149999D01*
G75*
G02*
X153349999Y-75900000I249999J0D01*
G01*
G37*
%TD.AperFunction*%
%TO.P,R5,1*%
%TO.N,/SDA*%
%TA.AperFunction,SMDPad,CuDef*%
G36*
G01*
X153349999Y-73900000D02*
X154250001Y-73900000D01*
G75*
G02*
X154500000Y-74149999I0J-249999D01*
G01*
X154500000Y-74850001D01*
G75*
G02*
X154250001Y-75100000I-249999J0D01*
G01*
X153349999Y-75100000D01*
G75*
G02*
X153100000Y-74850001I0J249999D01*
G01*
X153100000Y-74149999D01*
G75*
G02*
X153349999Y-73900000I249999J0D01*
G01*
G37*
%TD.AperFunction*%
%TD*%
D10*
%TO.P,PH_SENSOR,3*%
%TO.N,GND*%
X162330000Y-75400000D03*
D11*
%TO.P,PH_SENSOR,2*%
%TO.N,/VCC*%
X159790000Y-75400000D03*
D10*
%TO.P,PH_SENSOR,1*%
%TO.N,/A0*%
X157250000Y-75400000D03*
%TD*%
D12*
%TO.P,Cal1,2*%
%TO.N,Net-(Cal1-Pad2)*%
X122900000Y-81500000D03*
%TO.P,Cal1,1*%
%TO.N,GND*%
X115100000Y-81500000D03*
%TD*%
D13*
%TO.P,R8,2*%
%TO.N,Net-(R8-Pad2)*%
X146900000Y-48540000D03*
D14*
%TO.P,R8,1*%
%TO.N,Net-(PS1-Pad1)*%
X146900000Y-46000000D03*
%TD*%
D15*
%TO.P,RV1,2*%
%TO.N,Net-(R8-Pad2)*%
X147500000Y-52400000D03*
%TO.P,RV1,1*%
%TO.N,Net-(PS1-Pad2)*%
X146300000Y-57400000D03*
%TD*%
D12*
%TO.P,Config,2*%
%TO.N,/CONFIG*%
X155400000Y-66900000D03*
%TO.P,Config,1*%
%TO.N,GND*%
X163200000Y-66900000D03*
%TD*%
D16*
%TO.P,U1,TXD*%
%TO.N,Net-(U1-PadTXD)*%
X114800000Y-101820000D03*
%TO.P,U1,RXD*%
%TO.N,Net-(U1-PadRXD)*%
X117340000Y-101820000D03*
%TO.P,U1,RST*%
%TO.N,Net-(U1-PadRST)*%
X119880000Y-101820000D03*
%TO.P,U1,GND*%
%TO.N,GND*%
X122420000Y-101820000D03*
%TO.P,U1,2*%
%TO.N,Net-(U1-Pad2)*%
X124960000Y-101820000D03*
%TO.P,U1,3*%
%TO.N,/GDO0*%
X127500000Y-101820000D03*
%TO.P,U1,4*%
%TO.N,/LED*%
X130040000Y-101820000D03*
%TO.P,U1,5*%
%TO.N,/1_WIRE*%
X132580000Y-101820000D03*
%TO.P,U1,6*%
%TO.N,Net-(U1-Pad6)*%
X135120000Y-101820000D03*
%TO.P,U1,7*%
%TO.N,Net-(U1-Pad7)*%
X137660000Y-101820000D03*
%TO.P,U1,8*%
%TO.N,/CONFIG*%
X140200000Y-101820000D03*
%TO.P,U1,9*%
%TO.N,Net-(U1-Pad9)*%
X142740000Y-101820000D03*
%TO.P,U1,10*%
%TO.N,/CSN*%
X142740000Y-86580000D03*
%TO.P,U1,11*%
%TO.N,/MOSI*%
X140200000Y-86580000D03*
%TO.P,U1,12*%
%TO.N,/MISO*%
X137660000Y-86580000D03*
%TO.P,U1,13*%
%TO.N,/SCK*%
X135120000Y-86580000D03*
%TO.P,U1,A0*%
%TO.N,/A0*%
X132580000Y-86580000D03*
%TO.P,U1,A1*%
%TO.N,/A1*%
X130040000Y-86580000D03*
%TO.P,U1,A2*%
%TO.N,Net-(U1-PadA2)*%
X127500000Y-86580000D03*
%TO.P,U1,A3*%
%TO.N,Net-(U1-PadA3)*%
X124960000Y-86580000D03*
%TO.P,U1,VCC*%
%TO.N,/VCC*%
X122420000Y-86580000D03*
%TO.P,U1,RST*%
%TO.N,Net-(U1-PadRST)*%
X119880000Y-86580000D03*
%TO.P,U1,GND*%
%TO.N,GND*%
X117340000Y-86580000D03*
%TO.P,U1,RAW*%
%TO.N,+5V*%
X114800000Y-86580000D03*
%TO.P,U1,A4*%
%TO.N,/SDA*%
X126230000Y-89120000D03*
%TO.P,U1,A5*%
%TO.N,/SCL*%
X123690000Y-89120000D03*
%TO.P,U1,A7*%
%TO.N,Net-(U1-PadA7)*%
X142740000Y-89120000D03*
%TO.P,U1,A6*%
%TO.N,Net-(U1-PadA6)*%
X142740000Y-91660000D03*
%TO.P,U1,GND*%
%TO.N,GND*%
X142740000Y-94200000D03*
%TD*%
D17*
%TO.P,U2,1*%
%TO.N,/VCC*%
X162100000Y-86300000D03*
%TO.P,U2,2*%
%TO.N,GND*%
X160100000Y-86300000D03*
D18*
%TO.P,U2,3*%
%TO.N,/MOSI*%
X158100000Y-86300000D03*
%TO.P,U2,4*%
%TO.N,/SCK*%
X156100000Y-86300000D03*
%TO.P,U2,5*%
%TO.N,/MISO*%
X154100000Y-86300000D03*
%TO.P,U2,6*%
%TO.N,Net-(U2-Pad6)*%
X152100000Y-86300000D03*
%TO.P,U2,7*%
%TO.N,/GDO0*%
X150100000Y-86300000D03*
%TO.P,U2,8*%
%TO.N,/CSN*%
X148100000Y-86300000D03*
D19*
%TO.P,U2,1*%
%TO.N,/VCC*%
X162100000Y-85300000D03*
%TO.P,U2,2*%
%TO.N,GND*%
X160100000Y-85300000D03*
%TO.P,U2,3*%
%TO.N,/MOSI*%
X158100000Y-85300000D03*
%TO.P,U2,4*%
%TO.N,/SCK*%
X156100000Y-85300000D03*
%TO.P,U2,5*%
%TO.N,/MISO*%
X154100000Y-85300000D03*
%TO.P,U2,6*%
%TO.N,Net-(U2-Pad6)*%
X152100000Y-85300000D03*
%TO.P,U2,7*%
%TO.N,/GDO0*%
X150100000Y-85300000D03*
%TO.P,U2,8*%
%TO.N,/CSN*%
X148100000Y-85300000D03*
%TD*%
D10*
%TO.P,LCD,4*%
%TO.N,/SCL*%
X154680000Y-71700000D03*
%TO.P,LCD,3*%
%TO.N,/SDA*%
X157220000Y-71700000D03*
D11*
%TO.P,LCD,2*%
%TO.N,+5V*%
X159760000Y-71700000D03*
D10*
%TO.P,LCD,1*%
%TO.N,GND*%
X162300000Y-71700000D03*
%TD*%
D11*
%TO.P,DS18B20,3*%
%TO.N,/VCC*%
X162700000Y-82000000D03*
D10*
%TO.P,DS18B20,2*%
%TO.N,GND*%
X160160000Y-82000000D03*
%TO.P,DS18B20,1*%
%TO.N,/1_WIRE*%
X157620000Y-82000000D03*
%TD*%
%TO.P,R7,2*%
%TO.N,/1_WIRE*%
%TA.AperFunction,SMDPad,CuDef*%
G36*
G01*
X158200000Y-78799999D02*
X158200000Y-79700001D01*
G75*
G02*
X157950001Y-79950000I-249999J0D01*
G01*
X157249999Y-79950000D01*
G75*
G02*
X157000000Y-79700001I0J249999D01*
G01*
X157000000Y-78799999D01*
G75*
G02*
X157249999Y-78550000I249999J0D01*
G01*
X157950001Y-78550000D01*
G75*
G02*
X158200000Y-78799999I0J-249999D01*
G01*
G37*
%TD.AperFunction*%
%TO.P,R7,1*%
%TO.N,/VCC*%
%TA.AperFunction,SMDPad,CuDef*%
G36*
G01*
X160200000Y-78799999D02*
X160200000Y-79700001D01*
G75*
G02*
X159950001Y-79950000I-249999J0D01*
G01*
X159249999Y-79950000D01*
G75*
G02*
X159000000Y-79700001I0J249999D01*
G01*
X159000000Y-78799999D01*
G75*
G02*
X159249999Y-78550000I249999J0D01*
G01*
X159950001Y-78550000D01*
G75*
G02*
X160200000Y-78799999I0J-249999D01*
G01*
G37*
%TD.AperFunction*%
%TD*%
D20*
%TO.P,U3,1*%
%TO.N,Net-(U3-Pad1)*%
X135130000Y-63395000D03*
%TO.P,U3,2*%
%TO.N,Net-(C1-Pad1)*%
X135130000Y-64665000D03*
%TO.P,U3,3*%
%TO.N,GND*%
X135130000Y-65935000D03*
%TO.P,U3,4*%
%TO.N,Net-(C1-Pad2)*%
X135130000Y-67205000D03*
%TO.P,U3,5*%
%TO.N,-5V*%
X140070000Y-67205000D03*
%TO.P,U3,6*%
%TO.N,GND*%
X140070000Y-65935000D03*
%TO.P,U3,7*%
%TO.N,Net-(U3-Pad7)*%
X140070000Y-64665000D03*
%TO.P,U3,8*%
%TO.N,+5V*%
X140070000Y-63395000D03*
%TD*%
%TO.P,C5,2*%
%TO.N,GND*%
%TA.AperFunction,SMDPad,CuDef*%
G36*
G01*
X144574999Y-78175000D02*
X146425001Y-78175000D01*
G75*
G02*
X146675000Y-78424999I0J-249999D01*
G01*
X146675000Y-80175001D01*
G75*
G02*
X146425001Y-80425000I-249999J0D01*
G01*
X144574999Y-80425000D01*
G75*
G02*
X144325000Y-80175001I0J249999D01*
G01*
X144325000Y-78424999D01*
G75*
G02*
X144574999Y-78175000I249999J0D01*
G01*
G37*
%TD.AperFunction*%
%TO.P,C5,1*%
%TO.N,+5V*%
%TA.AperFunction,SMDPad,CuDef*%
G36*
G01*
X144574999Y-73075000D02*
X146425001Y-73075000D01*
G75*
G02*
X146675000Y-73324999I0J-249999D01*
G01*
X146675000Y-75075001D01*
G75*
G02*
X146425001Y-75325000I-249999J0D01*
G01*
X144574999Y-75325000D01*
G75*
G02*
X144325000Y-75075001I0J249999D01*
G01*
X144325000Y-73324999D01*
G75*
G02*
X144574999Y-73075000I249999J0D01*
G01*
G37*
%TD.AperFunction*%
%TD*%
%TO.P,C7,2*%
%TO.N,-5V*%
%TA.AperFunction,SMDPad,CuDef*%
G36*
G01*
X128474999Y-81175000D02*
X130325001Y-81175000D01*
G75*
G02*
X130575000Y-81424999I0J-249999D01*
G01*
X130575000Y-83175001D01*
G75*
G02*
X130325001Y-83425000I-249999J0D01*
G01*
X128474999Y-83425000D01*
G75*
G02*
X128225000Y-83175001I0J249999D01*
G01*
X128225000Y-81424999D01*
G75*
G02*
X128474999Y-81175000I249999J0D01*
G01*
G37*
%TD.AperFunction*%
%TO.P,C7,1*%
%TO.N,GND*%
%TA.AperFunction,SMDPad,CuDef*%
G36*
G01*
X128474999Y-76075000D02*
X130325001Y-76075000D01*
G75*
G02*
X130575000Y-76324999I0J-249999D01*
G01*
X130575000Y-78075001D01*
G75*
G02*
X130325001Y-78325000I-249999J0D01*
G01*
X128474999Y-78325000D01*
G75*
G02*
X128225000Y-78075001I0J249999D01*
G01*
X128225000Y-76324999D01*
G75*
G02*
X128474999Y-76075000I249999J0D01*
G01*
G37*
%TD.AperFunction*%
%TD*%
%TO.P,C1,2*%
%TO.N,Net-(C1-Pad2)*%
%TA.AperFunction,SMDPad,CuDef*%
G36*
G01*
X128874999Y-69175000D02*
X130925001Y-69175000D01*
G75*
G02*
X131175000Y-69424999I0J-249999D01*
G01*
X131175000Y-71175001D01*
G75*
G02*
X130925001Y-71425000I-249999J0D01*
G01*
X128874999Y-71425000D01*
G75*
G02*
X128625000Y-71175001I0J249999D01*
G01*
X128625000Y-69424999D01*
G75*
G02*
X128874999Y-69175000I249999J0D01*
G01*
G37*
%TD.AperFunction*%
%TO.P,C1,1*%
%TO.N,Net-(C1-Pad1)*%
%TA.AperFunction,SMDPad,CuDef*%
G36*
G01*
X128874999Y-62775000D02*
X130925001Y-62775000D01*
G75*
G02*
X131175000Y-63024999I0J-249999D01*
G01*
X131175000Y-64775001D01*
G75*
G02*
X130925001Y-65025000I-249999J0D01*
G01*
X128874999Y-65025000D01*
G75*
G02*
X128625000Y-64775001I0J249999D01*
G01*
X128625000Y-63024999D01*
G75*
G02*
X128874999Y-62775000I249999J0D01*
G01*
G37*
%TD.AperFunction*%
%TD*%
%TO.P,C2,2*%
%TO.N,-5V*%
%TA.AperFunction,SMDPad,CuDef*%
G36*
G01*
X143974999Y-69175000D02*
X146025001Y-69175000D01*
G75*
G02*
X146275000Y-69424999I0J-249999D01*
G01*
X146275000Y-71175001D01*
G75*
G02*
X146025001Y-71425000I-249999J0D01*
G01*
X143974999Y-71425000D01*
G75*
G02*
X143725000Y-71175001I0J249999D01*
G01*
X143725000Y-69424999D01*
G75*
G02*
X143974999Y-69175000I249999J0D01*
G01*
G37*
%TD.AperFunction*%
%TO.P,C2,1*%
%TO.N,GND*%
%TA.AperFunction,SMDPad,CuDef*%
G36*
G01*
X143974999Y-62775000D02*
X146025001Y-62775000D01*
G75*
G02*
X146275000Y-63024999I0J-249999D01*
G01*
X146275000Y-64775001D01*
G75*
G02*
X146025001Y-65025000I-249999J0D01*
G01*
X143974999Y-65025000D01*
G75*
G02*
X143725000Y-64775001I0J249999D01*
G01*
X143725000Y-63024999D01*
G75*
G02*
X143974999Y-62775000I249999J0D01*
G01*
G37*
%TD.AperFunction*%
%TD*%
%TO.P,U4,1*%
%TO.N,Net-(C6-Pad2)*%
X133830000Y-75595000D03*
%TO.P,U4,2*%
X133830000Y-76865000D03*
%TO.P,U4,3*%
%TO.N,Net-(Cal1-Pad2)*%
X133830000Y-78135000D03*
%TO.P,U4,4*%
%TO.N,-5V*%
X133830000Y-79405000D03*
%TO.P,U4,5*%
%TO.N,GND*%
X138770000Y-79405000D03*
%TO.P,U4,6*%
%TO.N,Net-(R1-Pad1)*%
X138770000Y-78135000D03*
%TO.P,U4,7*%
%TO.N,/A1*%
X138770000Y-76865000D03*
%TO.P,U4,8*%
%TO.N,+5V*%
X138770000Y-75595000D03*
%TD*%
%TO.P,R4,2*%
%TO.N,/LED*%
%TA.AperFunction,SMDPad,CuDef*%
G36*
G01*
X152849999Y-68300000D02*
X153750001Y-68300000D01*
G75*
G02*
X154000000Y-68549999I0J-249999D01*
G01*
X154000000Y-69250001D01*
G75*
G02*
X153750001Y-69500000I-249999J0D01*
G01*
X152849999Y-69500000D01*
G75*
G02*
X152600000Y-69250001I0J249999D01*
G01*
X152600000Y-68549999D01*
G75*
G02*
X152849999Y-68300000I249999J0D01*
G01*
G37*
%TD.AperFunction*%
%TO.P,R4,1*%
%TO.N,Net-(D1-Pad2)*%
%TA.AperFunction,SMDPad,CuDef*%
G36*
G01*
X152849999Y-66300000D02*
X153750001Y-66300000D01*
G75*
G02*
X154000000Y-66549999I0J-249999D01*
G01*
X154000000Y-67250001D01*
G75*
G02*
X153750001Y-67500000I-249999J0D01*
G01*
X152849999Y-67500000D01*
G75*
G02*
X152600000Y-67250001I0J249999D01*
G01*
X152600000Y-66549999D01*
G75*
G02*
X152849999Y-66300000I249999J0D01*
G01*
G37*
%TD.AperFunction*%
%TD*%
%TO.P,R3,2*%
%TO.N,-5V*%
%TA.AperFunction,SMDPad,CuDef*%
G36*
G01*
X137300000Y-81149999D02*
X137300000Y-82050001D01*
G75*
G02*
X137050001Y-82300000I-249999J0D01*
G01*
X136349999Y-82300000D01*
G75*
G02*
X136100000Y-82050001I0J249999D01*
G01*
X136100000Y-81149999D01*
G75*
G02*
X136349999Y-80900000I249999J0D01*
G01*
X137050001Y-80900000D01*
G75*
G02*
X137300000Y-81149999I0J-249999D01*
G01*
G37*
%TD.AperFunction*%
%TO.P,R3,1*%
%TO.N,Net-(R1-Pad1)*%
%TA.AperFunction,SMDPad,CuDef*%
G36*
G01*
X139300000Y-81149999D02*
X139300000Y-82050001D01*
G75*
G02*
X139050001Y-82300000I-249999J0D01*
G01*
X138349999Y-82300000D01*
G75*
G02*
X138100000Y-82050001I0J249999D01*
G01*
X138100000Y-81149999D01*
G75*
G02*
X138349999Y-80900000I249999J0D01*
G01*
X139050001Y-80900000D01*
G75*
G02*
X139300000Y-81149999I0J-249999D01*
G01*
G37*
%TD.AperFunction*%
%TD*%
%TO.P,R2,2*%
%TO.N,/A1*%
%TA.AperFunction,SMDPad,CuDef*%
G36*
G01*
X142100000Y-82050001D02*
X142100000Y-81149999D01*
G75*
G02*
X142349999Y-80900000I249999J0D01*
G01*
X143050001Y-80900000D01*
G75*
G02*
X143300000Y-81149999I0J-249999D01*
G01*
X143300000Y-82050001D01*
G75*
G02*
X143050001Y-82300000I-249999J0D01*
G01*
X142349999Y-82300000D01*
G75*
G02*
X142100000Y-82050001I0J249999D01*
G01*
G37*
%TD.AperFunction*%
%TO.P,R2,1*%
%TO.N,Net-(R1-Pad1)*%
%TA.AperFunction,SMDPad,CuDef*%
G36*
G01*
X140100000Y-82050001D02*
X140100000Y-81149999D01*
G75*
G02*
X140349999Y-80900000I249999J0D01*
G01*
X141050001Y-80900000D01*
G75*
G02*
X141300000Y-81149999I0J-249999D01*
G01*
X141300000Y-82050001D01*
G75*
G02*
X141050001Y-82300000I-249999J0D01*
G01*
X140349999Y-82300000D01*
G75*
G02*
X140100000Y-82050001I0J249999D01*
G01*
G37*
%TD.AperFunction*%
%TD*%
%TO.P,R1,2*%
%TO.N,Net-(C6-Pad2)*%
%TA.AperFunction,SMDPad,CuDef*%
G36*
G01*
X135900000Y-72649999D02*
X135900000Y-73550001D01*
G75*
G02*
X135650001Y-73800000I-249999J0D01*
G01*
X134949999Y-73800000D01*
G75*
G02*
X134700000Y-73550001I0J249999D01*
G01*
X134700000Y-72649999D01*
G75*
G02*
X134949999Y-72400000I249999J0D01*
G01*
X135650001Y-72400000D01*
G75*
G02*
X135900000Y-72649999I0J-249999D01*
G01*
G37*
%TD.AperFunction*%
%TO.P,R1,1*%
%TO.N,Net-(R1-Pad1)*%
%TA.AperFunction,SMDPad,CuDef*%
G36*
G01*
X137900000Y-72649999D02*
X137900000Y-73550001D01*
G75*
G02*
X137650001Y-73800000I-249999J0D01*
G01*
X136949999Y-73800000D01*
G75*
G02*
X136700000Y-73550001I0J249999D01*
G01*
X136700000Y-72649999D01*
G75*
G02*
X136949999Y-72400000I249999J0D01*
G01*
X137650001Y-72400000D01*
G75*
G02*
X137900000Y-72649999I0J-249999D01*
G01*
G37*
%TD.AperFunction*%
%TD*%
D21*
%TO.P,PS1,4*%
%TO.N,+5V*%
X112300000Y-44000000D03*
%TO.P,PS1,2*%
%TO.N,Net-(PS1-Pad1)*%
X141700000Y-49200000D03*
%TO.P,PS1,1*%
%TO.N,Net-(PS1-Pad2)*%
X141700000Y-54200000D03*
%TO.P,PS1,3*%
%TO.N,GND*%
X112300000Y-59400000D03*
%TD*%
D22*
%TO.P,J2,2*%
%TO.N,GND*%
X123400000Y-72540000D03*
%TO.P,J2,1*%
%TO.N,Net-(Cal1-Pad2)*%
X123400000Y-70000000D03*
D23*
%TO.P,J2,2*%
%TO.N,GND*%
X118320000Y-64920000D03*
X118320000Y-75080000D03*
%TD*%
D24*
%TO.P,WAGO236-403,3*%
%TO.N,Net-(R8-Pad2)*%
X159900000Y-45600000D03*
X154900000Y-45600000D03*
%TO.P,WAGO236-403,2*%
%TO.N,Net-(WAGO236-403-Pad2)*%
X159900000Y-50600000D03*
X154900000Y-50600000D03*
%TO.P,WAGO236-403,1*%
%TO.N,Net-(PS1-Pad2)*%
X159900000Y-55600000D03*
X154900000Y-55600000D03*
%TD*%
%TO.P,D1,2*%
%TO.N,Net-(D1-Pad2)*%
%TA.AperFunction,SMDPad,CuDef*%
G36*
G01*
X152849999Y-64425000D02*
X153750001Y-64425000D01*
G75*
G02*
X154000000Y-64674999I0J-249999D01*
G01*
X154000000Y-65325001D01*
G75*
G02*
X153750001Y-65575000I-249999J0D01*
G01*
X152849999Y-65575000D01*
G75*
G02*
X152600000Y-65325001I0J249999D01*
G01*
X152600000Y-64674999D01*
G75*
G02*
X152849999Y-64425000I249999J0D01*
G01*
G37*
%TD.AperFunction*%
%TO.P,D1,1*%
%TO.N,GND*%
%TA.AperFunction,SMDPad,CuDef*%
G36*
G01*
X152849999Y-62375000D02*
X153750001Y-62375000D01*
G75*
G02*
X154000000Y-62624999I0J-249999D01*
G01*
X154000000Y-63275001D01*
G75*
G02*
X153750001Y-63525000I-249999J0D01*
G01*
X152849999Y-63525000D01*
G75*
G02*
X152600000Y-63275001I0J249999D01*
G01*
X152600000Y-62624999D01*
G75*
G02*
X152849999Y-62375000I249999J0D01*
G01*
G37*
%TD.AperFunction*%
%TD*%
%TO.P,C6,2*%
%TO.N,Net-(C6-Pad2)*%
%TA.AperFunction,SMDPad,CuDef*%
G36*
G01*
X132787500Y-73575000D02*
X132787500Y-72625000D01*
G75*
G02*
X133037500Y-72375000I250000J0D01*
G01*
X133712500Y-72375000D01*
G75*
G02*
X133962500Y-72625000I0J-250000D01*
G01*
X133962500Y-73575000D01*
G75*
G02*
X133712500Y-73825000I-250000J0D01*
G01*
X133037500Y-73825000D01*
G75*
G02*
X132787500Y-73575000I0J250000D01*
G01*
G37*
%TD.AperFunction*%
%TO.P,C6,1*%
%TO.N,GND*%
%TA.AperFunction,SMDPad,CuDef*%
G36*
G01*
X130712500Y-73575000D02*
X130712500Y-72625000D01*
G75*
G02*
X130962500Y-72375000I250000J0D01*
G01*
X131637500Y-72375000D01*
G75*
G02*
X131887500Y-72625000I0J-250000D01*
G01*
X131887500Y-73575000D01*
G75*
G02*
X131637500Y-73825000I-250000J0D01*
G01*
X130962500Y-73825000D01*
G75*
G02*
X130712500Y-73575000I0J250000D01*
G01*
G37*
%TD.AperFunction*%
%TD*%
%TO.P,C4,2*%
%TO.N,GND*%
%TA.AperFunction,SMDPad,CuDef*%
G36*
G01*
X133187500Y-81125000D02*
X133187500Y-82075000D01*
G75*
G02*
X132937500Y-82325000I-250000J0D01*
G01*
X132262500Y-82325000D01*
G75*
G02*
X132012500Y-82075000I0J250000D01*
G01*
X132012500Y-81125000D01*
G75*
G02*
X132262500Y-80875000I250000J0D01*
G01*
X132937500Y-80875000D01*
G75*
G02*
X133187500Y-81125000I0J-250000D01*
G01*
G37*
%TD.AperFunction*%
%TO.P,C4,1*%
%TO.N,-5V*%
%TA.AperFunction,SMDPad,CuDef*%
G36*
G01*
X135262500Y-81125000D02*
X135262500Y-82075000D01*
G75*
G02*
X135012500Y-82325000I-250000J0D01*
G01*
X134337500Y-82325000D01*
G75*
G02*
X134087500Y-82075000I0J250000D01*
G01*
X134087500Y-81125000D01*
G75*
G02*
X134337500Y-80875000I250000J0D01*
G01*
X135012500Y-80875000D01*
G75*
G02*
X135262500Y-81125000I0J-250000D01*
G01*
G37*
%TD.AperFunction*%
%TD*%
%TO.P,C3,2*%
%TO.N,GND*%
%TA.AperFunction,SMDPad,CuDef*%
G36*
G01*
X140787500Y-73575000D02*
X140787500Y-72625000D01*
G75*
G02*
X141037500Y-72375000I250000J0D01*
G01*
X141712500Y-72375000D01*
G75*
G02*
X141962500Y-72625000I0J-250000D01*
G01*
X141962500Y-73575000D01*
G75*
G02*
X141712500Y-73825000I-250000J0D01*
G01*
X141037500Y-73825000D01*
G75*
G02*
X140787500Y-73575000I0J250000D01*
G01*
G37*
%TD.AperFunction*%
%TO.P,C3,1*%
%TO.N,+5V*%
%TA.AperFunction,SMDPad,CuDef*%
G36*
G01*
X138712500Y-73575000D02*
X138712500Y-72625000D01*
G75*
G02*
X138962500Y-72375000I250000J0D01*
G01*
X139637500Y-72375000D01*
G75*
G02*
X139887500Y-72625000I0J-250000D01*
G01*
X139887500Y-73575000D01*
G75*
G02*
X139637500Y-73825000I-250000J0D01*
G01*
X138962500Y-73825000D01*
G75*
G02*
X138712500Y-73575000I0J250000D01*
G01*
G37*
%TD.AperFunction*%
%TD*%
D25*
%TO.N,GND*%
X140400000Y-79400000D03*
%TO.N,+5V*%
X148300000Y-63400000D03*
X139300000Y-70900000D03*
%TO.N,/CONFIG*%
X149060001Y-77650000D03*
%TO.N,/1_WIRE*%
X148100000Y-83000000D03*
%TD*%
D26*
%TO.N,Net-(C1-Pad2)*%
X132035000Y-70300000D02*
X135130000Y-67205000D01*
X129900000Y-70300000D02*
X132035000Y-70300000D01*
%TO.N,Net-(C1-Pad1)*%
X130665000Y-64665000D02*
X135130000Y-64665000D01*
X129900000Y-63900000D02*
X130665000Y-64665000D01*
%TO.N,-5V*%
X131195000Y-79405000D02*
X133830000Y-79405000D01*
X134675000Y-80250000D02*
X133830000Y-79405000D01*
X134675000Y-81600000D02*
X134675000Y-80250000D01*
X134675000Y-81600000D02*
X136700000Y-81600000D01*
X135065000Y-79405000D02*
X133830000Y-79405000D01*
X136225010Y-78244990D02*
X135065000Y-79405000D01*
X136225010Y-71049990D02*
X136225010Y-78244990D01*
X140070000Y-67205000D02*
X136225010Y-71049990D01*
X141905000Y-67205000D02*
X145000000Y-70300000D01*
X140070000Y-67205000D02*
X141905000Y-67205000D01*
X129400000Y-81200000D02*
X131195000Y-79405000D01*
X129400000Y-82300000D02*
X129400000Y-81200000D01*
%TO.N,GND*%
X160100000Y-82060000D02*
X160160000Y-82000000D01*
X140395000Y-79405000D02*
X140400000Y-79400000D01*
X138770000Y-79405000D02*
X140395000Y-79405000D01*
%TO.N,Net-(C6-Pad2)*%
X133375000Y-73100000D02*
X135300000Y-73100000D01*
X133375000Y-75140000D02*
X133830000Y-75595000D01*
X133375000Y-73100000D02*
X133375000Y-75140000D01*
X133830000Y-75595000D02*
X133830000Y-76865000D01*
%TO.N,Net-(D1-Pad2)*%
X153300000Y-65000000D02*
X153300000Y-66900000D01*
%TO.N,+5V*%
X140400000Y-74200000D02*
X139300000Y-73100000D01*
X145500000Y-74200000D02*
X145200000Y-74200000D01*
X138770000Y-73630000D02*
X139300000Y-73100000D01*
X138770000Y-75595000D02*
X138770000Y-73630000D01*
X110824999Y-82604999D02*
X114800000Y-86580000D01*
X112300000Y-44000000D02*
X110824999Y-45475001D01*
X110824999Y-45475001D02*
X110824999Y-82604999D01*
X147349990Y-62449990D02*
X148300000Y-63400000D01*
X141015010Y-62449990D02*
X147349990Y-62449990D01*
X140070000Y-63395000D02*
X141015010Y-62449990D01*
X120675000Y-44000000D02*
X138687500Y-62012500D01*
X112300000Y-44000000D02*
X120675000Y-44000000D01*
X138687500Y-62012500D02*
X140070000Y-63395000D01*
X138450001Y-61775001D02*
X138687500Y-62012500D01*
X145200000Y-74200000D02*
X140400000Y-74200000D01*
X139300000Y-73100000D02*
X139300000Y-70900000D01*
%TO.N,Net-(R1-Pad1)*%
X138700000Y-81600000D02*
X140700000Y-81600000D01*
X137535000Y-78135000D02*
X138770000Y-78135000D01*
X137459999Y-78210001D02*
X137535000Y-78135000D01*
X138700000Y-81600000D02*
X137459999Y-80359999D01*
X137300000Y-77900000D02*
X137459999Y-78059999D01*
X137300000Y-73100000D02*
X137300000Y-77900000D01*
X137459999Y-78059999D02*
X137459999Y-78959999D01*
X137459999Y-78959999D02*
X137459999Y-78210001D01*
X137459999Y-80359999D02*
X137459999Y-78959999D01*
%TO.N,/A0*%
X136059980Y-83100020D02*
X146926978Y-83100020D01*
X132580000Y-86580000D02*
X136059980Y-83100020D01*
X151100010Y-81549990D02*
X157250000Y-75400000D01*
X148477008Y-81549990D02*
X151100010Y-81549990D01*
X146926978Y-83100020D02*
X148477008Y-81549990D01*
%TO.N,/LED*%
X163875001Y-85945801D02*
X149087803Y-100732999D01*
X163875001Y-80889999D02*
X163875001Y-85945801D01*
X161124999Y-78139997D02*
X163875001Y-80889999D01*
X161124999Y-70779997D02*
X161124999Y-78139997D01*
X159770003Y-69425001D02*
X161124999Y-70779997D01*
X131127001Y-100732999D02*
X130040000Y-101820000D01*
X153825001Y-69425001D02*
X159770003Y-69425001D01*
X149087803Y-100732999D02*
X131127001Y-100732999D01*
X153300000Y-68900000D02*
X153825001Y-69425001D01*
%TO.N,/CONFIG*%
X154474990Y-67825010D02*
X155400000Y-66900000D01*
X152761800Y-67825010D02*
X154474990Y-67825010D01*
X149060001Y-71526809D02*
X152761800Y-67825010D01*
X149060001Y-71526809D02*
X149060001Y-77650000D01*
%TO.N,/1_WIRE*%
X157500000Y-81880000D02*
X157620000Y-82000000D01*
X157500000Y-78900000D02*
X157500000Y-81880000D01*
X149100000Y-82000000D02*
X148100000Y-83000000D01*
X157620000Y-82000000D02*
X149100000Y-82000000D01*
%TO.N,/MOSI*%
X158100000Y-85300000D02*
X158100000Y-86550000D01*
X158100000Y-84050000D02*
X158100000Y-85300000D01*
X158024999Y-83974999D02*
X158100000Y-84050000D01*
X142805001Y-83974999D02*
X158024999Y-83974999D01*
X140200000Y-86580000D02*
X142805001Y-83974999D01*
%TO.N,/MISO*%
X152982999Y-87667001D02*
X138747001Y-87667001D01*
X138747001Y-87667001D02*
X137660000Y-86580000D01*
X154100000Y-86550000D02*
X152982999Y-87667001D01*
X154100000Y-85300000D02*
X154100000Y-86550000D01*
%TO.N,/SCK*%
X156100000Y-86550000D02*
X156100000Y-85300000D01*
X152442999Y-90207001D02*
X156100000Y-86550000D01*
X138747001Y-90207001D02*
X152442999Y-90207001D01*
X135120000Y-86580000D02*
X138747001Y-90207001D01*
%TO.N,/VCC*%
X159800000Y-78600000D02*
X159400000Y-79000000D01*
X159700000Y-79000000D02*
X162700000Y-82000000D01*
X159400000Y-79000000D02*
X159700000Y-79000000D01*
X162100000Y-82600000D02*
X162700000Y-82000000D01*
X162100000Y-85300000D02*
X162100000Y-82600000D01*
X159300000Y-78900000D02*
X159400000Y-79000000D01*
X162100000Y-86550000D02*
X149250000Y-99400000D01*
X162100000Y-85300000D02*
X162100000Y-86550000D01*
X122420000Y-89458762D02*
X122420000Y-89080000D01*
X149250000Y-99400000D02*
X132361238Y-99400000D01*
X122420000Y-86580000D02*
X122420000Y-89080000D01*
X132361238Y-99400000D02*
X128580619Y-95619381D01*
X128430619Y-95469381D02*
X122420000Y-89458762D01*
X128580619Y-95619381D02*
X128430619Y-95469381D01*
X159790000Y-78610000D02*
X159400000Y-79000000D01*
X159790000Y-75400000D02*
X159790000Y-78610000D01*
X153750000Y-76500000D02*
X153800000Y-76550000D01*
X151650000Y-76500000D02*
X153750000Y-76500000D01*
X158614999Y-74224999D02*
X159790000Y-75400000D01*
X156125001Y-74224999D02*
X158614999Y-74224999D01*
X153800000Y-76550000D02*
X156125001Y-74224999D01*
%TO.N,/CSN*%
X147820000Y-86580000D02*
X148100000Y-86300000D01*
X142740000Y-86580000D02*
X147820000Y-86580000D01*
%TO.N,/SCL*%
X154700000Y-71720000D02*
X154680000Y-71700000D01*
X151880000Y-74500000D02*
X154680000Y-71700000D01*
X151650000Y-74500000D02*
X151880000Y-74500000D01*
%TO.N,/SDA*%
X157300000Y-71780000D02*
X157220000Y-71700000D01*
X154370000Y-74550000D02*
X157220000Y-71700000D01*
X153800000Y-74550000D02*
X154370000Y-74550000D01*
D27*
%TO.N,Net-(PS1-Pad1)*%
X144900000Y-46000000D02*
X141700000Y-49200000D01*
X146900000Y-46000000D02*
X144900000Y-46000000D01*
D26*
%TO.N,Net-(Cal1-Pad2)*%
X133035000Y-78135000D02*
X133830000Y-78135000D01*
X133795000Y-78100000D02*
X133830000Y-78135000D01*
X125010000Y-70000000D02*
X123400000Y-70000000D01*
X133145000Y-78135000D02*
X125010000Y-70000000D01*
X133830000Y-78135000D02*
X133145000Y-78135000D01*
X132595000Y-78135000D02*
X133830000Y-78135000D01*
X131775010Y-78954990D02*
X132595000Y-78135000D01*
X126135010Y-78954990D02*
X131775010Y-78954990D01*
X123590000Y-81500000D02*
X126135010Y-78954990D01*
D27*
%TO.N,Net-(PS1-Pad2)*%
X154900000Y-55600000D02*
X159900000Y-55600000D01*
X143100000Y-54200000D02*
X146300000Y-57400000D01*
X141700000Y-54200000D02*
X143100000Y-54200000D01*
X153100000Y-57400000D02*
X154900000Y-55600000D01*
X146300000Y-57400000D02*
X153100000Y-57400000D01*
D26*
%TO.N,/A1*%
X140005000Y-76865000D02*
X138770000Y-76865000D01*
X142700000Y-79560000D02*
X140005000Y-76865000D01*
X142700000Y-81600000D02*
X142700000Y-79560000D01*
X142700000Y-81600000D02*
X142700000Y-79486810D01*
X141649990Y-82650010D02*
X142700000Y-81600000D01*
X133969990Y-82650010D02*
X141649990Y-82650010D01*
X130040000Y-86580000D02*
X133969990Y-82650010D01*
D27*
%TO.N,Net-(R8-Pad2)*%
X154900000Y-45600000D02*
X159900000Y-45600000D01*
X154300000Y-45600000D02*
X147500000Y-52400000D01*
D26*
X154900000Y-45600000D02*
X154300000Y-45600000D01*
D27*
X146900000Y-51800000D02*
X147500000Y-52400000D01*
X146900000Y-48540000D02*
X146900000Y-51800000D01*
%TO.N,Net-(WAGO236-403-Pad2)*%
X154900000Y-50600000D02*
X159900000Y-50600000D01*
%TD*%
D28*
%TO.N,GND*%
X138773000Y-61023198D02*
X121238804Y-43489003D01*
X121215001Y-43459999D01*
X121099276Y-43365026D01*
X120967247Y-43294454D01*
X120823986Y-43250997D01*
X120712333Y-43240000D01*
X120712322Y-43240000D01*
X120675000Y-43236324D01*
X120637678Y-43240000D01*
X113917268Y-43240000D01*
X113881847Y-43154485D01*
X113686500Y-42862129D01*
X113437871Y-42613500D01*
X113145515Y-42418153D01*
X112820665Y-42283596D01*
X112475807Y-42215000D01*
X112124193Y-42215000D01*
X111779335Y-42283596D01*
X111454485Y-42418153D01*
X111162129Y-42613500D01*
X110913500Y-42862129D01*
X110718153Y-43154485D01*
X110583596Y-43479335D01*
X110515000Y-43824193D01*
X110515000Y-44175807D01*
X110583596Y-44520665D01*
X110619018Y-44606181D01*
X110314001Y-44911198D01*
X110284998Y-44935000D01*
X110229870Y-45002175D01*
X110190025Y-45050725D01*
X110123211Y-45175724D01*
X110119453Y-45182755D01*
X110075996Y-45326016D01*
X110064999Y-45437669D01*
X110064999Y-45437679D01*
X110061323Y-45475001D01*
X110064999Y-45512323D01*
X110065000Y-82567666D01*
X110061323Y-82604999D01*
X110065000Y-82642332D01*
X110065133Y-82643677D01*
X110075997Y-82753984D01*
X110119453Y-82897245D01*
X110190025Y-83029275D01*
X110226966Y-83074287D01*
X110284999Y-83145000D01*
X110313997Y-83168798D01*
X113433628Y-86288430D01*
X113403000Y-86442408D01*
X113403000Y-86717592D01*
X113456686Y-86987490D01*
X113561995Y-87241727D01*
X113714880Y-87470535D01*
X113909465Y-87665120D01*
X114138273Y-87818005D01*
X114392510Y-87923314D01*
X114662408Y-87977000D01*
X114937592Y-87977000D01*
X115207490Y-87923314D01*
X115461727Y-87818005D01*
X115690535Y-87665120D01*
X115810090Y-87545565D01*
X116554040Y-87545565D01*
X116621020Y-87785656D01*
X116870048Y-87902756D01*
X117137135Y-87969023D01*
X117412017Y-87981910D01*
X117684133Y-87940922D01*
X117943023Y-87847636D01*
X118058980Y-87785656D01*
X118125960Y-87545565D01*
X117340000Y-86759605D01*
X116554040Y-87545565D01*
X115810090Y-87545565D01*
X115885120Y-87470535D01*
X116038005Y-87241727D01*
X116067692Y-87170057D01*
X116072364Y-87183023D01*
X116134344Y-87298980D01*
X116374435Y-87365960D01*
X117160395Y-86580000D01*
X116374435Y-85794040D01*
X116134344Y-85861020D01*
X116070515Y-85996760D01*
X116038005Y-85918273D01*
X115885120Y-85689465D01*
X115810090Y-85614435D01*
X116554040Y-85614435D01*
X117340000Y-86400395D01*
X118125960Y-85614435D01*
X118058980Y-85374344D01*
X117809952Y-85257244D01*
X117542865Y-85190977D01*
X117267983Y-85178090D01*
X116995867Y-85219078D01*
X116736977Y-85312364D01*
X116621020Y-85374344D01*
X116554040Y-85614435D01*
X115810090Y-85614435D01*
X115690535Y-85494880D01*
X115461727Y-85341995D01*
X115207490Y-85236686D01*
X114937592Y-85183000D01*
X114662408Y-85183000D01*
X114508430Y-85213628D01*
X111584999Y-82290198D01*
X111584999Y-82250000D01*
X113711928Y-82250000D01*
X113724188Y-82374482D01*
X113760498Y-82494180D01*
X113819463Y-82604494D01*
X113898815Y-82701185D01*
X113995506Y-82780537D01*
X114105820Y-82839502D01*
X114225518Y-82875812D01*
X114350000Y-82888072D01*
X114814250Y-82885000D01*
X114973000Y-82726250D01*
X114973000Y-81627000D01*
X115227000Y-81627000D01*
X115227000Y-82726250D01*
X115385750Y-82885000D01*
X115850000Y-82888072D01*
X115974482Y-82875812D01*
X116094180Y-82839502D01*
X116204494Y-82780537D01*
X116301185Y-82701185D01*
X116380537Y-82604494D01*
X116439502Y-82494180D01*
X116475812Y-82374482D01*
X116488072Y-82250000D01*
X116485000Y-81785750D01*
X116326250Y-81627000D01*
X115227000Y-81627000D01*
X114973000Y-81627000D01*
X113873750Y-81627000D01*
X113715000Y-81785750D01*
X113711928Y-82250000D01*
X111584999Y-82250000D01*
X111584999Y-80750000D01*
X113711928Y-80750000D01*
X113715000Y-81214250D01*
X113873750Y-81373000D01*
X114973000Y-81373000D01*
X114973000Y-80273750D01*
X115227000Y-80273750D01*
X115227000Y-81373000D01*
X116326250Y-81373000D01*
X116485000Y-81214250D01*
X116488072Y-80750000D01*
X116475812Y-80625518D01*
X116439502Y-80505820D01*
X116380537Y-80395506D01*
X116301185Y-80298815D01*
X116204494Y-80219463D01*
X116094180Y-80160498D01*
X115974482Y-80124188D01*
X115850000Y-80111928D01*
X115385750Y-80115000D01*
X115227000Y-80273750D01*
X114973000Y-80273750D01*
X114814250Y-80115000D01*
X114350000Y-80111928D01*
X114225518Y-80124188D01*
X114105820Y-80160498D01*
X113995506Y-80219463D01*
X113898815Y-80298815D01*
X113819463Y-80395506D01*
X113760498Y-80505820D01*
X113724188Y-80625518D01*
X113711928Y-80750000D01*
X111584999Y-80750000D01*
X111584999Y-75578003D01*
X114237573Y-75578003D01*
X114317947Y-75875368D01*
X114516388Y-76299439D01*
X114793748Y-76676648D01*
X115139369Y-76992498D01*
X115539968Y-77234852D01*
X115980150Y-77394396D01*
X116443000Y-77465000D01*
X118193000Y-77465000D01*
X118193000Y-75207000D01*
X118447000Y-75207000D01*
X118447000Y-77465000D01*
X120197000Y-77465000D01*
X120659850Y-77394396D01*
X121100032Y-77234852D01*
X121500631Y-76992498D01*
X121846252Y-76676648D01*
X122123612Y-76299439D01*
X122322053Y-75875368D01*
X122402427Y-75578003D01*
X122292625Y-75207000D01*
X118447000Y-75207000D01*
X118193000Y-75207000D01*
X114347375Y-75207000D01*
X114237573Y-75578003D01*
X111584999Y-75578003D01*
X111584999Y-74581997D01*
X114237573Y-74581997D01*
X114347375Y-74953000D01*
X118193000Y-74953000D01*
X118193000Y-72695000D01*
X118447000Y-72695000D01*
X118447000Y-74953000D01*
X122292625Y-74953000D01*
X122402427Y-74581997D01*
X122322053Y-74284632D01*
X122123612Y-73860561D01*
X121846252Y-73483352D01*
X121500631Y-73167502D01*
X121100032Y-72925148D01*
X121000408Y-72889039D01*
X121558096Y-72889039D01*
X121575633Y-72971818D01*
X121686285Y-73231646D01*
X121845500Y-73464895D01*
X122047161Y-73662601D01*
X122283517Y-73817166D01*
X122545486Y-73922650D01*
X122823000Y-73975000D01*
X123273000Y-73975000D01*
X123273000Y-72667000D01*
X123527000Y-72667000D01*
X123527000Y-73975000D01*
X123977000Y-73975000D01*
X124254514Y-73922650D01*
X124516483Y-73817166D01*
X124752839Y-73662601D01*
X124954500Y-73464895D01*
X125113715Y-73231646D01*
X125224367Y-72971818D01*
X125241904Y-72889039D01*
X125119915Y-72667000D01*
X123527000Y-72667000D01*
X123273000Y-72667000D01*
X121680085Y-72667000D01*
X121558096Y-72889039D01*
X121000408Y-72889039D01*
X120659850Y-72765604D01*
X120197000Y-72695000D01*
X118447000Y-72695000D01*
X118193000Y-72695000D01*
X116443000Y-72695000D01*
X115980150Y-72765604D01*
X115539968Y-72925148D01*
X115139369Y-73167502D01*
X114793748Y-73483352D01*
X114516388Y-73860561D01*
X114317947Y-74284632D01*
X114237573Y-74581997D01*
X111584999Y-74581997D01*
X111584999Y-65418003D01*
X114237573Y-65418003D01*
X114317947Y-65715368D01*
X114516388Y-66139439D01*
X114793748Y-66516648D01*
X115139369Y-66832498D01*
X115539968Y-67074852D01*
X115980150Y-67234396D01*
X116443000Y-67305000D01*
X118193000Y-67305000D01*
X118193000Y-65047000D01*
X118447000Y-65047000D01*
X118447000Y-67305000D01*
X120197000Y-67305000D01*
X120659850Y-67234396D01*
X121100032Y-67074852D01*
X121500631Y-66832498D01*
X121846252Y-66516648D01*
X122123612Y-66139439D01*
X122322053Y-65715368D01*
X122402427Y-65418003D01*
X122292625Y-65047000D01*
X118447000Y-65047000D01*
X118193000Y-65047000D01*
X114347375Y-65047000D01*
X114237573Y-65418003D01*
X111584999Y-65418003D01*
X111584999Y-64421997D01*
X114237573Y-64421997D01*
X114347375Y-64793000D01*
X118193000Y-64793000D01*
X118193000Y-62535000D01*
X118447000Y-62535000D01*
X118447000Y-64793000D01*
X122292625Y-64793000D01*
X122402427Y-64421997D01*
X122322053Y-64124632D01*
X122123612Y-63700561D01*
X121846252Y-63323352D01*
X121519778Y-63024999D01*
X127986928Y-63024999D01*
X127986928Y-64775001D01*
X128003992Y-64948255D01*
X128054528Y-65114851D01*
X128136595Y-65268387D01*
X128247038Y-65402962D01*
X128381613Y-65513405D01*
X128535149Y-65595472D01*
X128701745Y-65646008D01*
X128874999Y-65663072D01*
X130925001Y-65663072D01*
X131098255Y-65646008D01*
X131264851Y-65595472D01*
X131418387Y-65513405D01*
X131526109Y-65425000D01*
X133545130Y-65425000D01*
X133519188Y-65510518D01*
X133506928Y-65635000D01*
X133510000Y-65649250D01*
X133668750Y-65808000D01*
X135003000Y-65808000D01*
X135003000Y-65788000D01*
X135257000Y-65788000D01*
X135257000Y-65808000D01*
X136591250Y-65808000D01*
X136750000Y-65649250D01*
X136753072Y-65635000D01*
X136740812Y-65510518D01*
X136704502Y-65390820D01*
X136655957Y-65300000D01*
X136704502Y-65209180D01*
X136740812Y-65089482D01*
X136753072Y-64965000D01*
X136753072Y-64365000D01*
X136740812Y-64240518D01*
X136704502Y-64120820D01*
X136655957Y-64030000D01*
X136704502Y-63939180D01*
X136740812Y-63819482D01*
X136753072Y-63695000D01*
X136753072Y-63095000D01*
X136740812Y-62970518D01*
X136704502Y-62850820D01*
X136645537Y-62740506D01*
X136566185Y-62643815D01*
X136469494Y-62564463D01*
X136359180Y-62505498D01*
X136239482Y-62469188D01*
X136115000Y-62456928D01*
X134145000Y-62456928D01*
X134020518Y-62469188D01*
X133900820Y-62505498D01*
X133790506Y-62564463D01*
X133693815Y-62643815D01*
X133614463Y-62740506D01*
X133555498Y-62850820D01*
X133519188Y-62970518D01*
X133506928Y-63095000D01*
X133506928Y-63695000D01*
X133519188Y-63819482D01*
X133545130Y-63905000D01*
X131813072Y-63905000D01*
X131813072Y-63024999D01*
X131796008Y-62851745D01*
X131745472Y-62685149D01*
X131663405Y-62531613D01*
X131552962Y-62397038D01*
X131418387Y-62286595D01*
X131264851Y-62204528D01*
X131098255Y-62153992D01*
X130925001Y-62136928D01*
X128874999Y-62136928D01*
X128701745Y-62153992D01*
X128535149Y-62204528D01*
X128381613Y-62286595D01*
X128247038Y-62397038D01*
X128136595Y-62531613D01*
X128054528Y-62685149D01*
X128003992Y-62851745D01*
X127986928Y-63024999D01*
X121519778Y-63024999D01*
X121500631Y-63007502D01*
X121100032Y-62765148D01*
X120659850Y-62605604D01*
X120197000Y-62535000D01*
X118447000Y-62535000D01*
X118193000Y-62535000D01*
X116443000Y-62535000D01*
X115980150Y-62605604D01*
X115539968Y-62765148D01*
X115139369Y-63007502D01*
X114793748Y-63323352D01*
X114516388Y-63700561D01*
X114317947Y-64124632D01*
X114237573Y-64421997D01*
X111584999Y-64421997D01*
X111584999Y-61037756D01*
X111666296Y-61077961D01*
X112005826Y-61169349D01*
X112356661Y-61192741D01*
X112705319Y-61147240D01*
X113038400Y-61034594D01*
X113248882Y-60922090D01*
X113362744Y-60642349D01*
X112300000Y-59579605D01*
X112285858Y-59593748D01*
X112106253Y-59414143D01*
X112120395Y-59400000D01*
X112479605Y-59400000D01*
X113542349Y-60462744D01*
X113822090Y-60348882D01*
X113977961Y-60033704D01*
X114069349Y-59694174D01*
X114092741Y-59343339D01*
X114047240Y-58994681D01*
X113934594Y-58661600D01*
X113822090Y-58451118D01*
X113542349Y-58337256D01*
X112479605Y-59400000D01*
X112120395Y-59400000D01*
X112106253Y-59385858D01*
X112285858Y-59206253D01*
X112300000Y-59220395D01*
X113362744Y-58157651D01*
X113248882Y-57877910D01*
X112933704Y-57722039D01*
X112594174Y-57630651D01*
X112243339Y-57607259D01*
X111894681Y-57652760D01*
X111584999Y-57757493D01*
X111584999Y-45789802D01*
X111693819Y-45680982D01*
X111779335Y-45716404D01*
X112124193Y-45785000D01*
X112475807Y-45785000D01*
X112820665Y-45716404D01*
X113145515Y-45581847D01*
X113437871Y-45386500D01*
X113686500Y-45137871D01*
X113881847Y-44845515D01*
X113917268Y-44760000D01*
X120360199Y-44760000D01*
X138176497Y-62576299D01*
X138176502Y-62576303D01*
X138485146Y-62884947D01*
X138459188Y-62970518D01*
X138446928Y-63095000D01*
X138446928Y-63695000D01*
X138459188Y-63819482D01*
X138495498Y-63939180D01*
X138544043Y-64030000D01*
X138495498Y-64120820D01*
X138459188Y-64240518D01*
X138446928Y-64365000D01*
X138446928Y-64965000D01*
X138459188Y-65089482D01*
X138495498Y-65209180D01*
X138544043Y-65300000D01*
X138495498Y-65390820D01*
X138459188Y-65510518D01*
X138446928Y-65635000D01*
X138450000Y-65649250D01*
X138608750Y-65808000D01*
X139943000Y-65808000D01*
X139943000Y-65788000D01*
X140197000Y-65788000D01*
X140197000Y-65808000D01*
X141531250Y-65808000D01*
X141690000Y-65649250D01*
X141693072Y-65635000D01*
X141680812Y-65510518D01*
X141644502Y-65390820D01*
X141595957Y-65300000D01*
X141644502Y-65209180D01*
X141680812Y-65089482D01*
X141687162Y-65025000D01*
X143086928Y-65025000D01*
X143099188Y-65149482D01*
X143135498Y-65269180D01*
X143194463Y-65379494D01*
X143273815Y-65476185D01*
X143370506Y-65555537D01*
X143480820Y-65614502D01*
X143600518Y-65650812D01*
X143725000Y-65663072D01*
X144714250Y-65660000D01*
X144873000Y-65501250D01*
X144873000Y-64027000D01*
X145127000Y-64027000D01*
X145127000Y-65501250D01*
X145285750Y-65660000D01*
X146275000Y-65663072D01*
X146399482Y-65650812D01*
X146519180Y-65614502D01*
X146629494Y-65555537D01*
X146726185Y-65476185D01*
X146805537Y-65379494D01*
X146864502Y-65269180D01*
X146900812Y-65149482D01*
X146913072Y-65025000D01*
X146910000Y-64185750D01*
X146751250Y-64027000D01*
X145127000Y-64027000D01*
X144873000Y-64027000D01*
X143248750Y-64027000D01*
X143090000Y-64185750D01*
X143086928Y-65025000D01*
X141687162Y-65025000D01*
X141693072Y-64965000D01*
X141693072Y-64365000D01*
X141680812Y-64240518D01*
X141644502Y-64120820D01*
X141595957Y-64030000D01*
X141644502Y-63939180D01*
X141680812Y-63819482D01*
X141693072Y-63695000D01*
X141693072Y-63209990D01*
X143088520Y-63209990D01*
X143090000Y-63614250D01*
X143248750Y-63773000D01*
X144873000Y-63773000D01*
X144873000Y-63753000D01*
X145127000Y-63753000D01*
X145127000Y-63773000D01*
X146751250Y-63773000D01*
X146910000Y-63614250D01*
X146911480Y-63209990D01*
X147035189Y-63209990D01*
X147376847Y-63551649D01*
X147400932Y-63672729D01*
X147471414Y-63842889D01*
X147573738Y-63996028D01*
X147703972Y-64126262D01*
X147857111Y-64228586D01*
X148027271Y-64299068D01*
X148207911Y-64335000D01*
X148392089Y-64335000D01*
X148572729Y-64299068D01*
X148742889Y-64228586D01*
X148896028Y-64126262D01*
X149026262Y-63996028D01*
X149128586Y-63842889D01*
X149199068Y-63672729D01*
X149235000Y-63492089D01*
X149235000Y-63307911D01*
X149199068Y-63127271D01*
X149128586Y-62957111D01*
X149026262Y-62803972D01*
X148896028Y-62673738D01*
X148742889Y-62571414D01*
X148572729Y-62500932D01*
X148451649Y-62476847D01*
X147913794Y-61938992D01*
X147889991Y-61909989D01*
X147774266Y-61815016D01*
X147759239Y-61806984D01*
X152315623Y-61806984D01*
X152245506Y-61844463D01*
X152148815Y-61923815D01*
X152069463Y-62020506D01*
X152010498Y-62130820D01*
X151974188Y-62250518D01*
X151961928Y-62375000D01*
X151965000Y-62664250D01*
X152123750Y-62823000D01*
X153173000Y-62823000D01*
X153173000Y-62803000D01*
X153427000Y-62803000D01*
X153427000Y-62823000D01*
X154476250Y-62823000D01*
X154635000Y-62664250D01*
X154638072Y-62375000D01*
X154625812Y-62250518D01*
X154589502Y-62130820D01*
X154530537Y-62020506D01*
X154451185Y-61923815D01*
X154354494Y-61844463D01*
X154284377Y-61806984D01*
X163840001Y-61806984D01*
X163840001Y-65512656D01*
X163485750Y-65515000D01*
X163327000Y-65673750D01*
X163327000Y-66773000D01*
X163347000Y-66773000D01*
X163347000Y-67027000D01*
X163327000Y-67027000D01*
X163327000Y-68126250D01*
X163485750Y-68285000D01*
X163840001Y-68287344D01*
X163840000Y-79780197D01*
X161884999Y-77825196D01*
X161884999Y-76814750D01*
X161973110Y-76841476D01*
X162203000Y-76720155D01*
X162203000Y-75527000D01*
X162457000Y-75527000D01*
X162457000Y-76720155D01*
X162686890Y-76841476D01*
X162834099Y-76796825D01*
X163096920Y-76671641D01*
X163330269Y-76497588D01*
X163525178Y-76281355D01*
X163674157Y-76031252D01*
X163771481Y-75756891D01*
X163650814Y-75527000D01*
X162457000Y-75527000D01*
X162203000Y-75527000D01*
X162183000Y-75527000D01*
X162183000Y-75273000D01*
X162203000Y-75273000D01*
X162203000Y-74079845D01*
X162457000Y-74079845D01*
X162457000Y-75273000D01*
X163650814Y-75273000D01*
X163771481Y-75043109D01*
X163674157Y-74768748D01*
X163525178Y-74518645D01*
X163330269Y-74302412D01*
X163096920Y-74128359D01*
X162834099Y-74003175D01*
X162686890Y-73958524D01*
X162457000Y-74079845D01*
X162203000Y-74079845D01*
X161973110Y-73958524D01*
X161884999Y-73985250D01*
X161884999Y-73123850D01*
X161943110Y-73141476D01*
X162173000Y-73020155D01*
X162173000Y-71827000D01*
X162427000Y-71827000D01*
X162427000Y-73020155D01*
X162656890Y-73141476D01*
X162804099Y-73096825D01*
X163066920Y-72971641D01*
X163300269Y-72797588D01*
X163495178Y-72581355D01*
X163644157Y-72331252D01*
X163741481Y-72056891D01*
X163620814Y-71827000D01*
X162427000Y-71827000D01*
X162173000Y-71827000D01*
X162153000Y-71827000D01*
X162153000Y-71573000D01*
X162173000Y-71573000D01*
X162173000Y-70379845D01*
X162427000Y-70379845D01*
X162427000Y-71573000D01*
X163620814Y-71573000D01*
X163741481Y-71343109D01*
X163644157Y-71068748D01*
X163495178Y-70818645D01*
X163300269Y-70602412D01*
X163066920Y-70428359D01*
X162804099Y-70303175D01*
X162656890Y-70258524D01*
X162427000Y-70379845D01*
X162173000Y-70379845D01*
X161943110Y-70258524D01*
X161795901Y-70303175D01*
X161739066Y-70330246D01*
X161665000Y-70239996D01*
X161636003Y-70216199D01*
X160333807Y-68914004D01*
X160310004Y-68885000D01*
X160194279Y-68790027D01*
X160062250Y-68719455D01*
X159918989Y-68675998D01*
X159807336Y-68665001D01*
X159807325Y-68665001D01*
X159770003Y-68661325D01*
X159732681Y-68665001D01*
X154638072Y-68665001D01*
X154638072Y-68569737D01*
X154767237Y-68530556D01*
X154899266Y-68459984D01*
X155014991Y-68365011D01*
X155038793Y-68336008D01*
X155086729Y-68288072D01*
X156150000Y-68288072D01*
X156274482Y-68275812D01*
X156394180Y-68239502D01*
X156504494Y-68180537D01*
X156601185Y-68101185D01*
X156680537Y-68004494D01*
X156739502Y-67894180D01*
X156775812Y-67774482D01*
X156788072Y-67650000D01*
X161811928Y-67650000D01*
X161824188Y-67774482D01*
X161860498Y-67894180D01*
X161919463Y-68004494D01*
X161998815Y-68101185D01*
X162095506Y-68180537D01*
X162205820Y-68239502D01*
X162325518Y-68275812D01*
X162450000Y-68288072D01*
X162914250Y-68285000D01*
X163073000Y-68126250D01*
X163073000Y-67027000D01*
X161973750Y-67027000D01*
X161815000Y-67185750D01*
X161811928Y-67650000D01*
X156788072Y-67650000D01*
X156788072Y-66150000D01*
X161811928Y-66150000D01*
X161815000Y-66614250D01*
X161973750Y-66773000D01*
X163073000Y-66773000D01*
X163073000Y-65673750D01*
X162914250Y-65515000D01*
X162450000Y-65511928D01*
X162325518Y-65524188D01*
X162205820Y-65560498D01*
X162095506Y-65619463D01*
X161998815Y-65698815D01*
X161919463Y-65795506D01*
X161860498Y-65905820D01*
X161824188Y-66025518D01*
X161811928Y-66150000D01*
X156788072Y-66150000D01*
X156775812Y-66025518D01*
X156739502Y-65905820D01*
X156680537Y-65795506D01*
X156601185Y-65698815D01*
X156504494Y-65619463D01*
X156394180Y-65560498D01*
X156274482Y-65524188D01*
X156150000Y-65511928D01*
X154650000Y-65511928D01*
X154615840Y-65515292D01*
X154621008Y-65498255D01*
X154638072Y-65325001D01*
X154638072Y-64674999D01*
X154621008Y-64501745D01*
X154570472Y-64335149D01*
X154488405Y-64181613D01*
X154377962Y-64047038D01*
X154371406Y-64041658D01*
X154451185Y-63976185D01*
X154530537Y-63879494D01*
X154589502Y-63769180D01*
X154625812Y-63649482D01*
X154638072Y-63525000D01*
X154635000Y-63235750D01*
X154476250Y-63077000D01*
X153427000Y-63077000D01*
X153427000Y-63097000D01*
X153173000Y-63097000D01*
X153173000Y-63077000D01*
X152123750Y-63077000D01*
X151965000Y-63235750D01*
X151961928Y-63525000D01*
X151974188Y-63649482D01*
X152010498Y-63769180D01*
X152069463Y-63879494D01*
X152148815Y-63976185D01*
X152228594Y-64041658D01*
X152222038Y-64047038D01*
X152111595Y-64181613D01*
X152029528Y-64335149D01*
X151978992Y-64501745D01*
X151961928Y-64674999D01*
X151961928Y-65325001D01*
X151978992Y-65498255D01*
X152029528Y-65664851D01*
X152111595Y-65818387D01*
X152209349Y-65937500D01*
X152111595Y-66056613D01*
X152029528Y-66210149D01*
X151978992Y-66376745D01*
X151961928Y-66549999D01*
X151961928Y-67250001D01*
X151978992Y-67423255D01*
X152004538Y-67507470D01*
X148549004Y-70963005D01*
X148520000Y-70986808D01*
X148468959Y-71049002D01*
X148425027Y-71102533D01*
X148368120Y-71208998D01*
X148354455Y-71234563D01*
X148310998Y-71377824D01*
X148300001Y-71489477D01*
X148300001Y-71489487D01*
X148296325Y-71526809D01*
X148300001Y-71564132D01*
X148300002Y-77104463D01*
X148231415Y-77207111D01*
X148160933Y-77377271D01*
X148125001Y-77557911D01*
X148125001Y-77742089D01*
X148160933Y-77922729D01*
X148231415Y-78092889D01*
X148333739Y-78246028D01*
X148463973Y-78376262D01*
X148617112Y-78478586D01*
X148787272Y-78549068D01*
X148967912Y-78585000D01*
X149152090Y-78585000D01*
X149332730Y-78549068D01*
X149502890Y-78478586D01*
X149656029Y-78376262D01*
X149786263Y-78246028D01*
X149888587Y-78092889D01*
X149959069Y-77922729D01*
X149995001Y-77742089D01*
X149995001Y-77557911D01*
X149959069Y-77377271D01*
X149888587Y-77207111D01*
X149820001Y-77104465D01*
X149820001Y-71841610D01*
X152044239Y-69617373D01*
X152111595Y-69743387D01*
X152222038Y-69877962D01*
X152356613Y-69988405D01*
X152510149Y-70070472D01*
X152676745Y-70121008D01*
X152849999Y-70138072D01*
X153557561Y-70138072D01*
X153676015Y-70174004D01*
X153825001Y-70188678D01*
X153862334Y-70185001D01*
X159455202Y-70185001D01*
X159482129Y-70211928D01*
X158910000Y-70211928D01*
X158785518Y-70224188D01*
X158665820Y-70260498D01*
X158555506Y-70319463D01*
X158458815Y-70398815D01*
X158379463Y-70495506D01*
X158320498Y-70605820D01*
X158298487Y-70678380D01*
X158166632Y-70546525D01*
X157923411Y-70384010D01*
X157653158Y-70272068D01*
X157366260Y-70215000D01*
X157073740Y-70215000D01*
X156786842Y-70272068D01*
X156516589Y-70384010D01*
X156273368Y-70546525D01*
X156066525Y-70753368D01*
X155950000Y-70927760D01*
X155833475Y-70753368D01*
X155626632Y-70546525D01*
X155383411Y-70384010D01*
X155113158Y-70272068D01*
X154826260Y-70215000D01*
X154533740Y-70215000D01*
X154246842Y-70272068D01*
X153976589Y-70384010D01*
X153733368Y-70546525D01*
X153526525Y-70753368D01*
X153364010Y-70996589D01*
X153252068Y-71266842D01*
X153195000Y-71553740D01*
X153195000Y-71846260D01*
X153238790Y-72066408D01*
X152043271Y-73261928D01*
X151199999Y-73261928D01*
X151026745Y-73278992D01*
X150860149Y-73329528D01*
X150706613Y-73411595D01*
X150572038Y-73522038D01*
X150461595Y-73656613D01*
X150379528Y-73810149D01*
X150328992Y-73976745D01*
X150311928Y-74149999D01*
X150311928Y-74850001D01*
X150328992Y-75023255D01*
X150379528Y-75189851D01*
X150461595Y-75343387D01*
X150572038Y-75477962D01*
X150598891Y-75500000D01*
X150572038Y-75522038D01*
X150461595Y-75656613D01*
X150379528Y-75810149D01*
X150328992Y-75976745D01*
X150311928Y-76149999D01*
X150311928Y-76850001D01*
X150328992Y-77023255D01*
X150379528Y-77189851D01*
X150461595Y-77343387D01*
X150572038Y-77477962D01*
X150706613Y-77588405D01*
X150860149Y-77670472D01*
X151026745Y-77721008D01*
X151199999Y-77738072D01*
X152100001Y-77738072D01*
X152273255Y-77721008D01*
X152439851Y-77670472D01*
X152593387Y-77588405D01*
X152725000Y-77480393D01*
X152856613Y-77588405D01*
X153010149Y-77670472D01*
X153176745Y-77721008D01*
X153349999Y-77738072D01*
X153837126Y-77738072D01*
X150785209Y-80789990D01*
X148514330Y-80789990D01*
X148477007Y-80786314D01*
X148439684Y-80789990D01*
X148439675Y-80789990D01*
X148328022Y-80800987D01*
X148184761Y-80844444D01*
X148052732Y-80915016D01*
X148052730Y-80915017D01*
X148052731Y-80915017D01*
X147966004Y-80986191D01*
X147966000Y-80986195D01*
X147937007Y-81009989D01*
X147913213Y-81038982D01*
X146612177Y-82340020D01*
X143885588Y-82340020D01*
X143921008Y-82223255D01*
X143938072Y-82050001D01*
X143938072Y-81149999D01*
X143921008Y-80976745D01*
X143896035Y-80894421D01*
X143970506Y-80955537D01*
X144080820Y-81014502D01*
X144200518Y-81050812D01*
X144325000Y-81063072D01*
X145214250Y-81060000D01*
X145373000Y-80901250D01*
X145373000Y-79427000D01*
X145627000Y-79427000D01*
X145627000Y-80901250D01*
X145785750Y-81060000D01*
X146675000Y-81063072D01*
X146799482Y-81050812D01*
X146919180Y-81014502D01*
X147029494Y-80955537D01*
X147126185Y-80876185D01*
X147205537Y-80779494D01*
X147264502Y-80669180D01*
X147300812Y-80549482D01*
X147313072Y-80425000D01*
X147310000Y-79585750D01*
X147151250Y-79427000D01*
X145627000Y-79427000D01*
X145373000Y-79427000D01*
X143848750Y-79427000D01*
X143690000Y-79585750D01*
X143686928Y-80425000D01*
X143699011Y-80547686D01*
X143677962Y-80522038D01*
X143543387Y-80411595D01*
X143460000Y-80367024D01*
X143460000Y-79597333D01*
X143463677Y-79560000D01*
X143460000Y-79522667D01*
X143460000Y-79449477D01*
X143449003Y-79337824D01*
X143405546Y-79194563D01*
X143334974Y-79062534D01*
X143240001Y-78946809D01*
X143124276Y-78851836D01*
X143000451Y-78785649D01*
X142389802Y-78175000D01*
X143686928Y-78175000D01*
X143690000Y-79014250D01*
X143848750Y-79173000D01*
X145373000Y-79173000D01*
X145373000Y-77698750D01*
X145627000Y-77698750D01*
X145627000Y-79173000D01*
X147151250Y-79173000D01*
X147310000Y-79014250D01*
X147313072Y-78175000D01*
X147300812Y-78050518D01*
X147264502Y-77930820D01*
X147205537Y-77820506D01*
X147126185Y-77723815D01*
X147029494Y-77644463D01*
X146919180Y-77585498D01*
X146799482Y-77549188D01*
X146675000Y-77536928D01*
X145785750Y-77540000D01*
X145627000Y-77698750D01*
X145373000Y-77698750D01*
X145214250Y-77540000D01*
X144325000Y-77536928D01*
X144200518Y-77549188D01*
X144080820Y-77585498D01*
X143970506Y-77644463D01*
X143873815Y-77723815D01*
X143794463Y-77820506D01*
X143735498Y-77930820D01*
X143699188Y-78050518D01*
X143686928Y-78175000D01*
X142389802Y-78175000D01*
X140568804Y-76354003D01*
X140545001Y-76324999D01*
X140429276Y-76230026D01*
X140325572Y-76174594D01*
X140344502Y-76139180D01*
X140380812Y-76019482D01*
X140393072Y-75895000D01*
X140393072Y-75295000D01*
X140380812Y-75170518D01*
X140344502Y-75050820D01*
X140292250Y-74953064D01*
X140362667Y-74960000D01*
X140362677Y-74960000D01*
X140400000Y-74963676D01*
X140437323Y-74960000D01*
X143686928Y-74960000D01*
X143686928Y-75075001D01*
X143703992Y-75248255D01*
X143754528Y-75414851D01*
X143836595Y-75568387D01*
X143947038Y-75702962D01*
X144081613Y-75813405D01*
X144235149Y-75895472D01*
X144401745Y-75946008D01*
X144574999Y-75963072D01*
X146425001Y-75963072D01*
X146598255Y-75946008D01*
X146764851Y-75895472D01*
X146918387Y-75813405D01*
X147052962Y-75702962D01*
X147163405Y-75568387D01*
X147245472Y-75414851D01*
X147296008Y-75248255D01*
X147313072Y-75075001D01*
X147313072Y-73324999D01*
X147296008Y-73151745D01*
X147245472Y-72985149D01*
X147163405Y-72831613D01*
X147052962Y-72697038D01*
X146918387Y-72586595D01*
X146764851Y-72504528D01*
X146598255Y-72453992D01*
X146425001Y-72436928D01*
X144574999Y-72436928D01*
X144401745Y-72453992D01*
X144235149Y-72504528D01*
X144081613Y-72586595D01*
X143947038Y-72697038D01*
X143836595Y-72831613D01*
X143754528Y-72985149D01*
X143703992Y-73151745D01*
X143686928Y-73324999D01*
X143686928Y-73440000D01*
X142597879Y-73440000D01*
X142597500Y-73385750D01*
X142438750Y-73227000D01*
X141502000Y-73227000D01*
X141502000Y-73247000D01*
X141248000Y-73247000D01*
X141248000Y-73227000D01*
X141228000Y-73227000D01*
X141228000Y-72973000D01*
X141248000Y-72973000D01*
X141248000Y-71898750D01*
X141502000Y-71898750D01*
X141502000Y-72973000D01*
X142438750Y-72973000D01*
X142597500Y-72814250D01*
X142600572Y-72375000D01*
X142588312Y-72250518D01*
X142552002Y-72130820D01*
X142493037Y-72020506D01*
X142413685Y-71923815D01*
X142316994Y-71844463D01*
X142206680Y-71785498D01*
X142086982Y-71749188D01*
X141962500Y-71736928D01*
X141660750Y-71740000D01*
X141502000Y-71898750D01*
X141248000Y-71898750D01*
X141089250Y-71740000D01*
X140787500Y-71736928D01*
X140663018Y-71749188D01*
X140543320Y-71785498D01*
X140433006Y-71844463D01*
X140336315Y-71923815D01*
X140270842Y-72003594D01*
X140265462Y-71997038D01*
X140130886Y-71886595D01*
X140060000Y-71848706D01*
X140060000Y-71445535D01*
X140128586Y-71342889D01*
X140199068Y-71172729D01*
X140235000Y-70992089D01*
X140235000Y-70807911D01*
X140199068Y-70627271D01*
X140128586Y-70457111D01*
X140026262Y-70303972D01*
X139896028Y-70173738D01*
X139742889Y-70071414D01*
X139572729Y-70000932D01*
X139392089Y-69965000D01*
X139207911Y-69965000D01*
X139027271Y-70000932D01*
X138857111Y-70071414D01*
X138703972Y-70173738D01*
X138573738Y-70303972D01*
X138471414Y-70457111D01*
X138400932Y-70627271D01*
X138365000Y-70807911D01*
X138365000Y-70992089D01*
X138400932Y-71172729D01*
X138471414Y-71342889D01*
X138540001Y-71445537D01*
X138540001Y-71848705D01*
X138469114Y-71886595D01*
X138334538Y-71997038D01*
X138295992Y-72044007D01*
X138277962Y-72022038D01*
X138143387Y-71911595D01*
X137989851Y-71829528D01*
X137823255Y-71778992D01*
X137650001Y-71761928D01*
X136985010Y-71761928D01*
X136985010Y-71364791D01*
X140206730Y-68143072D01*
X141055000Y-68143072D01*
X141179482Y-68130812D01*
X141299180Y-68094502D01*
X141409494Y-68035537D01*
X141495444Y-67965000D01*
X141590199Y-67965000D01*
X143086928Y-69461730D01*
X143086928Y-71175001D01*
X143103992Y-71348255D01*
X143154528Y-71514851D01*
X143236595Y-71668387D01*
X143347038Y-71802962D01*
X143481613Y-71913405D01*
X143635149Y-71995472D01*
X143801745Y-72046008D01*
X143974999Y-72063072D01*
X146025001Y-72063072D01*
X146198255Y-72046008D01*
X146364851Y-71995472D01*
X146518387Y-71913405D01*
X146652962Y-71802962D01*
X146763405Y-71668387D01*
X146845472Y-71514851D01*
X146896008Y-71348255D01*
X146913072Y-71175001D01*
X146913072Y-69424999D01*
X146896008Y-69251745D01*
X146845472Y-69085149D01*
X146763405Y-68931613D01*
X146652962Y-68797038D01*
X146518387Y-68686595D01*
X146364851Y-68604528D01*
X146198255Y-68553992D01*
X146025001Y-68536928D01*
X144311730Y-68536928D01*
X142468804Y-66694003D01*
X142445001Y-66664999D01*
X142329276Y-66570026D01*
X142197247Y-66499454D01*
X142053986Y-66455997D01*
X141942333Y-66445000D01*
X141942322Y-66445000D01*
X141905000Y-66441324D01*
X141867678Y-66445000D01*
X141654870Y-66445000D01*
X141680812Y-66359482D01*
X141693072Y-66235000D01*
X141690000Y-66220750D01*
X141531250Y-66062000D01*
X140197000Y-66062000D01*
X140197000Y-66082000D01*
X139943000Y-66082000D01*
X139943000Y-66062000D01*
X138608750Y-66062000D01*
X138450000Y-66220750D01*
X138446928Y-66235000D01*
X138459188Y-66359482D01*
X138495498Y-66479180D01*
X138544043Y-66570000D01*
X138495498Y-66660820D01*
X138459188Y-66780518D01*
X138446928Y-66905000D01*
X138446928Y-67505000D01*
X138459188Y-67629482D01*
X138485146Y-67715053D01*
X135714013Y-70486186D01*
X135685009Y-70509989D01*
X135629881Y-70577164D01*
X135590036Y-70625714D01*
X135527524Y-70742665D01*
X135519464Y-70757744D01*
X135476007Y-70901005D01*
X135465010Y-71012658D01*
X135465010Y-71012668D01*
X135461334Y-71049990D01*
X135465010Y-71087313D01*
X135465010Y-71761928D01*
X134949999Y-71761928D01*
X134776745Y-71778992D01*
X134610149Y-71829528D01*
X134456613Y-71911595D01*
X134345307Y-72002942D01*
X134340462Y-71997038D01*
X134205886Y-71886595D01*
X134052350Y-71804528D01*
X133885754Y-71753992D01*
X133712500Y-71736928D01*
X133037500Y-71736928D01*
X132864246Y-71753992D01*
X132697650Y-71804528D01*
X132544114Y-71886595D01*
X132409538Y-71997038D01*
X132404158Y-72003594D01*
X132338685Y-71923815D01*
X132241994Y-71844463D01*
X132131680Y-71785498D01*
X132011982Y-71749188D01*
X131887500Y-71736928D01*
X131604793Y-71739806D01*
X131663405Y-71668387D01*
X131745472Y-71514851D01*
X131796008Y-71348255D01*
X131813072Y-71175001D01*
X131813072Y-71060000D01*
X131997678Y-71060000D01*
X132035000Y-71063676D01*
X132072322Y-71060000D01*
X132072333Y-71060000D01*
X132183986Y-71049003D01*
X132327247Y-71005546D01*
X132459276Y-70934974D01*
X132575001Y-70840001D01*
X132598804Y-70810997D01*
X135266730Y-68143072D01*
X136115000Y-68143072D01*
X136239482Y-68130812D01*
X136359180Y-68094502D01*
X136469494Y-68035537D01*
X136566185Y-67956185D01*
X136645537Y-67859494D01*
X136704502Y-67749180D01*
X136740812Y-67629482D01*
X136753072Y-67505000D01*
X136753072Y-66905000D01*
X136740812Y-66780518D01*
X136704502Y-66660820D01*
X136655957Y-66570000D01*
X136704502Y-66479180D01*
X136740812Y-66359482D01*
X136753072Y-66235000D01*
X136750000Y-66220750D01*
X136591250Y-66062000D01*
X135257000Y-66062000D01*
X135257000Y-66082000D01*
X135003000Y-66082000D01*
X135003000Y-66062000D01*
X133668750Y-66062000D01*
X133510000Y-66220750D01*
X133506928Y-66235000D01*
X133519188Y-66359482D01*
X133555498Y-66479180D01*
X133604043Y-66570000D01*
X133555498Y-66660820D01*
X133519188Y-66780518D01*
X133506928Y-66905000D01*
X133506928Y-67505000D01*
X133519188Y-67629482D01*
X133545146Y-67715053D01*
X131813072Y-69447127D01*
X131813072Y-69424999D01*
X131796008Y-69251745D01*
X131745472Y-69085149D01*
X131663405Y-68931613D01*
X131552962Y-68797038D01*
X131418387Y-68686595D01*
X131264851Y-68604528D01*
X131098255Y-68553992D01*
X130925001Y-68536928D01*
X128874999Y-68536928D01*
X128701745Y-68553992D01*
X128535149Y-68604528D01*
X128381613Y-68686595D01*
X128247038Y-68797038D01*
X128136595Y-68931613D01*
X128054528Y-69085149D01*
X128003992Y-69251745D01*
X127986928Y-69424999D01*
X127986928Y-71175001D01*
X128003992Y-71348255D01*
X128054528Y-71514851D01*
X128136595Y-71668387D01*
X128247038Y-71802962D01*
X128381613Y-71913405D01*
X128535149Y-71995472D01*
X128701745Y-72046008D01*
X128874999Y-72063072D01*
X130159211Y-72063072D01*
X130122998Y-72130820D01*
X130086688Y-72250518D01*
X130074428Y-72375000D01*
X130077500Y-72814250D01*
X130236250Y-72973000D01*
X131173000Y-72973000D01*
X131173000Y-72953000D01*
X131427000Y-72953000D01*
X131427000Y-72973000D01*
X131447000Y-72973000D01*
X131447000Y-73227000D01*
X131427000Y-73227000D01*
X131427000Y-74301250D01*
X131585750Y-74460000D01*
X131887500Y-74463072D01*
X132011982Y-74450812D01*
X132131680Y-74414502D01*
X132241994Y-74355537D01*
X132338685Y-74276185D01*
X132404158Y-74196406D01*
X132409538Y-74202962D01*
X132544114Y-74313405D01*
X132615001Y-74351295D01*
X132615001Y-74701196D01*
X132600820Y-74705498D01*
X132490506Y-74764463D01*
X132393815Y-74843815D01*
X132314463Y-74940506D01*
X132255498Y-75050820D01*
X132219188Y-75170518D01*
X132206928Y-75295000D01*
X132206928Y-75895000D01*
X132219188Y-76019482D01*
X132255498Y-76139180D01*
X132291689Y-76206887D01*
X130512795Y-74427993D01*
X130588018Y-74450812D01*
X130712500Y-74463072D01*
X131014250Y-74460000D01*
X131173000Y-74301250D01*
X131173000Y-73227000D01*
X130236250Y-73227000D01*
X130077500Y-73385750D01*
X130074428Y-73825000D01*
X130086688Y-73949482D01*
X130109507Y-74024705D01*
X125573804Y-69489003D01*
X125550001Y-69459999D01*
X125434276Y-69365026D01*
X125302247Y-69294454D01*
X125158986Y-69250997D01*
X125072211Y-69242450D01*
X125048932Y-69198899D01*
X124869608Y-68980392D01*
X124651101Y-68801068D01*
X124401808Y-68667818D01*
X124131309Y-68585764D01*
X123920492Y-68565000D01*
X122879508Y-68565000D01*
X122668691Y-68585764D01*
X122398192Y-68667818D01*
X122148899Y-68801068D01*
X121930392Y-68980392D01*
X121751068Y-69198899D01*
X121617818Y-69448192D01*
X121535764Y-69718691D01*
X121508057Y-70000000D01*
X121535764Y-70281309D01*
X121617818Y-70551808D01*
X121751068Y-70801101D01*
X121930392Y-71019608D01*
X122148899Y-71198932D01*
X122276741Y-71267265D01*
X122047161Y-71417399D01*
X121845500Y-71615105D01*
X121686285Y-71848354D01*
X121575633Y-72108182D01*
X121558096Y-72190961D01*
X121680085Y-72413000D01*
X123273000Y-72413000D01*
X123273000Y-72393000D01*
X123527000Y-72393000D01*
X123527000Y-72413000D01*
X125119915Y-72413000D01*
X125241904Y-72190961D01*
X125224367Y-72108182D01*
X125113715Y-71848354D01*
X124954500Y-71615105D01*
X124752839Y-71417399D01*
X124523259Y-71267265D01*
X124651101Y-71198932D01*
X124869608Y-71019608D01*
X124908012Y-70972813D01*
X129375198Y-75440000D01*
X129272998Y-75440000D01*
X129272998Y-75598748D01*
X129114250Y-75440000D01*
X128225000Y-75436928D01*
X128100518Y-75449188D01*
X127980820Y-75485498D01*
X127870506Y-75544463D01*
X127773815Y-75623815D01*
X127694463Y-75720506D01*
X127635498Y-75830820D01*
X127599188Y-75950518D01*
X127586928Y-76075000D01*
X127590000Y-76914250D01*
X127748750Y-77073000D01*
X129273000Y-77073000D01*
X129273000Y-77053000D01*
X129527000Y-77053000D01*
X129527000Y-77073000D01*
X129547000Y-77073000D01*
X129547000Y-77327000D01*
X129527000Y-77327000D01*
X129527000Y-77347000D01*
X129273000Y-77347000D01*
X129273000Y-77327000D01*
X127748750Y-77327000D01*
X127590000Y-77485750D01*
X127587404Y-78194990D01*
X126172335Y-78194990D01*
X126135010Y-78191314D01*
X126097685Y-78194990D01*
X126097677Y-78194990D01*
X125986024Y-78205987D01*
X125842763Y-78249444D01*
X125710734Y-78320016D01*
X125595009Y-78414989D01*
X125571211Y-78443987D01*
X123863889Y-80151309D01*
X123774482Y-80124188D01*
X123650000Y-80111928D01*
X122150000Y-80111928D01*
X122025518Y-80124188D01*
X121905820Y-80160498D01*
X121795506Y-80219463D01*
X121698815Y-80298815D01*
X121619463Y-80395506D01*
X121560498Y-80505820D01*
X121524188Y-80625518D01*
X121511928Y-80750000D01*
X121511928Y-82250000D01*
X121524188Y-82374482D01*
X121560498Y-82494180D01*
X121619463Y-82604494D01*
X121698815Y-82701185D01*
X121795506Y-82780537D01*
X121905820Y-82839502D01*
X122025518Y-82875812D01*
X122150000Y-82888072D01*
X123650000Y-82888072D01*
X123774482Y-82875812D01*
X123894180Y-82839502D01*
X124004494Y-82780537D01*
X124101185Y-82701185D01*
X124180537Y-82604494D01*
X124239502Y-82494180D01*
X124275812Y-82374482D01*
X124288072Y-82250000D01*
X124288072Y-81876729D01*
X126449812Y-79714990D01*
X129810208Y-79714990D01*
X128988271Y-80536928D01*
X128474999Y-80536928D01*
X128301745Y-80553992D01*
X128135149Y-80604528D01*
X127981613Y-80686595D01*
X127847038Y-80797038D01*
X127736595Y-80931613D01*
X127654528Y-81085149D01*
X127603992Y-81251745D01*
X127586928Y-81424999D01*
X127586928Y-83175001D01*
X127603992Y-83348255D01*
X127654528Y-83514851D01*
X127736595Y-83668387D01*
X127847038Y-83802962D01*
X127981613Y-83913405D01*
X128135149Y-83995472D01*
X128301745Y-84046008D01*
X128474999Y-84063072D01*
X130325001Y-84063072D01*
X130498255Y-84046008D01*
X130664851Y-83995472D01*
X130818387Y-83913405D01*
X130952962Y-83802962D01*
X131063405Y-83668387D01*
X131145472Y-83514851D01*
X131196008Y-83348255D01*
X131213072Y-83175001D01*
X131213072Y-81424999D01*
X131196008Y-81251745D01*
X131145472Y-81085149D01*
X131063405Y-80931613D01*
X130952962Y-80797038D01*
X130911660Y-80763142D01*
X131509802Y-80165000D01*
X132404556Y-80165000D01*
X132490506Y-80235537D01*
X132498856Y-80240000D01*
X132472998Y-80240000D01*
X132472998Y-80398748D01*
X132314250Y-80240000D01*
X132012500Y-80236928D01*
X131888018Y-80249188D01*
X131768320Y-80285498D01*
X131658006Y-80344463D01*
X131561315Y-80423815D01*
X131481963Y-80520506D01*
X131422998Y-80630820D01*
X131386688Y-80750518D01*
X131374428Y-80875000D01*
X131377500Y-81314250D01*
X131536250Y-81473000D01*
X132473000Y-81473000D01*
X132473000Y-81453000D01*
X132727000Y-81453000D01*
X132727000Y-81473000D01*
X132747000Y-81473000D01*
X132747000Y-81727000D01*
X132727000Y-81727000D01*
X132727000Y-81747000D01*
X132473000Y-81747000D01*
X132473000Y-81727000D01*
X131536250Y-81727000D01*
X131377500Y-81885750D01*
X131374428Y-82325000D01*
X131386688Y-82449482D01*
X131422998Y-82569180D01*
X131481963Y-82679494D01*
X131561315Y-82776185D01*
X131658006Y-82855537D01*
X131768320Y-82914502D01*
X131888018Y-82950812D01*
X132012500Y-82963072D01*
X132314250Y-82960000D01*
X132472998Y-82801252D01*
X132472998Y-82960000D01*
X132585198Y-82960000D01*
X130331571Y-85213628D01*
X130177592Y-85183000D01*
X129902408Y-85183000D01*
X129632510Y-85236686D01*
X129378273Y-85341995D01*
X129149465Y-85494880D01*
X128954880Y-85689465D01*
X128801995Y-85918273D01*
X128770000Y-85995515D01*
X128738005Y-85918273D01*
X128585120Y-85689465D01*
X128390535Y-85494880D01*
X128161727Y-85341995D01*
X127907490Y-85236686D01*
X127637592Y-85183000D01*
X127362408Y-85183000D01*
X127092510Y-85236686D01*
X126838273Y-85341995D01*
X126609465Y-85494880D01*
X126414880Y-85689465D01*
X126261995Y-85918273D01*
X126230000Y-85995515D01*
X126198005Y-85918273D01*
X126045120Y-85689465D01*
X125850535Y-85494880D01*
X125621727Y-85341995D01*
X125367490Y-85236686D01*
X125097592Y-85183000D01*
X124822408Y-85183000D01*
X124552510Y-85236686D01*
X124298273Y-85341995D01*
X124069465Y-85494880D01*
X123874880Y-85689465D01*
X123721995Y-85918273D01*
X123690000Y-85995515D01*
X123658005Y-85918273D01*
X123505120Y-85689465D01*
X123310535Y-85494880D01*
X123081727Y-85341995D01*
X122827490Y-85236686D01*
X122557592Y-85183000D01*
X122282408Y-85183000D01*
X122012510Y-85236686D01*
X121758273Y-85341995D01*
X121529465Y-85494880D01*
X121334880Y-85689465D01*
X121181995Y-85918273D01*
X121150000Y-85995515D01*
X121118005Y-85918273D01*
X120965120Y-85689465D01*
X120770535Y-85494880D01*
X120541727Y-85341995D01*
X120287490Y-85236686D01*
X120017592Y-85183000D01*
X119742408Y-85183000D01*
X119472510Y-85236686D01*
X119218273Y-85341995D01*
X118989465Y-85494880D01*
X118794880Y-85689465D01*
X118641995Y-85918273D01*
X118612308Y-85989943D01*
X118607636Y-85976977D01*
X118545656Y-85861020D01*
X118305565Y-85794040D01*
X117519605Y-86580000D01*
X118305565Y-87365960D01*
X118545656Y-87298980D01*
X118609485Y-87163240D01*
X118641995Y-87241727D01*
X118794880Y-87470535D01*
X118989465Y-87665120D01*
X119218273Y-87818005D01*
X119472510Y-87923314D01*
X119742408Y-87977000D01*
X120017592Y-87977000D01*
X120287490Y-87923314D01*
X120541727Y-87818005D01*
X120770535Y-87665120D01*
X120965120Y-87470535D01*
X121118005Y-87241727D01*
X121150000Y-87164485D01*
X121181995Y-87241727D01*
X121334880Y-87470535D01*
X121529465Y-87665120D01*
X121660000Y-87752341D01*
X121660001Y-89042657D01*
X121660000Y-89042667D01*
X121660000Y-89421440D01*
X121656324Y-89458762D01*
X121660000Y-89496084D01*
X121660000Y-89496094D01*
X121670997Y-89607747D01*
X121714454Y-89751008D01*
X121785026Y-89883038D01*
X121811055Y-89914754D01*
X121879999Y-89998763D01*
X121909003Y-90022566D01*
X127919616Y-96033180D01*
X127919622Y-96033185D01*
X128016820Y-96130383D01*
X131797439Y-99911003D01*
X131821237Y-99940001D01*
X131861445Y-99972999D01*
X131164334Y-99972999D01*
X131127001Y-99969322D01*
X131089668Y-99972999D01*
X130978015Y-99983996D01*
X130834754Y-100027453D01*
X130702725Y-100098025D01*
X130587000Y-100192998D01*
X130563202Y-100221996D01*
X130331570Y-100453628D01*
X130177592Y-100423000D01*
X129902408Y-100423000D01*
X129632510Y-100476686D01*
X129378273Y-100581995D01*
X129149465Y-100734880D01*
X128954880Y-100929465D01*
X128801995Y-101158273D01*
X128770000Y-101235515D01*
X128738005Y-101158273D01*
X128585120Y-100929465D01*
X128390535Y-100734880D01*
X128161727Y-100581995D01*
X127907490Y-100476686D01*
X127637592Y-100423000D01*
X127362408Y-100423000D01*
X127092510Y-100476686D01*
X126838273Y-100581995D01*
X126609465Y-100734880D01*
X126414880Y-100929465D01*
X126261995Y-101158273D01*
X126230000Y-101235515D01*
X126198005Y-101158273D01*
X126045120Y-100929465D01*
X125850535Y-100734880D01*
X125621727Y-100581995D01*
X125367490Y-100476686D01*
X125097592Y-100423000D01*
X124822408Y-100423000D01*
X124552510Y-100476686D01*
X124298273Y-100581995D01*
X124069465Y-100734880D01*
X123874880Y-100929465D01*
X123721995Y-101158273D01*
X123692308Y-101229943D01*
X123687636Y-101216977D01*
X123625656Y-101101020D01*
X123385565Y-101034040D01*
X122599605Y-101820000D01*
X123385565Y-102605960D01*
X123625656Y-102538980D01*
X123689485Y-102403240D01*
X123721995Y-102481727D01*
X123874880Y-102710535D01*
X124069465Y-102905120D01*
X124298273Y-103058005D01*
X124552510Y-103163314D01*
X124822408Y-103217000D01*
X125097592Y-103217000D01*
X125367490Y-103163314D01*
X125621727Y-103058005D01*
X125850535Y-102905120D01*
X126045120Y-102710535D01*
X126198005Y-102481727D01*
X126230000Y-102404485D01*
X126261995Y-102481727D01*
X126414880Y-102710535D01*
X126609465Y-102905120D01*
X126838273Y-103058005D01*
X127092510Y-103163314D01*
X127362408Y-103217000D01*
X127637592Y-103217000D01*
X127907490Y-103163314D01*
X128161727Y-103058005D01*
X128390535Y-102905120D01*
X128585120Y-102710535D01*
X128738005Y-102481727D01*
X128770000Y-102404485D01*
X128801995Y-102481727D01*
X128954880Y-102710535D01*
X129149465Y-102905120D01*
X129378273Y-103058005D01*
X129632510Y-103163314D01*
X129902408Y-103217000D01*
X130177592Y-103217000D01*
X130447490Y-103163314D01*
X130701727Y-103058005D01*
X130930535Y-102905120D01*
X131125120Y-102710535D01*
X131278005Y-102481727D01*
X131310000Y-102404485D01*
X131341995Y-102481727D01*
X131494880Y-102710535D01*
X131689465Y-102905120D01*
X131918273Y-103058005D01*
X132172510Y-103163314D01*
X132442408Y-103217000D01*
X132717592Y-103217000D01*
X132987490Y-103163314D01*
X133241727Y-103058005D01*
X133470535Y-102905120D01*
X133665120Y-102710535D01*
X133818005Y-102481727D01*
X133850000Y-102404485D01*
X133881995Y-102481727D01*
X134034880Y-102710535D01*
X134229465Y-102905120D01*
X134458273Y-103058005D01*
X134712510Y-103163314D01*
X134982408Y-103217000D01*
X135257592Y-103217000D01*
X135527490Y-103163314D01*
X135781727Y-103058005D01*
X136010535Y-102905120D01*
X136205120Y-102710535D01*
X136358005Y-102481727D01*
X136390000Y-102404485D01*
X136421995Y-102481727D01*
X136574880Y-102710535D01*
X136769465Y-102905120D01*
X136998273Y-103058005D01*
X137252510Y-103163314D01*
X137522408Y-103217000D01*
X137797592Y-103217000D01*
X138067490Y-103163314D01*
X138321727Y-103058005D01*
X138550535Y-102905120D01*
X138745120Y-102710535D01*
X138898005Y-102481727D01*
X138930000Y-102404485D01*
X138961995Y-102481727D01*
X139114880Y-102710535D01*
X139309465Y-102905120D01*
X139538273Y-103058005D01*
X139792510Y-103163314D01*
X140062408Y-103217000D01*
X140337592Y-103217000D01*
X140607490Y-103163314D01*
X140861727Y-103058005D01*
X141090535Y-102905120D01*
X141285120Y-102710535D01*
X141438005Y-102481727D01*
X141470000Y-102404485D01*
X141501995Y-102481727D01*
X141654880Y-102710535D01*
X141849465Y-102905120D01*
X142078273Y-103058005D01*
X142332510Y-103163314D01*
X142602408Y-103217000D01*
X142877592Y-103217000D01*
X143147490Y-103163314D01*
X143401727Y-103058005D01*
X143630535Y-102905120D01*
X143825120Y-102710535D01*
X143978005Y-102481727D01*
X144083314Y-102227490D01*
X144137000Y-101957592D01*
X144137000Y-101682408D01*
X144099324Y-101492999D01*
X149050481Y-101492999D01*
X149087803Y-101496675D01*
X149125125Y-101492999D01*
X149125136Y-101492999D01*
X149236789Y-101482002D01*
X149380050Y-101438545D01*
X149512079Y-101367973D01*
X149627804Y-101273000D01*
X149651607Y-101243996D01*
X163840000Y-87055604D01*
X163840000Y-104040000D01*
X110060000Y-104040000D01*
X110060000Y-101682408D01*
X113403000Y-101682408D01*
X113403000Y-101957592D01*
X113456686Y-102227490D01*
X113561995Y-102481727D01*
X113714880Y-102710535D01*
X113909465Y-102905120D01*
X114138273Y-103058005D01*
X114392510Y-103163314D01*
X114662408Y-103217000D01*
X114937592Y-103217000D01*
X115207490Y-103163314D01*
X115461727Y-103058005D01*
X115690535Y-102905120D01*
X115885120Y-102710535D01*
X116038005Y-102481727D01*
X116070000Y-102404485D01*
X116101995Y-102481727D01*
X116254880Y-102710535D01*
X116449465Y-102905120D01*
X116678273Y-103058005D01*
X116932510Y-103163314D01*
X117202408Y-103217000D01*
X117477592Y-103217000D01*
X117747490Y-103163314D01*
X118001727Y-103058005D01*
X118230535Y-102905120D01*
X118425120Y-102710535D01*
X118578005Y-102481727D01*
X118610000Y-102404485D01*
X118641995Y-102481727D01*
X118794880Y-102710535D01*
X118989465Y-102905120D01*
X119218273Y-103058005D01*
X119472510Y-103163314D01*
X119742408Y-103217000D01*
X120017592Y-103217000D01*
X120287490Y-103163314D01*
X120541727Y-103058005D01*
X120770535Y-102905120D01*
X120890090Y-102785565D01*
X121634040Y-102785565D01*
X121701020Y-103025656D01*
X121950048Y-103142756D01*
X122217135Y-103209023D01*
X122492017Y-103221910D01*
X122764133Y-103180922D01*
X123023023Y-103087636D01*
X123138980Y-103025656D01*
X123205960Y-102785565D01*
X122420000Y-101999605D01*
X121634040Y-102785565D01*
X120890090Y-102785565D01*
X120965120Y-102710535D01*
X121118005Y-102481727D01*
X121147692Y-102410057D01*
X121152364Y-102423023D01*
X121214344Y-102538980D01*
X121454435Y-102605960D01*
X122240395Y-101820000D01*
X121454435Y-101034040D01*
X121214344Y-101101020D01*
X121150515Y-101236760D01*
X121118005Y-101158273D01*
X120965120Y-100929465D01*
X120890090Y-100854435D01*
X121634040Y-100854435D01*
X122420000Y-101640395D01*
X123205960Y-100854435D01*
X123138980Y-100614344D01*
X122889952Y-100497244D01*
X122622865Y-100430977D01*
X122347983Y-100418090D01*
X122075867Y-100459078D01*
X121816977Y-100552364D01*
X121701020Y-100614344D01*
X121634040Y-100854435D01*
X120890090Y-100854435D01*
X120770535Y-100734880D01*
X120541727Y-100581995D01*
X120287490Y-100476686D01*
X120017592Y-100423000D01*
X119742408Y-100423000D01*
X119472510Y-100476686D01*
X119218273Y-100581995D01*
X118989465Y-100734880D01*
X118794880Y-100929465D01*
X118641995Y-101158273D01*
X118610000Y-101235515D01*
X118578005Y-101158273D01*
X118425120Y-100929465D01*
X118230535Y-100734880D01*
X118001727Y-100581995D01*
X117747490Y-100476686D01*
X117477592Y-100423000D01*
X117202408Y-100423000D01*
X116932510Y-100476686D01*
X116678273Y-100581995D01*
X116449465Y-100734880D01*
X116254880Y-100929465D01*
X116101995Y-101158273D01*
X116070000Y-101235515D01*
X116038005Y-101158273D01*
X115885120Y-100929465D01*
X115690535Y-100734880D01*
X115461727Y-100581995D01*
X115207490Y-100476686D01*
X114937592Y-100423000D01*
X114662408Y-100423000D01*
X114392510Y-100476686D01*
X114138273Y-100581995D01*
X113909465Y-100734880D01*
X113714880Y-100929465D01*
X113561995Y-101158273D01*
X113456686Y-101412510D01*
X113403000Y-101682408D01*
X110060000Y-101682408D01*
X110060000Y-41660000D01*
X138773000Y-41660000D01*
X138773000Y-61023198D01*
%TA.AperFunction,Conductor*%
D29*
G36*
X138773000Y-61023198D02*
G01*
X121238804Y-43489003D01*
X121215001Y-43459999D01*
X121099276Y-43365026D01*
X120967247Y-43294454D01*
X120823986Y-43250997D01*
X120712333Y-43240000D01*
X120712322Y-43240000D01*
X120675000Y-43236324D01*
X120637678Y-43240000D01*
X113917268Y-43240000D01*
X113881847Y-43154485D01*
X113686500Y-42862129D01*
X113437871Y-42613500D01*
X113145515Y-42418153D01*
X112820665Y-42283596D01*
X112475807Y-42215000D01*
X112124193Y-42215000D01*
X111779335Y-42283596D01*
X111454485Y-42418153D01*
X111162129Y-42613500D01*
X110913500Y-42862129D01*
X110718153Y-43154485D01*
X110583596Y-43479335D01*
X110515000Y-43824193D01*
X110515000Y-44175807D01*
X110583596Y-44520665D01*
X110619018Y-44606181D01*
X110314001Y-44911198D01*
X110284998Y-44935000D01*
X110229870Y-45002175D01*
X110190025Y-45050725D01*
X110123211Y-45175724D01*
X110119453Y-45182755D01*
X110075996Y-45326016D01*
X110064999Y-45437669D01*
X110064999Y-45437679D01*
X110061323Y-45475001D01*
X110064999Y-45512323D01*
X110065000Y-82567666D01*
X110061323Y-82604999D01*
X110065000Y-82642332D01*
X110065133Y-82643677D01*
X110075997Y-82753984D01*
X110119453Y-82897245D01*
X110190025Y-83029275D01*
X110226966Y-83074287D01*
X110284999Y-83145000D01*
X110313997Y-83168798D01*
X113433628Y-86288430D01*
X113403000Y-86442408D01*
X113403000Y-86717592D01*
X113456686Y-86987490D01*
X113561995Y-87241727D01*
X113714880Y-87470535D01*
X113909465Y-87665120D01*
X114138273Y-87818005D01*
X114392510Y-87923314D01*
X114662408Y-87977000D01*
X114937592Y-87977000D01*
X115207490Y-87923314D01*
X115461727Y-87818005D01*
X115690535Y-87665120D01*
X115810090Y-87545565D01*
X116554040Y-87545565D01*
X116621020Y-87785656D01*
X116870048Y-87902756D01*
X117137135Y-87969023D01*
X117412017Y-87981910D01*
X117684133Y-87940922D01*
X117943023Y-87847636D01*
X118058980Y-87785656D01*
X118125960Y-87545565D01*
X117340000Y-86759605D01*
X116554040Y-87545565D01*
X115810090Y-87545565D01*
X115885120Y-87470535D01*
X116038005Y-87241727D01*
X116067692Y-87170057D01*
X116072364Y-87183023D01*
X116134344Y-87298980D01*
X116374435Y-87365960D01*
X117160395Y-86580000D01*
X116374435Y-85794040D01*
X116134344Y-85861020D01*
X116070515Y-85996760D01*
X116038005Y-85918273D01*
X115885120Y-85689465D01*
X115810090Y-85614435D01*
X116554040Y-85614435D01*
X117340000Y-86400395D01*
X118125960Y-85614435D01*
X118058980Y-85374344D01*
X117809952Y-85257244D01*
X117542865Y-85190977D01*
X117267983Y-85178090D01*
X116995867Y-85219078D01*
X116736977Y-85312364D01*
X116621020Y-85374344D01*
X116554040Y-85614435D01*
X115810090Y-85614435D01*
X115690535Y-85494880D01*
X115461727Y-85341995D01*
X115207490Y-85236686D01*
X114937592Y-85183000D01*
X114662408Y-85183000D01*
X114508430Y-85213628D01*
X111584999Y-82290198D01*
X111584999Y-82250000D01*
X113711928Y-82250000D01*
X113724188Y-82374482D01*
X113760498Y-82494180D01*
X113819463Y-82604494D01*
X113898815Y-82701185D01*
X113995506Y-82780537D01*
X114105820Y-82839502D01*
X114225518Y-82875812D01*
X114350000Y-82888072D01*
X114814250Y-82885000D01*
X114973000Y-82726250D01*
X114973000Y-81627000D01*
X115227000Y-81627000D01*
X115227000Y-82726250D01*
X115385750Y-82885000D01*
X115850000Y-82888072D01*
X115974482Y-82875812D01*
X116094180Y-82839502D01*
X116204494Y-82780537D01*
X116301185Y-82701185D01*
X116380537Y-82604494D01*
X116439502Y-82494180D01*
X116475812Y-82374482D01*
X116488072Y-82250000D01*
X116485000Y-81785750D01*
X116326250Y-81627000D01*
X115227000Y-81627000D01*
X114973000Y-81627000D01*
X113873750Y-81627000D01*
X113715000Y-81785750D01*
X113711928Y-82250000D01*
X111584999Y-82250000D01*
X111584999Y-80750000D01*
X113711928Y-80750000D01*
X113715000Y-81214250D01*
X113873750Y-81373000D01*
X114973000Y-81373000D01*
X114973000Y-80273750D01*
X115227000Y-80273750D01*
X115227000Y-81373000D01*
X116326250Y-81373000D01*
X116485000Y-81214250D01*
X116488072Y-80750000D01*
X116475812Y-80625518D01*
X116439502Y-80505820D01*
X116380537Y-80395506D01*
X116301185Y-80298815D01*
X116204494Y-80219463D01*
X116094180Y-80160498D01*
X115974482Y-80124188D01*
X115850000Y-80111928D01*
X115385750Y-80115000D01*
X115227000Y-80273750D01*
X114973000Y-80273750D01*
X114814250Y-80115000D01*
X114350000Y-80111928D01*
X114225518Y-80124188D01*
X114105820Y-80160498D01*
X113995506Y-80219463D01*
X113898815Y-80298815D01*
X113819463Y-80395506D01*
X113760498Y-80505820D01*
X113724188Y-80625518D01*
X113711928Y-80750000D01*
X111584999Y-80750000D01*
X111584999Y-75578003D01*
X114237573Y-75578003D01*
X114317947Y-75875368D01*
X114516388Y-76299439D01*
X114793748Y-76676648D01*
X115139369Y-76992498D01*
X115539968Y-77234852D01*
X115980150Y-77394396D01*
X116443000Y-77465000D01*
X118193000Y-77465000D01*
X118193000Y-75207000D01*
X118447000Y-75207000D01*
X118447000Y-77465000D01*
X120197000Y-77465000D01*
X120659850Y-77394396D01*
X121100032Y-77234852D01*
X121500631Y-76992498D01*
X121846252Y-76676648D01*
X122123612Y-76299439D01*
X122322053Y-75875368D01*
X122402427Y-75578003D01*
X122292625Y-75207000D01*
X118447000Y-75207000D01*
X118193000Y-75207000D01*
X114347375Y-75207000D01*
X114237573Y-75578003D01*
X111584999Y-75578003D01*
X111584999Y-74581997D01*
X114237573Y-74581997D01*
X114347375Y-74953000D01*
X118193000Y-74953000D01*
X118193000Y-72695000D01*
X118447000Y-72695000D01*
X118447000Y-74953000D01*
X122292625Y-74953000D01*
X122402427Y-74581997D01*
X122322053Y-74284632D01*
X122123612Y-73860561D01*
X121846252Y-73483352D01*
X121500631Y-73167502D01*
X121100032Y-72925148D01*
X121000408Y-72889039D01*
X121558096Y-72889039D01*
X121575633Y-72971818D01*
X121686285Y-73231646D01*
X121845500Y-73464895D01*
X122047161Y-73662601D01*
X122283517Y-73817166D01*
X122545486Y-73922650D01*
X122823000Y-73975000D01*
X123273000Y-73975000D01*
X123273000Y-72667000D01*
X123527000Y-72667000D01*
X123527000Y-73975000D01*
X123977000Y-73975000D01*
X124254514Y-73922650D01*
X124516483Y-73817166D01*
X124752839Y-73662601D01*
X124954500Y-73464895D01*
X125113715Y-73231646D01*
X125224367Y-72971818D01*
X125241904Y-72889039D01*
X125119915Y-72667000D01*
X123527000Y-72667000D01*
X123273000Y-72667000D01*
X121680085Y-72667000D01*
X121558096Y-72889039D01*
X121000408Y-72889039D01*
X120659850Y-72765604D01*
X120197000Y-72695000D01*
X118447000Y-72695000D01*
X118193000Y-72695000D01*
X116443000Y-72695000D01*
X115980150Y-72765604D01*
X115539968Y-72925148D01*
X115139369Y-73167502D01*
X114793748Y-73483352D01*
X114516388Y-73860561D01*
X114317947Y-74284632D01*
X114237573Y-74581997D01*
X111584999Y-74581997D01*
X111584999Y-65418003D01*
X114237573Y-65418003D01*
X114317947Y-65715368D01*
X114516388Y-66139439D01*
X114793748Y-66516648D01*
X115139369Y-66832498D01*
X115539968Y-67074852D01*
X115980150Y-67234396D01*
X116443000Y-67305000D01*
X118193000Y-67305000D01*
X118193000Y-65047000D01*
X118447000Y-65047000D01*
X118447000Y-67305000D01*
X120197000Y-67305000D01*
X120659850Y-67234396D01*
X121100032Y-67074852D01*
X121500631Y-66832498D01*
X121846252Y-66516648D01*
X122123612Y-66139439D01*
X122322053Y-65715368D01*
X122402427Y-65418003D01*
X122292625Y-65047000D01*
X118447000Y-65047000D01*
X118193000Y-65047000D01*
X114347375Y-65047000D01*
X114237573Y-65418003D01*
X111584999Y-65418003D01*
X111584999Y-64421997D01*
X114237573Y-64421997D01*
X114347375Y-64793000D01*
X118193000Y-64793000D01*
X118193000Y-62535000D01*
X118447000Y-62535000D01*
X118447000Y-64793000D01*
X122292625Y-64793000D01*
X122402427Y-64421997D01*
X122322053Y-64124632D01*
X122123612Y-63700561D01*
X121846252Y-63323352D01*
X121519778Y-63024999D01*
X127986928Y-63024999D01*
X127986928Y-64775001D01*
X128003992Y-64948255D01*
X128054528Y-65114851D01*
X128136595Y-65268387D01*
X128247038Y-65402962D01*
X128381613Y-65513405D01*
X128535149Y-65595472D01*
X128701745Y-65646008D01*
X128874999Y-65663072D01*
X130925001Y-65663072D01*
X131098255Y-65646008D01*
X131264851Y-65595472D01*
X131418387Y-65513405D01*
X131526109Y-65425000D01*
X133545130Y-65425000D01*
X133519188Y-65510518D01*
X133506928Y-65635000D01*
X133510000Y-65649250D01*
X133668750Y-65808000D01*
X135003000Y-65808000D01*
X135003000Y-65788000D01*
X135257000Y-65788000D01*
X135257000Y-65808000D01*
X136591250Y-65808000D01*
X136750000Y-65649250D01*
X136753072Y-65635000D01*
X136740812Y-65510518D01*
X136704502Y-65390820D01*
X136655957Y-65300000D01*
X136704502Y-65209180D01*
X136740812Y-65089482D01*
X136753072Y-64965000D01*
X136753072Y-64365000D01*
X136740812Y-64240518D01*
X136704502Y-64120820D01*
X136655957Y-64030000D01*
X136704502Y-63939180D01*
X136740812Y-63819482D01*
X136753072Y-63695000D01*
X136753072Y-63095000D01*
X136740812Y-62970518D01*
X136704502Y-62850820D01*
X136645537Y-62740506D01*
X136566185Y-62643815D01*
X136469494Y-62564463D01*
X136359180Y-62505498D01*
X136239482Y-62469188D01*
X136115000Y-62456928D01*
X134145000Y-62456928D01*
X134020518Y-62469188D01*
X133900820Y-62505498D01*
X133790506Y-62564463D01*
X133693815Y-62643815D01*
X133614463Y-62740506D01*
X133555498Y-62850820D01*
X133519188Y-62970518D01*
X133506928Y-63095000D01*
X133506928Y-63695000D01*
X133519188Y-63819482D01*
X133545130Y-63905000D01*
X131813072Y-63905000D01*
X131813072Y-63024999D01*
X131796008Y-62851745D01*
X131745472Y-62685149D01*
X131663405Y-62531613D01*
X131552962Y-62397038D01*
X131418387Y-62286595D01*
X131264851Y-62204528D01*
X131098255Y-62153992D01*
X130925001Y-62136928D01*
X128874999Y-62136928D01*
X128701745Y-62153992D01*
X128535149Y-62204528D01*
X128381613Y-62286595D01*
X128247038Y-62397038D01*
X128136595Y-62531613D01*
X128054528Y-62685149D01*
X128003992Y-62851745D01*
X127986928Y-63024999D01*
X121519778Y-63024999D01*
X121500631Y-63007502D01*
X121100032Y-62765148D01*
X120659850Y-62605604D01*
X120197000Y-62535000D01*
X118447000Y-62535000D01*
X118193000Y-62535000D01*
X116443000Y-62535000D01*
X115980150Y-62605604D01*
X115539968Y-62765148D01*
X115139369Y-63007502D01*
X114793748Y-63323352D01*
X114516388Y-63700561D01*
X114317947Y-64124632D01*
X114237573Y-64421997D01*
X111584999Y-64421997D01*
X111584999Y-61037756D01*
X111666296Y-61077961D01*
X112005826Y-61169349D01*
X112356661Y-61192741D01*
X112705319Y-61147240D01*
X113038400Y-61034594D01*
X113248882Y-60922090D01*
X113362744Y-60642349D01*
X112300000Y-59579605D01*
X112285858Y-59593748D01*
X112106253Y-59414143D01*
X112120395Y-59400000D01*
X112479605Y-59400000D01*
X113542349Y-60462744D01*
X113822090Y-60348882D01*
X113977961Y-60033704D01*
X114069349Y-59694174D01*
X114092741Y-59343339D01*
X114047240Y-58994681D01*
X113934594Y-58661600D01*
X113822090Y-58451118D01*
X113542349Y-58337256D01*
X112479605Y-59400000D01*
X112120395Y-59400000D01*
X112106253Y-59385858D01*
X112285858Y-59206253D01*
X112300000Y-59220395D01*
X113362744Y-58157651D01*
X113248882Y-57877910D01*
X112933704Y-57722039D01*
X112594174Y-57630651D01*
X112243339Y-57607259D01*
X111894681Y-57652760D01*
X111584999Y-57757493D01*
X111584999Y-45789802D01*
X111693819Y-45680982D01*
X111779335Y-45716404D01*
X112124193Y-45785000D01*
X112475807Y-45785000D01*
X112820665Y-45716404D01*
X113145515Y-45581847D01*
X113437871Y-45386500D01*
X113686500Y-45137871D01*
X113881847Y-44845515D01*
X113917268Y-44760000D01*
X120360199Y-44760000D01*
X138176497Y-62576299D01*
X138176502Y-62576303D01*
X138485146Y-62884947D01*
X138459188Y-62970518D01*
X138446928Y-63095000D01*
X138446928Y-63695000D01*
X138459188Y-63819482D01*
X138495498Y-63939180D01*
X138544043Y-64030000D01*
X138495498Y-64120820D01*
X138459188Y-64240518D01*
X138446928Y-64365000D01*
X138446928Y-64965000D01*
X138459188Y-65089482D01*
X138495498Y-65209180D01*
X138544043Y-65300000D01*
X138495498Y-65390820D01*
X138459188Y-65510518D01*
X138446928Y-65635000D01*
X138450000Y-65649250D01*
X138608750Y-65808000D01*
X139943000Y-65808000D01*
X139943000Y-65788000D01*
X140197000Y-65788000D01*
X140197000Y-65808000D01*
X141531250Y-65808000D01*
X141690000Y-65649250D01*
X141693072Y-65635000D01*
X141680812Y-65510518D01*
X141644502Y-65390820D01*
X141595957Y-65300000D01*
X141644502Y-65209180D01*
X141680812Y-65089482D01*
X141687162Y-65025000D01*
X143086928Y-65025000D01*
X143099188Y-65149482D01*
X143135498Y-65269180D01*
X143194463Y-65379494D01*
X143273815Y-65476185D01*
X143370506Y-65555537D01*
X143480820Y-65614502D01*
X143600518Y-65650812D01*
X143725000Y-65663072D01*
X144714250Y-65660000D01*
X144873000Y-65501250D01*
X144873000Y-64027000D01*
X145127000Y-64027000D01*
X145127000Y-65501250D01*
X145285750Y-65660000D01*
X146275000Y-65663072D01*
X146399482Y-65650812D01*
X146519180Y-65614502D01*
X146629494Y-65555537D01*
X146726185Y-65476185D01*
X146805537Y-65379494D01*
X146864502Y-65269180D01*
X146900812Y-65149482D01*
X146913072Y-65025000D01*
X146910000Y-64185750D01*
X146751250Y-64027000D01*
X145127000Y-64027000D01*
X144873000Y-64027000D01*
X143248750Y-64027000D01*
X143090000Y-64185750D01*
X143086928Y-65025000D01*
X141687162Y-65025000D01*
X141693072Y-64965000D01*
X141693072Y-64365000D01*
X141680812Y-64240518D01*
X141644502Y-64120820D01*
X141595957Y-64030000D01*
X141644502Y-63939180D01*
X141680812Y-63819482D01*
X141693072Y-63695000D01*
X141693072Y-63209990D01*
X143088520Y-63209990D01*
X143090000Y-63614250D01*
X143248750Y-63773000D01*
X144873000Y-63773000D01*
X144873000Y-63753000D01*
X145127000Y-63753000D01*
X145127000Y-63773000D01*
X146751250Y-63773000D01*
X146910000Y-63614250D01*
X146911480Y-63209990D01*
X147035189Y-63209990D01*
X147376847Y-63551649D01*
X147400932Y-63672729D01*
X147471414Y-63842889D01*
X147573738Y-63996028D01*
X147703972Y-64126262D01*
X147857111Y-64228586D01*
X148027271Y-64299068D01*
X148207911Y-64335000D01*
X148392089Y-64335000D01*
X148572729Y-64299068D01*
X148742889Y-64228586D01*
X148896028Y-64126262D01*
X149026262Y-63996028D01*
X149128586Y-63842889D01*
X149199068Y-63672729D01*
X149235000Y-63492089D01*
X149235000Y-63307911D01*
X149199068Y-63127271D01*
X149128586Y-62957111D01*
X149026262Y-62803972D01*
X148896028Y-62673738D01*
X148742889Y-62571414D01*
X148572729Y-62500932D01*
X148451649Y-62476847D01*
X147913794Y-61938992D01*
X147889991Y-61909989D01*
X147774266Y-61815016D01*
X147759239Y-61806984D01*
X152315623Y-61806984D01*
X152245506Y-61844463D01*
X152148815Y-61923815D01*
X152069463Y-62020506D01*
X152010498Y-62130820D01*
X151974188Y-62250518D01*
X151961928Y-62375000D01*
X151965000Y-62664250D01*
X152123750Y-62823000D01*
X153173000Y-62823000D01*
X153173000Y-62803000D01*
X153427000Y-62803000D01*
X153427000Y-62823000D01*
X154476250Y-62823000D01*
X154635000Y-62664250D01*
X154638072Y-62375000D01*
X154625812Y-62250518D01*
X154589502Y-62130820D01*
X154530537Y-62020506D01*
X154451185Y-61923815D01*
X154354494Y-61844463D01*
X154284377Y-61806984D01*
X163840001Y-61806984D01*
X163840001Y-65512656D01*
X163485750Y-65515000D01*
X163327000Y-65673750D01*
X163327000Y-66773000D01*
X163347000Y-66773000D01*
X163347000Y-67027000D01*
X163327000Y-67027000D01*
X163327000Y-68126250D01*
X163485750Y-68285000D01*
X163840001Y-68287344D01*
X163840000Y-79780197D01*
X161884999Y-77825196D01*
X161884999Y-76814750D01*
X161973110Y-76841476D01*
X162203000Y-76720155D01*
X162203000Y-75527000D01*
X162457000Y-75527000D01*
X162457000Y-76720155D01*
X162686890Y-76841476D01*
X162834099Y-76796825D01*
X163096920Y-76671641D01*
X163330269Y-76497588D01*
X163525178Y-76281355D01*
X163674157Y-76031252D01*
X163771481Y-75756891D01*
X163650814Y-75527000D01*
X162457000Y-75527000D01*
X162203000Y-75527000D01*
X162183000Y-75527000D01*
X162183000Y-75273000D01*
X162203000Y-75273000D01*
X162203000Y-74079845D01*
X162457000Y-74079845D01*
X162457000Y-75273000D01*
X163650814Y-75273000D01*
X163771481Y-75043109D01*
X163674157Y-74768748D01*
X163525178Y-74518645D01*
X163330269Y-74302412D01*
X163096920Y-74128359D01*
X162834099Y-74003175D01*
X162686890Y-73958524D01*
X162457000Y-74079845D01*
X162203000Y-74079845D01*
X161973110Y-73958524D01*
X161884999Y-73985250D01*
X161884999Y-73123850D01*
X161943110Y-73141476D01*
X162173000Y-73020155D01*
X162173000Y-71827000D01*
X162427000Y-71827000D01*
X162427000Y-73020155D01*
X162656890Y-73141476D01*
X162804099Y-73096825D01*
X163066920Y-72971641D01*
X163300269Y-72797588D01*
X163495178Y-72581355D01*
X163644157Y-72331252D01*
X163741481Y-72056891D01*
X163620814Y-71827000D01*
X162427000Y-71827000D01*
X162173000Y-71827000D01*
X162153000Y-71827000D01*
X162153000Y-71573000D01*
X162173000Y-71573000D01*
X162173000Y-70379845D01*
X162427000Y-70379845D01*
X162427000Y-71573000D01*
X163620814Y-71573000D01*
X163741481Y-71343109D01*
X163644157Y-71068748D01*
X163495178Y-70818645D01*
X163300269Y-70602412D01*
X163066920Y-70428359D01*
X162804099Y-70303175D01*
X162656890Y-70258524D01*
X162427000Y-70379845D01*
X162173000Y-70379845D01*
X161943110Y-70258524D01*
X161795901Y-70303175D01*
X161739066Y-70330246D01*
X161665000Y-70239996D01*
X161636003Y-70216199D01*
X160333807Y-68914004D01*
X160310004Y-68885000D01*
X160194279Y-68790027D01*
X160062250Y-68719455D01*
X159918989Y-68675998D01*
X159807336Y-68665001D01*
X159807325Y-68665001D01*
X159770003Y-68661325D01*
X159732681Y-68665001D01*
X154638072Y-68665001D01*
X154638072Y-68569737D01*
X154767237Y-68530556D01*
X154899266Y-68459984D01*
X155014991Y-68365011D01*
X155038793Y-68336008D01*
X155086729Y-68288072D01*
X156150000Y-68288072D01*
X156274482Y-68275812D01*
X156394180Y-68239502D01*
X156504494Y-68180537D01*
X156601185Y-68101185D01*
X156680537Y-68004494D01*
X156739502Y-67894180D01*
X156775812Y-67774482D01*
X156788072Y-67650000D01*
X161811928Y-67650000D01*
X161824188Y-67774482D01*
X161860498Y-67894180D01*
X161919463Y-68004494D01*
X161998815Y-68101185D01*
X162095506Y-68180537D01*
X162205820Y-68239502D01*
X162325518Y-68275812D01*
X162450000Y-68288072D01*
X162914250Y-68285000D01*
X163073000Y-68126250D01*
X163073000Y-67027000D01*
X161973750Y-67027000D01*
X161815000Y-67185750D01*
X161811928Y-67650000D01*
X156788072Y-67650000D01*
X156788072Y-66150000D01*
X161811928Y-66150000D01*
X161815000Y-66614250D01*
X161973750Y-66773000D01*
X163073000Y-66773000D01*
X163073000Y-65673750D01*
X162914250Y-65515000D01*
X162450000Y-65511928D01*
X162325518Y-65524188D01*
X162205820Y-65560498D01*
X162095506Y-65619463D01*
X161998815Y-65698815D01*
X161919463Y-65795506D01*
X161860498Y-65905820D01*
X161824188Y-66025518D01*
X161811928Y-66150000D01*
X156788072Y-66150000D01*
X156775812Y-66025518D01*
X156739502Y-65905820D01*
X156680537Y-65795506D01*
X156601185Y-65698815D01*
X156504494Y-65619463D01*
X156394180Y-65560498D01*
X156274482Y-65524188D01*
X156150000Y-65511928D01*
X154650000Y-65511928D01*
X154615840Y-65515292D01*
X154621008Y-65498255D01*
X154638072Y-65325001D01*
X154638072Y-64674999D01*
X154621008Y-64501745D01*
X154570472Y-64335149D01*
X154488405Y-64181613D01*
X154377962Y-64047038D01*
X154371406Y-64041658D01*
X154451185Y-63976185D01*
X154530537Y-63879494D01*
X154589502Y-63769180D01*
X154625812Y-63649482D01*
X154638072Y-63525000D01*
X154635000Y-63235750D01*
X154476250Y-63077000D01*
X153427000Y-63077000D01*
X153427000Y-63097000D01*
X153173000Y-63097000D01*
X153173000Y-63077000D01*
X152123750Y-63077000D01*
X151965000Y-63235750D01*
X151961928Y-63525000D01*
X151974188Y-63649482D01*
X152010498Y-63769180D01*
X152069463Y-63879494D01*
X152148815Y-63976185D01*
X152228594Y-64041658D01*
X152222038Y-64047038D01*
X152111595Y-64181613D01*
X152029528Y-64335149D01*
X151978992Y-64501745D01*
X151961928Y-64674999D01*
X151961928Y-65325001D01*
X151978992Y-65498255D01*
X152029528Y-65664851D01*
X152111595Y-65818387D01*
X152209349Y-65937500D01*
X152111595Y-66056613D01*
X152029528Y-66210149D01*
X151978992Y-66376745D01*
X151961928Y-66549999D01*
X151961928Y-67250001D01*
X151978992Y-67423255D01*
X152004538Y-67507470D01*
X148549004Y-70963005D01*
X148520000Y-70986808D01*
X148468959Y-71049002D01*
X148425027Y-71102533D01*
X148368120Y-71208998D01*
X148354455Y-71234563D01*
X148310998Y-71377824D01*
X148300001Y-71489477D01*
X148300001Y-71489487D01*
X148296325Y-71526809D01*
X148300001Y-71564132D01*
X148300002Y-77104463D01*
X148231415Y-77207111D01*
X148160933Y-77377271D01*
X148125001Y-77557911D01*
X148125001Y-77742089D01*
X148160933Y-77922729D01*
X148231415Y-78092889D01*
X148333739Y-78246028D01*
X148463973Y-78376262D01*
X148617112Y-78478586D01*
X148787272Y-78549068D01*
X148967912Y-78585000D01*
X149152090Y-78585000D01*
X149332730Y-78549068D01*
X149502890Y-78478586D01*
X149656029Y-78376262D01*
X149786263Y-78246028D01*
X149888587Y-78092889D01*
X149959069Y-77922729D01*
X149995001Y-77742089D01*
X149995001Y-77557911D01*
X149959069Y-77377271D01*
X149888587Y-77207111D01*
X149820001Y-77104465D01*
X149820001Y-71841610D01*
X152044239Y-69617373D01*
X152111595Y-69743387D01*
X152222038Y-69877962D01*
X152356613Y-69988405D01*
X152510149Y-70070472D01*
X152676745Y-70121008D01*
X152849999Y-70138072D01*
X153557561Y-70138072D01*
X153676015Y-70174004D01*
X153825001Y-70188678D01*
X153862334Y-70185001D01*
X159455202Y-70185001D01*
X159482129Y-70211928D01*
X158910000Y-70211928D01*
X158785518Y-70224188D01*
X158665820Y-70260498D01*
X158555506Y-70319463D01*
X158458815Y-70398815D01*
X158379463Y-70495506D01*
X158320498Y-70605820D01*
X158298487Y-70678380D01*
X158166632Y-70546525D01*
X157923411Y-70384010D01*
X157653158Y-70272068D01*
X157366260Y-70215000D01*
X157073740Y-70215000D01*
X156786842Y-70272068D01*
X156516589Y-70384010D01*
X156273368Y-70546525D01*
X156066525Y-70753368D01*
X155950000Y-70927760D01*
X155833475Y-70753368D01*
X155626632Y-70546525D01*
X155383411Y-70384010D01*
X155113158Y-70272068D01*
X154826260Y-70215000D01*
X154533740Y-70215000D01*
X154246842Y-70272068D01*
X153976589Y-70384010D01*
X153733368Y-70546525D01*
X153526525Y-70753368D01*
X153364010Y-70996589D01*
X153252068Y-71266842D01*
X153195000Y-71553740D01*
X153195000Y-71846260D01*
X153238790Y-72066408D01*
X152043271Y-73261928D01*
X151199999Y-73261928D01*
X151026745Y-73278992D01*
X150860149Y-73329528D01*
X150706613Y-73411595D01*
X150572038Y-73522038D01*
X150461595Y-73656613D01*
X150379528Y-73810149D01*
X150328992Y-73976745D01*
X150311928Y-74149999D01*
X150311928Y-74850001D01*
X150328992Y-75023255D01*
X150379528Y-75189851D01*
X150461595Y-75343387D01*
X150572038Y-75477962D01*
X150598891Y-75500000D01*
X150572038Y-75522038D01*
X150461595Y-75656613D01*
X150379528Y-75810149D01*
X150328992Y-75976745D01*
X150311928Y-76149999D01*
X150311928Y-76850001D01*
X150328992Y-77023255D01*
X150379528Y-77189851D01*
X150461595Y-77343387D01*
X150572038Y-77477962D01*
X150706613Y-77588405D01*
X150860149Y-77670472D01*
X151026745Y-77721008D01*
X151199999Y-77738072D01*
X152100001Y-77738072D01*
X152273255Y-77721008D01*
X152439851Y-77670472D01*
X152593387Y-77588405D01*
X152725000Y-77480393D01*
X152856613Y-77588405D01*
X153010149Y-77670472D01*
X153176745Y-77721008D01*
X153349999Y-77738072D01*
X153837126Y-77738072D01*
X150785209Y-80789990D01*
X148514330Y-80789990D01*
X148477007Y-80786314D01*
X148439684Y-80789990D01*
X148439675Y-80789990D01*
X148328022Y-80800987D01*
X148184761Y-80844444D01*
X148052732Y-80915016D01*
X148052730Y-80915017D01*
X148052731Y-80915017D01*
X147966004Y-80986191D01*
X147966000Y-80986195D01*
X147937007Y-81009989D01*
X147913213Y-81038982D01*
X146612177Y-82340020D01*
X143885588Y-82340020D01*
X143921008Y-82223255D01*
X143938072Y-82050001D01*
X143938072Y-81149999D01*
X143921008Y-80976745D01*
X143896035Y-80894421D01*
X143970506Y-80955537D01*
X144080820Y-81014502D01*
X144200518Y-81050812D01*
X144325000Y-81063072D01*
X145214250Y-81060000D01*
X145373000Y-80901250D01*
X145373000Y-79427000D01*
X145627000Y-79427000D01*
X145627000Y-80901250D01*
X145785750Y-81060000D01*
X146675000Y-81063072D01*
X146799482Y-81050812D01*
X146919180Y-81014502D01*
X147029494Y-80955537D01*
X147126185Y-80876185D01*
X147205537Y-80779494D01*
X147264502Y-80669180D01*
X147300812Y-80549482D01*
X147313072Y-80425000D01*
X147310000Y-79585750D01*
X147151250Y-79427000D01*
X145627000Y-79427000D01*
X145373000Y-79427000D01*
X143848750Y-79427000D01*
X143690000Y-79585750D01*
X143686928Y-80425000D01*
X143699011Y-80547686D01*
X143677962Y-80522038D01*
X143543387Y-80411595D01*
X143460000Y-80367024D01*
X143460000Y-79597333D01*
X143463677Y-79560000D01*
X143460000Y-79522667D01*
X143460000Y-79449477D01*
X143449003Y-79337824D01*
X143405546Y-79194563D01*
X143334974Y-79062534D01*
X143240001Y-78946809D01*
X143124276Y-78851836D01*
X143000451Y-78785649D01*
X142389802Y-78175000D01*
X143686928Y-78175000D01*
X143690000Y-79014250D01*
X143848750Y-79173000D01*
X145373000Y-79173000D01*
X145373000Y-77698750D01*
X145627000Y-77698750D01*
X145627000Y-79173000D01*
X147151250Y-79173000D01*
X147310000Y-79014250D01*
X147313072Y-78175000D01*
X147300812Y-78050518D01*
X147264502Y-77930820D01*
X147205537Y-77820506D01*
X147126185Y-77723815D01*
X147029494Y-77644463D01*
X146919180Y-77585498D01*
X146799482Y-77549188D01*
X146675000Y-77536928D01*
X145785750Y-77540000D01*
X145627000Y-77698750D01*
X145373000Y-77698750D01*
X145214250Y-77540000D01*
X144325000Y-77536928D01*
X144200518Y-77549188D01*
X144080820Y-77585498D01*
X143970506Y-77644463D01*
X143873815Y-77723815D01*
X143794463Y-77820506D01*
X143735498Y-77930820D01*
X143699188Y-78050518D01*
X143686928Y-78175000D01*
X142389802Y-78175000D01*
X140568804Y-76354003D01*
X140545001Y-76324999D01*
X140429276Y-76230026D01*
X140325572Y-76174594D01*
X140344502Y-76139180D01*
X140380812Y-76019482D01*
X140393072Y-75895000D01*
X140393072Y-75295000D01*
X140380812Y-75170518D01*
X140344502Y-75050820D01*
X140292250Y-74953064D01*
X140362667Y-74960000D01*
X140362677Y-74960000D01*
X140400000Y-74963676D01*
X140437323Y-74960000D01*
X143686928Y-74960000D01*
X143686928Y-75075001D01*
X143703992Y-75248255D01*
X143754528Y-75414851D01*
X143836595Y-75568387D01*
X143947038Y-75702962D01*
X144081613Y-75813405D01*
X144235149Y-75895472D01*
X144401745Y-75946008D01*
X144574999Y-75963072D01*
X146425001Y-75963072D01*
X146598255Y-75946008D01*
X146764851Y-75895472D01*
X146918387Y-75813405D01*
X147052962Y-75702962D01*
X147163405Y-75568387D01*
X147245472Y-75414851D01*
X147296008Y-75248255D01*
X147313072Y-75075001D01*
X147313072Y-73324999D01*
X147296008Y-73151745D01*
X147245472Y-72985149D01*
X147163405Y-72831613D01*
X147052962Y-72697038D01*
X146918387Y-72586595D01*
X146764851Y-72504528D01*
X146598255Y-72453992D01*
X146425001Y-72436928D01*
X144574999Y-72436928D01*
X144401745Y-72453992D01*
X144235149Y-72504528D01*
X144081613Y-72586595D01*
X143947038Y-72697038D01*
X143836595Y-72831613D01*
X143754528Y-72985149D01*
X143703992Y-73151745D01*
X143686928Y-73324999D01*
X143686928Y-73440000D01*
X142597879Y-73440000D01*
X142597500Y-73385750D01*
X142438750Y-73227000D01*
X141502000Y-73227000D01*
X141502000Y-73247000D01*
X141248000Y-73247000D01*
X141248000Y-73227000D01*
X141228000Y-73227000D01*
X141228000Y-72973000D01*
X141248000Y-72973000D01*
X141248000Y-71898750D01*
X141502000Y-71898750D01*
X141502000Y-72973000D01*
X142438750Y-72973000D01*
X142597500Y-72814250D01*
X142600572Y-72375000D01*
X142588312Y-72250518D01*
X142552002Y-72130820D01*
X142493037Y-72020506D01*
X142413685Y-71923815D01*
X142316994Y-71844463D01*
X142206680Y-71785498D01*
X142086982Y-71749188D01*
X141962500Y-71736928D01*
X141660750Y-71740000D01*
X141502000Y-71898750D01*
X141248000Y-71898750D01*
X141089250Y-71740000D01*
X140787500Y-71736928D01*
X140663018Y-71749188D01*
X140543320Y-71785498D01*
X140433006Y-71844463D01*
X140336315Y-71923815D01*
X140270842Y-72003594D01*
X140265462Y-71997038D01*
X140130886Y-71886595D01*
X140060000Y-71848706D01*
X140060000Y-71445535D01*
X140128586Y-71342889D01*
X140199068Y-71172729D01*
X140235000Y-70992089D01*
X140235000Y-70807911D01*
X140199068Y-70627271D01*
X140128586Y-70457111D01*
X140026262Y-70303972D01*
X139896028Y-70173738D01*
X139742889Y-70071414D01*
X139572729Y-70000932D01*
X139392089Y-69965000D01*
X139207911Y-69965000D01*
X139027271Y-70000932D01*
X138857111Y-70071414D01*
X138703972Y-70173738D01*
X138573738Y-70303972D01*
X138471414Y-70457111D01*
X138400932Y-70627271D01*
X138365000Y-70807911D01*
X138365000Y-70992089D01*
X138400932Y-71172729D01*
X138471414Y-71342889D01*
X138540001Y-71445537D01*
X138540001Y-71848705D01*
X138469114Y-71886595D01*
X138334538Y-71997038D01*
X138295992Y-72044007D01*
X138277962Y-72022038D01*
X138143387Y-71911595D01*
X137989851Y-71829528D01*
X137823255Y-71778992D01*
X137650001Y-71761928D01*
X136985010Y-71761928D01*
X136985010Y-71364791D01*
X140206730Y-68143072D01*
X141055000Y-68143072D01*
X141179482Y-68130812D01*
X141299180Y-68094502D01*
X141409494Y-68035537D01*
X141495444Y-67965000D01*
X141590199Y-67965000D01*
X143086928Y-69461730D01*
X143086928Y-71175001D01*
X143103992Y-71348255D01*
X143154528Y-71514851D01*
X143236595Y-71668387D01*
X143347038Y-71802962D01*
X143481613Y-71913405D01*
X143635149Y-71995472D01*
X143801745Y-72046008D01*
X143974999Y-72063072D01*
X146025001Y-72063072D01*
X146198255Y-72046008D01*
X146364851Y-71995472D01*
X146518387Y-71913405D01*
X146652962Y-71802962D01*
X146763405Y-71668387D01*
X146845472Y-71514851D01*
X146896008Y-71348255D01*
X146913072Y-71175001D01*
X146913072Y-69424999D01*
X146896008Y-69251745D01*
X146845472Y-69085149D01*
X146763405Y-68931613D01*
X146652962Y-68797038D01*
X146518387Y-68686595D01*
X146364851Y-68604528D01*
X146198255Y-68553992D01*
X146025001Y-68536928D01*
X144311730Y-68536928D01*
X142468804Y-66694003D01*
X142445001Y-66664999D01*
X142329276Y-66570026D01*
X142197247Y-66499454D01*
X142053986Y-66455997D01*
X141942333Y-66445000D01*
X141942322Y-66445000D01*
X141905000Y-66441324D01*
X141867678Y-66445000D01*
X141654870Y-66445000D01*
X141680812Y-66359482D01*
X141693072Y-66235000D01*
X141690000Y-66220750D01*
X141531250Y-66062000D01*
X140197000Y-66062000D01*
X140197000Y-66082000D01*
X139943000Y-66082000D01*
X139943000Y-66062000D01*
X138608750Y-66062000D01*
X138450000Y-66220750D01*
X138446928Y-66235000D01*
X138459188Y-66359482D01*
X138495498Y-66479180D01*
X138544043Y-66570000D01*
X138495498Y-66660820D01*
X138459188Y-66780518D01*
X138446928Y-66905000D01*
X138446928Y-67505000D01*
X138459188Y-67629482D01*
X138485146Y-67715053D01*
X135714013Y-70486186D01*
X135685009Y-70509989D01*
X135629881Y-70577164D01*
X135590036Y-70625714D01*
X135527524Y-70742665D01*
X135519464Y-70757744D01*
X135476007Y-70901005D01*
X135465010Y-71012658D01*
X135465010Y-71012668D01*
X135461334Y-71049990D01*
X135465010Y-71087313D01*
X135465010Y-71761928D01*
X134949999Y-71761928D01*
X134776745Y-71778992D01*
X134610149Y-71829528D01*
X134456613Y-71911595D01*
X134345307Y-72002942D01*
X134340462Y-71997038D01*
X134205886Y-71886595D01*
X134052350Y-71804528D01*
X133885754Y-71753992D01*
X133712500Y-71736928D01*
X133037500Y-71736928D01*
X132864246Y-71753992D01*
X132697650Y-71804528D01*
X132544114Y-71886595D01*
X132409538Y-71997038D01*
X132404158Y-72003594D01*
X132338685Y-71923815D01*
X132241994Y-71844463D01*
X132131680Y-71785498D01*
X132011982Y-71749188D01*
X131887500Y-71736928D01*
X131604793Y-71739806D01*
X131663405Y-71668387D01*
X131745472Y-71514851D01*
X131796008Y-71348255D01*
X131813072Y-71175001D01*
X131813072Y-71060000D01*
X131997678Y-71060000D01*
X132035000Y-71063676D01*
X132072322Y-71060000D01*
X132072333Y-71060000D01*
X132183986Y-71049003D01*
X132327247Y-71005546D01*
X132459276Y-70934974D01*
X132575001Y-70840001D01*
X132598804Y-70810997D01*
X135266730Y-68143072D01*
X136115000Y-68143072D01*
X136239482Y-68130812D01*
X136359180Y-68094502D01*
X136469494Y-68035537D01*
X136566185Y-67956185D01*
X136645537Y-67859494D01*
X136704502Y-67749180D01*
X136740812Y-67629482D01*
X136753072Y-67505000D01*
X136753072Y-66905000D01*
X136740812Y-66780518D01*
X136704502Y-66660820D01*
X136655957Y-66570000D01*
X136704502Y-66479180D01*
X136740812Y-66359482D01*
X136753072Y-66235000D01*
X136750000Y-66220750D01*
X136591250Y-66062000D01*
X135257000Y-66062000D01*
X135257000Y-66082000D01*
X135003000Y-66082000D01*
X135003000Y-66062000D01*
X133668750Y-66062000D01*
X133510000Y-66220750D01*
X133506928Y-66235000D01*
X133519188Y-66359482D01*
X133555498Y-66479180D01*
X133604043Y-66570000D01*
X133555498Y-66660820D01*
X133519188Y-66780518D01*
X133506928Y-66905000D01*
X133506928Y-67505000D01*
X133519188Y-67629482D01*
X133545146Y-67715053D01*
X131813072Y-69447127D01*
X131813072Y-69424999D01*
X131796008Y-69251745D01*
X131745472Y-69085149D01*
X131663405Y-68931613D01*
X131552962Y-68797038D01*
X131418387Y-68686595D01*
X131264851Y-68604528D01*
X131098255Y-68553992D01*
X130925001Y-68536928D01*
X128874999Y-68536928D01*
X128701745Y-68553992D01*
X128535149Y-68604528D01*
X128381613Y-68686595D01*
X128247038Y-68797038D01*
X128136595Y-68931613D01*
X128054528Y-69085149D01*
X128003992Y-69251745D01*
X127986928Y-69424999D01*
X127986928Y-71175001D01*
X128003992Y-71348255D01*
X128054528Y-71514851D01*
X128136595Y-71668387D01*
X128247038Y-71802962D01*
X128381613Y-71913405D01*
X128535149Y-71995472D01*
X128701745Y-72046008D01*
X128874999Y-72063072D01*
X130159211Y-72063072D01*
X130122998Y-72130820D01*
X130086688Y-72250518D01*
X130074428Y-72375000D01*
X130077500Y-72814250D01*
X130236250Y-72973000D01*
X131173000Y-72973000D01*
X131173000Y-72953000D01*
X131427000Y-72953000D01*
X131427000Y-72973000D01*
X131447000Y-72973000D01*
X131447000Y-73227000D01*
X131427000Y-73227000D01*
X131427000Y-74301250D01*
X131585750Y-74460000D01*
X131887500Y-74463072D01*
X132011982Y-74450812D01*
X132131680Y-74414502D01*
X132241994Y-74355537D01*
X132338685Y-74276185D01*
X132404158Y-74196406D01*
X132409538Y-74202962D01*
X132544114Y-74313405D01*
X132615001Y-74351295D01*
X132615001Y-74701196D01*
X132600820Y-74705498D01*
X132490506Y-74764463D01*
X132393815Y-74843815D01*
X132314463Y-74940506D01*
X132255498Y-75050820D01*
X132219188Y-75170518D01*
X132206928Y-75295000D01*
X132206928Y-75895000D01*
X132219188Y-76019482D01*
X132255498Y-76139180D01*
X132291689Y-76206887D01*
X130512795Y-74427993D01*
X130588018Y-74450812D01*
X130712500Y-74463072D01*
X131014250Y-74460000D01*
X131173000Y-74301250D01*
X131173000Y-73227000D01*
X130236250Y-73227000D01*
X130077500Y-73385750D01*
X130074428Y-73825000D01*
X130086688Y-73949482D01*
X130109507Y-74024705D01*
X125573804Y-69489003D01*
X125550001Y-69459999D01*
X125434276Y-69365026D01*
X125302247Y-69294454D01*
X125158986Y-69250997D01*
X125072211Y-69242450D01*
X125048932Y-69198899D01*
X124869608Y-68980392D01*
X124651101Y-68801068D01*
X124401808Y-68667818D01*
X124131309Y-68585764D01*
X123920492Y-68565000D01*
X122879508Y-68565000D01*
X122668691Y-68585764D01*
X122398192Y-68667818D01*
X122148899Y-68801068D01*
X121930392Y-68980392D01*
X121751068Y-69198899D01*
X121617818Y-69448192D01*
X121535764Y-69718691D01*
X121508057Y-70000000D01*
X121535764Y-70281309D01*
X121617818Y-70551808D01*
X121751068Y-70801101D01*
X121930392Y-71019608D01*
X122148899Y-71198932D01*
X122276741Y-71267265D01*
X122047161Y-71417399D01*
X121845500Y-71615105D01*
X121686285Y-71848354D01*
X121575633Y-72108182D01*
X121558096Y-72190961D01*
X121680085Y-72413000D01*
X123273000Y-72413000D01*
X123273000Y-72393000D01*
X123527000Y-72393000D01*
X123527000Y-72413000D01*
X125119915Y-72413000D01*
X125241904Y-72190961D01*
X125224367Y-72108182D01*
X125113715Y-71848354D01*
X124954500Y-71615105D01*
X124752839Y-71417399D01*
X124523259Y-71267265D01*
X124651101Y-71198932D01*
X124869608Y-71019608D01*
X124908012Y-70972813D01*
X129375198Y-75440000D01*
X129272998Y-75440000D01*
X129272998Y-75598748D01*
X129114250Y-75440000D01*
X128225000Y-75436928D01*
X128100518Y-75449188D01*
X127980820Y-75485498D01*
X127870506Y-75544463D01*
X127773815Y-75623815D01*
X127694463Y-75720506D01*
X127635498Y-75830820D01*
X127599188Y-75950518D01*
X127586928Y-76075000D01*
X127590000Y-76914250D01*
X127748750Y-77073000D01*
X129273000Y-77073000D01*
X129273000Y-77053000D01*
X129527000Y-77053000D01*
X129527000Y-77073000D01*
X129547000Y-77073000D01*
X129547000Y-77327000D01*
X129527000Y-77327000D01*
X129527000Y-77347000D01*
X129273000Y-77347000D01*
X129273000Y-77327000D01*
X127748750Y-77327000D01*
X127590000Y-77485750D01*
X127587404Y-78194990D01*
X126172335Y-78194990D01*
X126135010Y-78191314D01*
X126097685Y-78194990D01*
X126097677Y-78194990D01*
X125986024Y-78205987D01*
X125842763Y-78249444D01*
X125710734Y-78320016D01*
X125595009Y-78414989D01*
X125571211Y-78443987D01*
X123863889Y-80151309D01*
X123774482Y-80124188D01*
X123650000Y-80111928D01*
X122150000Y-80111928D01*
X122025518Y-80124188D01*
X121905820Y-80160498D01*
X121795506Y-80219463D01*
X121698815Y-80298815D01*
X121619463Y-80395506D01*
X121560498Y-80505820D01*
X121524188Y-80625518D01*
X121511928Y-80750000D01*
X121511928Y-82250000D01*
X121524188Y-82374482D01*
X121560498Y-82494180D01*
X121619463Y-82604494D01*
X121698815Y-82701185D01*
X121795506Y-82780537D01*
X121905820Y-82839502D01*
X122025518Y-82875812D01*
X122150000Y-82888072D01*
X123650000Y-82888072D01*
X123774482Y-82875812D01*
X123894180Y-82839502D01*
X124004494Y-82780537D01*
X124101185Y-82701185D01*
X124180537Y-82604494D01*
X124239502Y-82494180D01*
X124275812Y-82374482D01*
X124288072Y-82250000D01*
X124288072Y-81876729D01*
X126449812Y-79714990D01*
X129810208Y-79714990D01*
X128988271Y-80536928D01*
X128474999Y-80536928D01*
X128301745Y-80553992D01*
X128135149Y-80604528D01*
X127981613Y-80686595D01*
X127847038Y-80797038D01*
X127736595Y-80931613D01*
X127654528Y-81085149D01*
X127603992Y-81251745D01*
X127586928Y-81424999D01*
X127586928Y-83175001D01*
X127603992Y-83348255D01*
X127654528Y-83514851D01*
X127736595Y-83668387D01*
X127847038Y-83802962D01*
X127981613Y-83913405D01*
X128135149Y-83995472D01*
X128301745Y-84046008D01*
X128474999Y-84063072D01*
X130325001Y-84063072D01*
X130498255Y-84046008D01*
X130664851Y-83995472D01*
X130818387Y-83913405D01*
X130952962Y-83802962D01*
X131063405Y-83668387D01*
X131145472Y-83514851D01*
X131196008Y-83348255D01*
X131213072Y-83175001D01*
X131213072Y-81424999D01*
X131196008Y-81251745D01*
X131145472Y-81085149D01*
X131063405Y-80931613D01*
X130952962Y-80797038D01*
X130911660Y-80763142D01*
X131509802Y-80165000D01*
X132404556Y-80165000D01*
X132490506Y-80235537D01*
X132498856Y-80240000D01*
X132472998Y-80240000D01*
X132472998Y-80398748D01*
X132314250Y-80240000D01*
X132012500Y-80236928D01*
X131888018Y-80249188D01*
X131768320Y-80285498D01*
X131658006Y-80344463D01*
X131561315Y-80423815D01*
X131481963Y-80520506D01*
X131422998Y-80630820D01*
X131386688Y-80750518D01*
X131374428Y-80875000D01*
X131377500Y-81314250D01*
X131536250Y-81473000D01*
X132473000Y-81473000D01*
X132473000Y-81453000D01*
X132727000Y-81453000D01*
X132727000Y-81473000D01*
X132747000Y-81473000D01*
X132747000Y-81727000D01*
X132727000Y-81727000D01*
X132727000Y-81747000D01*
X132473000Y-81747000D01*
X132473000Y-81727000D01*
X131536250Y-81727000D01*
X131377500Y-81885750D01*
X131374428Y-82325000D01*
X131386688Y-82449482D01*
X131422998Y-82569180D01*
X131481963Y-82679494D01*
X131561315Y-82776185D01*
X131658006Y-82855537D01*
X131768320Y-82914502D01*
X131888018Y-82950812D01*
X132012500Y-82963072D01*
X132314250Y-82960000D01*
X132472998Y-82801252D01*
X132472998Y-82960000D01*
X132585198Y-82960000D01*
X130331571Y-85213628D01*
X130177592Y-85183000D01*
X129902408Y-85183000D01*
X129632510Y-85236686D01*
X129378273Y-85341995D01*
X129149465Y-85494880D01*
X128954880Y-85689465D01*
X128801995Y-85918273D01*
X128770000Y-85995515D01*
X128738005Y-85918273D01*
X128585120Y-85689465D01*
X128390535Y-85494880D01*
X128161727Y-85341995D01*
X127907490Y-85236686D01*
X127637592Y-85183000D01*
X127362408Y-85183000D01*
X127092510Y-85236686D01*
X126838273Y-85341995D01*
X126609465Y-85494880D01*
X126414880Y-85689465D01*
X126261995Y-85918273D01*
X126230000Y-85995515D01*
X126198005Y-85918273D01*
X126045120Y-85689465D01*
X125850535Y-85494880D01*
X125621727Y-85341995D01*
X125367490Y-85236686D01*
X125097592Y-85183000D01*
X124822408Y-85183000D01*
X124552510Y-85236686D01*
X124298273Y-85341995D01*
X124069465Y-85494880D01*
X123874880Y-85689465D01*
X123721995Y-85918273D01*
X123690000Y-85995515D01*
X123658005Y-85918273D01*
X123505120Y-85689465D01*
X123310535Y-85494880D01*
X123081727Y-85341995D01*
X122827490Y-85236686D01*
X122557592Y-85183000D01*
X122282408Y-85183000D01*
X122012510Y-85236686D01*
X121758273Y-85341995D01*
X121529465Y-85494880D01*
X121334880Y-85689465D01*
X121181995Y-85918273D01*
X121150000Y-85995515D01*
X121118005Y-85918273D01*
X120965120Y-85689465D01*
X120770535Y-85494880D01*
X120541727Y-85341995D01*
X120287490Y-85236686D01*
X120017592Y-85183000D01*
X119742408Y-85183000D01*
X119472510Y-85236686D01*
X119218273Y-85341995D01*
X118989465Y-85494880D01*
X118794880Y-85689465D01*
X118641995Y-85918273D01*
X118612308Y-85989943D01*
X118607636Y-85976977D01*
X118545656Y-85861020D01*
X118305565Y-85794040D01*
X117519605Y-86580000D01*
X118305565Y-87365960D01*
X118545656Y-87298980D01*
X118609485Y-87163240D01*
X118641995Y-87241727D01*
X118794880Y-87470535D01*
X118989465Y-87665120D01*
X119218273Y-87818005D01*
X119472510Y-87923314D01*
X119742408Y-87977000D01*
X120017592Y-87977000D01*
X120287490Y-87923314D01*
X120541727Y-87818005D01*
X120770535Y-87665120D01*
X120965120Y-87470535D01*
X121118005Y-87241727D01*
X121150000Y-87164485D01*
X121181995Y-87241727D01*
X121334880Y-87470535D01*
X121529465Y-87665120D01*
X121660000Y-87752341D01*
X121660001Y-89042657D01*
X121660000Y-89042667D01*
X121660000Y-89421440D01*
X121656324Y-89458762D01*
X121660000Y-89496084D01*
X121660000Y-89496094D01*
X121670997Y-89607747D01*
X121714454Y-89751008D01*
X121785026Y-89883038D01*
X121811055Y-89914754D01*
X121879999Y-89998763D01*
X121909003Y-90022566D01*
X127919616Y-96033180D01*
X127919622Y-96033185D01*
X128016820Y-96130383D01*
X131797439Y-99911003D01*
X131821237Y-99940001D01*
X131861445Y-99972999D01*
X131164334Y-99972999D01*
X131127001Y-99969322D01*
X131089668Y-99972999D01*
X130978015Y-99983996D01*
X130834754Y-100027453D01*
X130702725Y-100098025D01*
X130587000Y-100192998D01*
X130563202Y-100221996D01*
X130331570Y-100453628D01*
X130177592Y-100423000D01*
X129902408Y-100423000D01*
X129632510Y-100476686D01*
X129378273Y-100581995D01*
X129149465Y-100734880D01*
X128954880Y-100929465D01*
X128801995Y-101158273D01*
X128770000Y-101235515D01*
X128738005Y-101158273D01*
X128585120Y-100929465D01*
X128390535Y-100734880D01*
X128161727Y-100581995D01*
X127907490Y-100476686D01*
X127637592Y-100423000D01*
X127362408Y-100423000D01*
X127092510Y-100476686D01*
X126838273Y-100581995D01*
X126609465Y-100734880D01*
X126414880Y-100929465D01*
X126261995Y-101158273D01*
X126230000Y-101235515D01*
X126198005Y-101158273D01*
X126045120Y-100929465D01*
X125850535Y-100734880D01*
X125621727Y-100581995D01*
X125367490Y-100476686D01*
X125097592Y-100423000D01*
X124822408Y-100423000D01*
X124552510Y-100476686D01*
X124298273Y-100581995D01*
X124069465Y-100734880D01*
X123874880Y-100929465D01*
X123721995Y-101158273D01*
X123692308Y-101229943D01*
X123687636Y-101216977D01*
X123625656Y-101101020D01*
X123385565Y-101034040D01*
X122599605Y-101820000D01*
X123385565Y-102605960D01*
X123625656Y-102538980D01*
X123689485Y-102403240D01*
X123721995Y-102481727D01*
X123874880Y-102710535D01*
X124069465Y-102905120D01*
X124298273Y-103058005D01*
X124552510Y-103163314D01*
X124822408Y-103217000D01*
X125097592Y-103217000D01*
X125367490Y-103163314D01*
X125621727Y-103058005D01*
X125850535Y-102905120D01*
X126045120Y-102710535D01*
X126198005Y-102481727D01*
X126230000Y-102404485D01*
X126261995Y-102481727D01*
X126414880Y-102710535D01*
X126609465Y-102905120D01*
X126838273Y-103058005D01*
X127092510Y-103163314D01*
X127362408Y-103217000D01*
X127637592Y-103217000D01*
X127907490Y-103163314D01*
X128161727Y-103058005D01*
X128390535Y-102905120D01*
X128585120Y-102710535D01*
X128738005Y-102481727D01*
X128770000Y-102404485D01*
X128801995Y-102481727D01*
X128954880Y-102710535D01*
X129149465Y-102905120D01*
X129378273Y-103058005D01*
X129632510Y-103163314D01*
X129902408Y-103217000D01*
X130177592Y-103217000D01*
X130447490Y-103163314D01*
X130701727Y-103058005D01*
X130930535Y-102905120D01*
X131125120Y-102710535D01*
X131278005Y-102481727D01*
X131310000Y-102404485D01*
X131341995Y-102481727D01*
X131494880Y-102710535D01*
X131689465Y-102905120D01*
X131918273Y-103058005D01*
X132172510Y-103163314D01*
X132442408Y-103217000D01*
X132717592Y-103217000D01*
X132987490Y-103163314D01*
X133241727Y-103058005D01*
X133470535Y-102905120D01*
X133665120Y-102710535D01*
X133818005Y-102481727D01*
X133850000Y-102404485D01*
X133881995Y-102481727D01*
X134034880Y-102710535D01*
X134229465Y-102905120D01*
X134458273Y-103058005D01*
X134712510Y-103163314D01*
X134982408Y-103217000D01*
X135257592Y-103217000D01*
X135527490Y-103163314D01*
X135781727Y-103058005D01*
X136010535Y-102905120D01*
X136205120Y-102710535D01*
X136358005Y-102481727D01*
X136390000Y-102404485D01*
X136421995Y-102481727D01*
X136574880Y-102710535D01*
X136769465Y-102905120D01*
X136998273Y-103058005D01*
X137252510Y-103163314D01*
X137522408Y-103217000D01*
X137797592Y-103217000D01*
X138067490Y-103163314D01*
X138321727Y-103058005D01*
X138550535Y-102905120D01*
X138745120Y-102710535D01*
X138898005Y-102481727D01*
X138930000Y-102404485D01*
X138961995Y-102481727D01*
X139114880Y-102710535D01*
X139309465Y-102905120D01*
X139538273Y-103058005D01*
X139792510Y-103163314D01*
X140062408Y-103217000D01*
X140337592Y-103217000D01*
X140607490Y-103163314D01*
X140861727Y-103058005D01*
X141090535Y-102905120D01*
X141285120Y-102710535D01*
X141438005Y-102481727D01*
X141470000Y-102404485D01*
X141501995Y-102481727D01*
X141654880Y-102710535D01*
X141849465Y-102905120D01*
X142078273Y-103058005D01*
X142332510Y-103163314D01*
X142602408Y-103217000D01*
X142877592Y-103217000D01*
X143147490Y-103163314D01*
X143401727Y-103058005D01*
X143630535Y-102905120D01*
X143825120Y-102710535D01*
X143978005Y-102481727D01*
X144083314Y-102227490D01*
X144137000Y-101957592D01*
X144137000Y-101682408D01*
X144099324Y-101492999D01*
X149050481Y-101492999D01*
X149087803Y-101496675D01*
X149125125Y-101492999D01*
X149125136Y-101492999D01*
X149236789Y-101482002D01*
X149380050Y-101438545D01*
X149512079Y-101367973D01*
X149627804Y-101273000D01*
X149651607Y-101243996D01*
X163840000Y-87055604D01*
X163840000Y-104040000D01*
X110060000Y-104040000D01*
X110060000Y-101682408D01*
X113403000Y-101682408D01*
X113403000Y-101957592D01*
X113456686Y-102227490D01*
X113561995Y-102481727D01*
X113714880Y-102710535D01*
X113909465Y-102905120D01*
X114138273Y-103058005D01*
X114392510Y-103163314D01*
X114662408Y-103217000D01*
X114937592Y-103217000D01*
X115207490Y-103163314D01*
X115461727Y-103058005D01*
X115690535Y-102905120D01*
X115885120Y-102710535D01*
X116038005Y-102481727D01*
X116070000Y-102404485D01*
X116101995Y-102481727D01*
X116254880Y-102710535D01*
X116449465Y-102905120D01*
X116678273Y-103058005D01*
X116932510Y-103163314D01*
X117202408Y-103217000D01*
X117477592Y-103217000D01*
X117747490Y-103163314D01*
X118001727Y-103058005D01*
X118230535Y-102905120D01*
X118425120Y-102710535D01*
X118578005Y-102481727D01*
X118610000Y-102404485D01*
X118641995Y-102481727D01*
X118794880Y-102710535D01*
X118989465Y-102905120D01*
X119218273Y-103058005D01*
X119472510Y-103163314D01*
X119742408Y-103217000D01*
X120017592Y-103217000D01*
X120287490Y-103163314D01*
X120541727Y-103058005D01*
X120770535Y-102905120D01*
X120890090Y-102785565D01*
X121634040Y-102785565D01*
X121701020Y-103025656D01*
X121950048Y-103142756D01*
X122217135Y-103209023D01*
X122492017Y-103221910D01*
X122764133Y-103180922D01*
X123023023Y-103087636D01*
X123138980Y-103025656D01*
X123205960Y-102785565D01*
X122420000Y-101999605D01*
X121634040Y-102785565D01*
X120890090Y-102785565D01*
X120965120Y-102710535D01*
X121118005Y-102481727D01*
X121147692Y-102410057D01*
X121152364Y-102423023D01*
X121214344Y-102538980D01*
X121454435Y-102605960D01*
X122240395Y-101820000D01*
X121454435Y-101034040D01*
X121214344Y-101101020D01*
X121150515Y-101236760D01*
X121118005Y-101158273D01*
X120965120Y-100929465D01*
X120890090Y-100854435D01*
X121634040Y-100854435D01*
X122420000Y-101640395D01*
X123205960Y-100854435D01*
X123138980Y-100614344D01*
X122889952Y-100497244D01*
X122622865Y-100430977D01*
X122347983Y-100418090D01*
X122075867Y-100459078D01*
X121816977Y-100552364D01*
X121701020Y-100614344D01*
X121634040Y-100854435D01*
X120890090Y-100854435D01*
X120770535Y-100734880D01*
X120541727Y-100581995D01*
X120287490Y-100476686D01*
X120017592Y-100423000D01*
X119742408Y-100423000D01*
X119472510Y-100476686D01*
X119218273Y-100581995D01*
X118989465Y-100734880D01*
X118794880Y-100929465D01*
X118641995Y-101158273D01*
X118610000Y-101235515D01*
X118578005Y-101158273D01*
X118425120Y-100929465D01*
X118230535Y-100734880D01*
X118001727Y-100581995D01*
X117747490Y-100476686D01*
X117477592Y-100423000D01*
X117202408Y-100423000D01*
X116932510Y-100476686D01*
X116678273Y-100581995D01*
X116449465Y-100734880D01*
X116254880Y-100929465D01*
X116101995Y-101158273D01*
X116070000Y-101235515D01*
X116038005Y-101158273D01*
X115885120Y-100929465D01*
X115690535Y-100734880D01*
X115461727Y-100581995D01*
X115207490Y-100476686D01*
X114937592Y-100423000D01*
X114662408Y-100423000D01*
X114392510Y-100476686D01*
X114138273Y-100581995D01*
X113909465Y-100734880D01*
X113714880Y-100929465D01*
X113561995Y-101158273D01*
X113456686Y-101412510D01*
X113403000Y-101682408D01*
X110060000Y-101682408D01*
X110060000Y-41660000D01*
X138773000Y-41660000D01*
X138773000Y-61023198D01*
G37*
%TD.AperFunction*%
D28*
X159148982Y-87141712D02*
X159331465Y-87311073D01*
X159543483Y-87441579D01*
X159776887Y-87528215D01*
X159972998Y-87404891D01*
X159972998Y-87570000D01*
X160005198Y-87570000D01*
X148935199Y-98640000D01*
X132676040Y-98640000D01*
X129201605Y-95165565D01*
X141954040Y-95165565D01*
X142021020Y-95405656D01*
X142270048Y-95522756D01*
X142537135Y-95589023D01*
X142812017Y-95601910D01*
X143084133Y-95560922D01*
X143343023Y-95467636D01*
X143458980Y-95405656D01*
X143525960Y-95165565D01*
X142740000Y-94379605D01*
X141954040Y-95165565D01*
X129201605Y-95165565D01*
X129091621Y-95055582D01*
X128994423Y-94958384D01*
X128994418Y-94958378D01*
X128308057Y-94272017D01*
X141338090Y-94272017D01*
X141379078Y-94544133D01*
X141472364Y-94803023D01*
X141534344Y-94918980D01*
X141774435Y-94985960D01*
X142560395Y-94200000D01*
X142919605Y-94200000D01*
X143705565Y-94985960D01*
X143945656Y-94918980D01*
X144062756Y-94669952D01*
X144129023Y-94402865D01*
X144141910Y-94127983D01*
X144100922Y-93855867D01*
X144007636Y-93596977D01*
X143945656Y-93481020D01*
X143705565Y-93414040D01*
X142919605Y-94200000D01*
X142560395Y-94200000D01*
X141774435Y-93414040D01*
X141534344Y-93481020D01*
X141417244Y-93730048D01*
X141350977Y-93997135D01*
X141338090Y-94272017D01*
X128308057Y-94272017D01*
X124377094Y-90341055D01*
X124580535Y-90205120D01*
X124775120Y-90010535D01*
X124928005Y-89781727D01*
X124960000Y-89704485D01*
X124991995Y-89781727D01*
X125144880Y-90010535D01*
X125339465Y-90205120D01*
X125568273Y-90358005D01*
X125822510Y-90463314D01*
X126092408Y-90517000D01*
X126367592Y-90517000D01*
X126637490Y-90463314D01*
X126891727Y-90358005D01*
X127120535Y-90205120D01*
X127315120Y-90010535D01*
X127468005Y-89781727D01*
X127573314Y-89527490D01*
X127627000Y-89257592D01*
X127627000Y-88982408D01*
X127573314Y-88712510D01*
X127468005Y-88458273D01*
X127315120Y-88229465D01*
X127120535Y-88034880D01*
X126891727Y-87881995D01*
X126637490Y-87776686D01*
X126367592Y-87723000D01*
X126092408Y-87723000D01*
X125822510Y-87776686D01*
X125568273Y-87881995D01*
X125339465Y-88034880D01*
X125144880Y-88229465D01*
X124991995Y-88458273D01*
X124960000Y-88535515D01*
X124928005Y-88458273D01*
X124775120Y-88229465D01*
X124580535Y-88034880D01*
X124351727Y-87881995D01*
X124097490Y-87776686D01*
X123827592Y-87723000D01*
X123552408Y-87723000D01*
X123282510Y-87776686D01*
X123180000Y-87819147D01*
X123180000Y-87752341D01*
X123310535Y-87665120D01*
X123505120Y-87470535D01*
X123658005Y-87241727D01*
X123690000Y-87164485D01*
X123721995Y-87241727D01*
X123874880Y-87470535D01*
X124069465Y-87665120D01*
X124298273Y-87818005D01*
X124552510Y-87923314D01*
X124822408Y-87977000D01*
X125097592Y-87977000D01*
X125367490Y-87923314D01*
X125621727Y-87818005D01*
X125850535Y-87665120D01*
X126045120Y-87470535D01*
X126198005Y-87241727D01*
X126230000Y-87164485D01*
X126261995Y-87241727D01*
X126414880Y-87470535D01*
X126609465Y-87665120D01*
X126838273Y-87818005D01*
X127092510Y-87923314D01*
X127362408Y-87977000D01*
X127637592Y-87977000D01*
X127907490Y-87923314D01*
X128161727Y-87818005D01*
X128390535Y-87665120D01*
X128585120Y-87470535D01*
X128738005Y-87241727D01*
X128770000Y-87164485D01*
X128801995Y-87241727D01*
X128954880Y-87470535D01*
X129149465Y-87665120D01*
X129378273Y-87818005D01*
X129632510Y-87923314D01*
X129902408Y-87977000D01*
X130177592Y-87977000D01*
X130447490Y-87923314D01*
X130701727Y-87818005D01*
X130930535Y-87665120D01*
X131125120Y-87470535D01*
X131278005Y-87241727D01*
X131310000Y-87164485D01*
X131341995Y-87241727D01*
X131494880Y-87470535D01*
X131689465Y-87665120D01*
X131918273Y-87818005D01*
X132172510Y-87923314D01*
X132442408Y-87977000D01*
X132717592Y-87977000D01*
X132987490Y-87923314D01*
X133241727Y-87818005D01*
X133470535Y-87665120D01*
X133665120Y-87470535D01*
X133818005Y-87241727D01*
X133850000Y-87164485D01*
X133881995Y-87241727D01*
X134034880Y-87470535D01*
X134229465Y-87665120D01*
X134458273Y-87818005D01*
X134712510Y-87923314D01*
X134982408Y-87977000D01*
X135257592Y-87977000D01*
X135411571Y-87946372D01*
X138183202Y-90718004D01*
X138207000Y-90747002D01*
X138235998Y-90770800D01*
X138322724Y-90841975D01*
X138454754Y-90912547D01*
X138598015Y-90956004D01*
X138709668Y-90967001D01*
X138709678Y-90967001D01*
X138747000Y-90970677D01*
X138784323Y-90967001D01*
X141522890Y-90967001D01*
X141501995Y-90998273D01*
X141396686Y-91252510D01*
X141343000Y-91522408D01*
X141343000Y-91797592D01*
X141396686Y-92067490D01*
X141501995Y-92321727D01*
X141654880Y-92550535D01*
X141849465Y-92745120D01*
X142078273Y-92898005D01*
X142149943Y-92927692D01*
X142136977Y-92932364D01*
X142021020Y-92994344D01*
X141954040Y-93234435D01*
X142740000Y-94020395D01*
X143525960Y-93234435D01*
X143458980Y-92994344D01*
X143323240Y-92930515D01*
X143401727Y-92898005D01*
X143630535Y-92745120D01*
X143825120Y-92550535D01*
X143978005Y-92321727D01*
X144083314Y-92067490D01*
X144137000Y-91797592D01*
X144137000Y-91522408D01*
X144083314Y-91252510D01*
X143978005Y-90998273D01*
X143957110Y-90967001D01*
X152405677Y-90967001D01*
X152442999Y-90970677D01*
X152480321Y-90967001D01*
X152480332Y-90967001D01*
X152591985Y-90956004D01*
X152735246Y-90912547D01*
X152867275Y-90841975D01*
X152983000Y-90747002D01*
X153006803Y-90717998D01*
X156154803Y-87570000D01*
X156225084Y-87570000D01*
X156470445Y-87521195D01*
X156701571Y-87425459D01*
X156909578Y-87286473D01*
X157086473Y-87109578D01*
X157100000Y-87089333D01*
X157113527Y-87109578D01*
X157290422Y-87286473D01*
X157498429Y-87425459D01*
X157729555Y-87521195D01*
X157974916Y-87570000D01*
X158225084Y-87570000D01*
X158470445Y-87521195D01*
X158701571Y-87425459D01*
X158909578Y-87286473D01*
X159086473Y-87109578D01*
X159105323Y-87081368D01*
X159148982Y-87141712D01*
%TA.AperFunction,Conductor*%
D29*
G36*
X159148982Y-87141712D02*
G01*
X159331465Y-87311073D01*
X159543483Y-87441579D01*
X159776887Y-87528215D01*
X159972998Y-87404891D01*
X159972998Y-87570000D01*
X160005198Y-87570000D01*
X148935199Y-98640000D01*
X132676040Y-98640000D01*
X129201605Y-95165565D01*
X141954040Y-95165565D01*
X142021020Y-95405656D01*
X142270048Y-95522756D01*
X142537135Y-95589023D01*
X142812017Y-95601910D01*
X143084133Y-95560922D01*
X143343023Y-95467636D01*
X143458980Y-95405656D01*
X143525960Y-95165565D01*
X142740000Y-94379605D01*
X141954040Y-95165565D01*
X129201605Y-95165565D01*
X129091621Y-95055582D01*
X128994423Y-94958384D01*
X128994418Y-94958378D01*
X128308057Y-94272017D01*
X141338090Y-94272017D01*
X141379078Y-94544133D01*
X141472364Y-94803023D01*
X141534344Y-94918980D01*
X141774435Y-94985960D01*
X142560395Y-94200000D01*
X142919605Y-94200000D01*
X143705565Y-94985960D01*
X143945656Y-94918980D01*
X144062756Y-94669952D01*
X144129023Y-94402865D01*
X144141910Y-94127983D01*
X144100922Y-93855867D01*
X144007636Y-93596977D01*
X143945656Y-93481020D01*
X143705565Y-93414040D01*
X142919605Y-94200000D01*
X142560395Y-94200000D01*
X141774435Y-93414040D01*
X141534344Y-93481020D01*
X141417244Y-93730048D01*
X141350977Y-93997135D01*
X141338090Y-94272017D01*
X128308057Y-94272017D01*
X124377094Y-90341055D01*
X124580535Y-90205120D01*
X124775120Y-90010535D01*
X124928005Y-89781727D01*
X124960000Y-89704485D01*
X124991995Y-89781727D01*
X125144880Y-90010535D01*
X125339465Y-90205120D01*
X125568273Y-90358005D01*
X125822510Y-90463314D01*
X126092408Y-90517000D01*
X126367592Y-90517000D01*
X126637490Y-90463314D01*
X126891727Y-90358005D01*
X127120535Y-90205120D01*
X127315120Y-90010535D01*
X127468005Y-89781727D01*
X127573314Y-89527490D01*
X127627000Y-89257592D01*
X127627000Y-88982408D01*
X127573314Y-88712510D01*
X127468005Y-88458273D01*
X127315120Y-88229465D01*
X127120535Y-88034880D01*
X126891727Y-87881995D01*
X126637490Y-87776686D01*
X126367592Y-87723000D01*
X126092408Y-87723000D01*
X125822510Y-87776686D01*
X125568273Y-87881995D01*
X125339465Y-88034880D01*
X125144880Y-88229465D01*
X124991995Y-88458273D01*
X124960000Y-88535515D01*
X124928005Y-88458273D01*
X124775120Y-88229465D01*
X124580535Y-88034880D01*
X124351727Y-87881995D01*
X124097490Y-87776686D01*
X123827592Y-87723000D01*
X123552408Y-87723000D01*
X123282510Y-87776686D01*
X123180000Y-87819147D01*
X123180000Y-87752341D01*
X123310535Y-87665120D01*
X123505120Y-87470535D01*
X123658005Y-87241727D01*
X123690000Y-87164485D01*
X123721995Y-87241727D01*
X123874880Y-87470535D01*
X124069465Y-87665120D01*
X124298273Y-87818005D01*
X124552510Y-87923314D01*
X124822408Y-87977000D01*
X125097592Y-87977000D01*
X125367490Y-87923314D01*
X125621727Y-87818005D01*
X125850535Y-87665120D01*
X126045120Y-87470535D01*
X126198005Y-87241727D01*
X126230000Y-87164485D01*
X126261995Y-87241727D01*
X126414880Y-87470535D01*
X126609465Y-87665120D01*
X126838273Y-87818005D01*
X127092510Y-87923314D01*
X127362408Y-87977000D01*
X127637592Y-87977000D01*
X127907490Y-87923314D01*
X128161727Y-87818005D01*
X128390535Y-87665120D01*
X128585120Y-87470535D01*
X128738005Y-87241727D01*
X128770000Y-87164485D01*
X128801995Y-87241727D01*
X128954880Y-87470535D01*
X129149465Y-87665120D01*
X129378273Y-87818005D01*
X129632510Y-87923314D01*
X129902408Y-87977000D01*
X130177592Y-87977000D01*
X130447490Y-87923314D01*
X130701727Y-87818005D01*
X130930535Y-87665120D01*
X131125120Y-87470535D01*
X131278005Y-87241727D01*
X131310000Y-87164485D01*
X131341995Y-87241727D01*
X131494880Y-87470535D01*
X131689465Y-87665120D01*
X131918273Y-87818005D01*
X132172510Y-87923314D01*
X132442408Y-87977000D01*
X132717592Y-87977000D01*
X132987490Y-87923314D01*
X133241727Y-87818005D01*
X133470535Y-87665120D01*
X133665120Y-87470535D01*
X133818005Y-87241727D01*
X133850000Y-87164485D01*
X133881995Y-87241727D01*
X134034880Y-87470535D01*
X134229465Y-87665120D01*
X134458273Y-87818005D01*
X134712510Y-87923314D01*
X134982408Y-87977000D01*
X135257592Y-87977000D01*
X135411571Y-87946372D01*
X138183202Y-90718004D01*
X138207000Y-90747002D01*
X138235998Y-90770800D01*
X138322724Y-90841975D01*
X138454754Y-90912547D01*
X138598015Y-90956004D01*
X138709668Y-90967001D01*
X138709678Y-90967001D01*
X138747000Y-90970677D01*
X138784323Y-90967001D01*
X141522890Y-90967001D01*
X141501995Y-90998273D01*
X141396686Y-91252510D01*
X141343000Y-91522408D01*
X141343000Y-91797592D01*
X141396686Y-92067490D01*
X141501995Y-92321727D01*
X141654880Y-92550535D01*
X141849465Y-92745120D01*
X142078273Y-92898005D01*
X142149943Y-92927692D01*
X142136977Y-92932364D01*
X142021020Y-92994344D01*
X141954040Y-93234435D01*
X142740000Y-94020395D01*
X143525960Y-93234435D01*
X143458980Y-92994344D01*
X143323240Y-92930515D01*
X143401727Y-92898005D01*
X143630535Y-92745120D01*
X143825120Y-92550535D01*
X143978005Y-92321727D01*
X144083314Y-92067490D01*
X144137000Y-91797592D01*
X144137000Y-91522408D01*
X144083314Y-91252510D01*
X143978005Y-90998273D01*
X143957110Y-90967001D01*
X152405677Y-90967001D01*
X152442999Y-90970677D01*
X152480321Y-90967001D01*
X152480332Y-90967001D01*
X152591985Y-90956004D01*
X152735246Y-90912547D01*
X152867275Y-90841975D01*
X152983000Y-90747002D01*
X153006803Y-90717998D01*
X156154803Y-87570000D01*
X156225084Y-87570000D01*
X156470445Y-87521195D01*
X156701571Y-87425459D01*
X156909578Y-87286473D01*
X157086473Y-87109578D01*
X157100000Y-87089333D01*
X157113527Y-87109578D01*
X157290422Y-87286473D01*
X157498429Y-87425459D01*
X157729555Y-87521195D01*
X157974916Y-87570000D01*
X158225084Y-87570000D01*
X158470445Y-87521195D01*
X158701571Y-87425459D01*
X158909578Y-87286473D01*
X159086473Y-87109578D01*
X159105323Y-87081368D01*
X159148982Y-87141712D01*
G37*
%TD.AperFunction*%
D28*
X160287000Y-81873000D02*
X160307000Y-81873000D01*
X160307000Y-82127000D01*
X160287000Y-82127000D01*
X160287000Y-83320155D01*
X160516890Y-83441476D01*
X160664099Y-83396825D01*
X160926920Y-83271641D01*
X161160269Y-83097588D01*
X161236034Y-83013534D01*
X161260498Y-83094180D01*
X161319463Y-83204494D01*
X161340001Y-83229519D01*
X161340001Y-83684962D01*
X161255820Y-83710498D01*
X161145506Y-83769463D01*
X161100000Y-83806809D01*
X161054494Y-83769463D01*
X160944180Y-83710498D01*
X160824482Y-83674188D01*
X160700000Y-83661928D01*
X160385750Y-83665000D01*
X160227000Y-83823750D01*
X160227000Y-85173000D01*
X160247000Y-85173000D01*
X160247000Y-85182533D01*
X160227000Y-85195110D01*
X160227000Y-86447000D01*
X159973000Y-86447000D01*
X159973000Y-85195110D01*
X159953000Y-85182533D01*
X159953000Y-85173000D01*
X159973000Y-85173000D01*
X159973000Y-83823750D01*
X159814250Y-83665000D01*
X159500000Y-83661928D01*
X159375518Y-83674188D01*
X159255820Y-83710498D01*
X159145506Y-83769463D01*
X159100000Y-83806809D01*
X159054494Y-83769463D01*
X158944180Y-83710498D01*
X158824482Y-83674188D01*
X158757345Y-83667576D01*
X158734974Y-83625724D01*
X158640001Y-83509999D01*
X158611002Y-83486200D01*
X158588801Y-83463999D01*
X158565000Y-83434998D01*
X158449275Y-83340025D01*
X158359365Y-83291966D01*
X158566632Y-83153475D01*
X158773475Y-82946632D01*
X158895195Y-82764466D01*
X158964822Y-82881355D01*
X159159731Y-83097588D01*
X159393080Y-83271641D01*
X159655901Y-83396825D01*
X159803110Y-83441476D01*
X160033000Y-83320155D01*
X160033000Y-82127000D01*
X160013000Y-82127000D01*
X160013000Y-81873000D01*
X160033000Y-81873000D01*
X160033000Y-81853000D01*
X160287000Y-81853000D01*
X160287000Y-81873000D01*
%TA.AperFunction,Conductor*%
D29*
G36*
X160287000Y-81873000D02*
G01*
X160307000Y-81873000D01*
X160307000Y-82127000D01*
X160287000Y-82127000D01*
X160287000Y-83320155D01*
X160516890Y-83441476D01*
X160664099Y-83396825D01*
X160926920Y-83271641D01*
X161160269Y-83097588D01*
X161236034Y-83013534D01*
X161260498Y-83094180D01*
X161319463Y-83204494D01*
X161340001Y-83229519D01*
X161340001Y-83684962D01*
X161255820Y-83710498D01*
X161145506Y-83769463D01*
X161100000Y-83806809D01*
X161054494Y-83769463D01*
X160944180Y-83710498D01*
X160824482Y-83674188D01*
X160700000Y-83661928D01*
X160385750Y-83665000D01*
X160227000Y-83823750D01*
X160227000Y-85173000D01*
X160247000Y-85173000D01*
X160247000Y-85182533D01*
X160227000Y-85195110D01*
X160227000Y-86447000D01*
X159973000Y-86447000D01*
X159973000Y-85195110D01*
X159953000Y-85182533D01*
X159953000Y-85173000D01*
X159973000Y-85173000D01*
X159973000Y-83823750D01*
X159814250Y-83665000D01*
X159500000Y-83661928D01*
X159375518Y-83674188D01*
X159255820Y-83710498D01*
X159145506Y-83769463D01*
X159100000Y-83806809D01*
X159054494Y-83769463D01*
X158944180Y-83710498D01*
X158824482Y-83674188D01*
X158757345Y-83667576D01*
X158734974Y-83625724D01*
X158640001Y-83509999D01*
X158611002Y-83486200D01*
X158588801Y-83463999D01*
X158565000Y-83434998D01*
X158449275Y-83340025D01*
X158359365Y-83291966D01*
X158566632Y-83153475D01*
X158773475Y-82946632D01*
X158895195Y-82764466D01*
X158964822Y-82881355D01*
X159159731Y-83097588D01*
X159393080Y-83271641D01*
X159655901Y-83396825D01*
X159803110Y-83441476D01*
X160033000Y-83320155D01*
X160033000Y-82127000D01*
X160013000Y-82127000D01*
X160013000Y-81873000D01*
X160033000Y-81873000D01*
X160033000Y-81853000D01*
X160287000Y-81853000D01*
X160287000Y-81873000D01*
G37*
%TD.AperFunction*%
D28*
X141940001Y-79874803D02*
X141940001Y-80367023D01*
X141856613Y-80411595D01*
X141722038Y-80522038D01*
X141700000Y-80548891D01*
X141677962Y-80522038D01*
X141543387Y-80411595D01*
X141389851Y-80329528D01*
X141223255Y-80278992D01*
X141050001Y-80261928D01*
X140349999Y-80261928D01*
X140176745Y-80278992D01*
X140010149Y-80329528D01*
X139856613Y-80411595D01*
X139722038Y-80522038D01*
X139700000Y-80548891D01*
X139677962Y-80522038D01*
X139543387Y-80411595D01*
X139412374Y-80341567D01*
X139755000Y-80343072D01*
X139879482Y-80330812D01*
X139999180Y-80294502D01*
X140109494Y-80235537D01*
X140206185Y-80156185D01*
X140285537Y-80059494D01*
X140344502Y-79949180D01*
X140380812Y-79829482D01*
X140393072Y-79705000D01*
X140390000Y-79690750D01*
X140231250Y-79532000D01*
X138897000Y-79532000D01*
X138897000Y-79552000D01*
X138643000Y-79552000D01*
X138643000Y-79532000D01*
X138623000Y-79532000D01*
X138623000Y-79278000D01*
X138643000Y-79278000D01*
X138643000Y-79258000D01*
X138897000Y-79258000D01*
X138897000Y-79278000D01*
X140231250Y-79278000D01*
X140390000Y-79119250D01*
X140393072Y-79105000D01*
X140380812Y-78980518D01*
X140344502Y-78860820D01*
X140295957Y-78770000D01*
X140344502Y-78679180D01*
X140380812Y-78559482D01*
X140393072Y-78435000D01*
X140393072Y-78327873D01*
X141940001Y-79874803D01*
%TA.AperFunction,Conductor*%
D29*
G36*
X141940001Y-79874803D02*
G01*
X141940001Y-80367023D01*
X141856613Y-80411595D01*
X141722038Y-80522038D01*
X141700000Y-80548891D01*
X141677962Y-80522038D01*
X141543387Y-80411595D01*
X141389851Y-80329528D01*
X141223255Y-80278992D01*
X141050001Y-80261928D01*
X140349999Y-80261928D01*
X140176745Y-80278992D01*
X140010149Y-80329528D01*
X139856613Y-80411595D01*
X139722038Y-80522038D01*
X139700000Y-80548891D01*
X139677962Y-80522038D01*
X139543387Y-80411595D01*
X139412374Y-80341567D01*
X139755000Y-80343072D01*
X139879482Y-80330812D01*
X139999180Y-80294502D01*
X140109494Y-80235537D01*
X140206185Y-80156185D01*
X140285537Y-80059494D01*
X140344502Y-79949180D01*
X140380812Y-79829482D01*
X140393072Y-79705000D01*
X140390000Y-79690750D01*
X140231250Y-79532000D01*
X138897000Y-79532000D01*
X138897000Y-79552000D01*
X138643000Y-79552000D01*
X138643000Y-79532000D01*
X138623000Y-79532000D01*
X138623000Y-79278000D01*
X138643000Y-79278000D01*
X138643000Y-79258000D01*
X138897000Y-79258000D01*
X138897000Y-79278000D01*
X140231250Y-79278000D01*
X140390000Y-79119250D01*
X140393072Y-79105000D01*
X140380812Y-78980518D01*
X140344502Y-78860820D01*
X140295957Y-78770000D01*
X140344502Y-78679180D01*
X140380812Y-78559482D01*
X140393072Y-78435000D01*
X140393072Y-78327873D01*
X141940001Y-79874803D01*
G37*
%TD.AperFunction*%
%TD*%
M02*
